<?xml version="1.0" encoding="UTF-8"?>
<svg width="40px" height="40px" viewBox="0 0 40 40" version="1.1" xmlns="http://www.w3.org/2000/svg" xmlns:xlink="http://www.w3.org/1999/xlink">
    <!-- Generator: Sketch 61.2 (89653) - https://sketch.com -->
    <title>icons / 1st</title>
    <desc>Created with Sketch.</desc>
    <g id="icons-/-1st" stroke="none" stroke-width="1" fill="none" fill-rule="evenodd">
        <g>
            <polygon id="Fill-1" fill="#FCE864" points="17.8979091 0 15.3155765 2.51755069 11.8204644 1.62845029 10.1424683 4.8207609 6.54369754 5.05521138 5.93433352 8.60984757 2.58405955 9.94493733 3.1029669 13.5138501 0.329282228 15.8188257 1.92564861 19.0527763 0 22.1020909 2.51755069 24.6844235 1.62845029 28.1795356 4.8207609 29.8575317 5.05524976 33.4563408 8.60984757 34.0656665 9.94489896 37.4159404 13.5138501 36.8970331 15.8188641 39.6707178 19.0527379 38.0743514 22.1020909 40 24.6844235 37.4824493 28.1795739 38.3715881 29.8575317 35.1792391 33.4563025 34.9447502 34.0657049 31.3901908 37.4159404 30.055101 36.8970331 26.4861883 39.6707561 24.1811359 38.0743514 20.9472237 40 17.8979091 37.4824493 15.3155765 38.3715497 11.8204644 35.1792391 10.1425067 34.9447886 6.54365916 31.3901524 5.93433352 30.055101 2.58409793 26.4861499 3.1029669 24.1811359 0.329282228 20.9472621 1.92564861"></polygon>
            <polygon id="Fill-2" fill="#FFCE33" points="35.67434 29.0495579 32.6591094 30.2511227 32.1106996 33.4502867 28.8717544 33.661278 27.3616164 36.5343578 24.215974 35.7341555 21.8918861 38 19.1474969 36.2668803 16.236976 37.703603 14.1624512 35.2072804 10.9504146 35.6743058 9.74884859 32.6591149 6.54971792 32.110669 6.33868981 28.8717271 3.46560708 27.3615541 4.2658102 24.2159514 2 21.8918659 3.73308486 19.1474794 2.29636069 16.2369616 4.79268584 14.1624754 4.32569656 10.9504421 7.34089056 9.74884072 7.88930042 6.5497133 11.1282456 6.3386854 12.6384202 3.4656056 15.784026 4.2658079 18.1081139 2 20.8525031 3.7330831 23.763024 2.29636039 25.8375488 4.792683 29.0495854 4.32565763 30.2511514 7.34088513 33.4502821 7.88929444 33.6613102 11.1282364 36.5343929 12.6384094 35.7341898 15.7840486 38 18.1080976 36.2669151 20.852484 37.7036393 23.7630019 35.2073142 25.8375246"></polygon>
            <g id="Group-11" transform="translate(5.174497, 5.184851)">
                <path d="M28.8255034,14.8151681 C28.8255034,18.5282006 27.350503,22.0891332 24.7249955,24.7146797 C22.0994879,27.3401872 18.5385164,28.8151876 14.8254839,28.8151876 C7.0935049,28.8151876 0.825503356,22.5471471 0.825503356,14.8151681 C0.825503356,7.0831891 7.0935049,0.81514861 14.8254839,0.81514861 C18.5385164,0.81514861 22.0994879,2.29014892 24.7249955,4.91565649 C27.350503,7.54120301 28.8255034,11.1021355 28.8255034,14.8151681" id="Fill-3" fill="#E6A203"></path>
                <path d="M26.8255034,14.8151486 C26.8255034,21.4425566 21.452903,26.8151486 14.8254847,26.8151486 C8.19806646,26.8151486 2.82550336,21.4425566 2.82550336,14.8151486 C2.82550336,8.18774066 8.19806646,2.81514861 14.8254847,2.81514861 C18.0080943,2.81514861 21.0603317,4.07943932 23.3107899,6.32985664 C25.5612107,8.58031126 26.8255034,11.632544 26.8255034,14.8151486" id="Fill-5" fill="#EEAD09"></path>
                <path d="M16.5634766,20.7441406 L16.5634766,8 L14.4804688,8 C14.4804688,8.11132812 14.4482422,8.28125 14.3837891,8.50976562 C14.2724609,8.890625 14.1083984,9.1953125 13.8916016,9.42382812 C13.5751953,9.7578125 13.1650391,9.98046875 12.6611328,10.0917969 C12.3447266,10.1621094 11.7910156,10.2148437 11,10.25 L11,10.25 L11,11.9550781 L13.9970703,11.9550781 L13.9970703,20.7441406 L16.5634766,20.7441406 Z" id="1" fill="#FCE864" fill-rule="nonzero"></path>
            </g>
        </g>
    </g>
</svg>