<?xml version="1.0" encoding="UTF-8"?>
<svg width="40px" height="40px" viewBox="0 0 40 40" version="1.1" xmlns="http://www.w3.org/2000/svg" xmlns:xlink="http://www.w3.org/1999/xlink">
    <!-- Generator: Sketch 61.2 (89653) - https://sketch.com -->
    <title>icons / 2nd</title>
    <desc>Created with Sketch.</desc>
    <g id="icons-/-2nd" stroke="none" stroke-width="1" fill="none" fill-rule="evenodd">
        <g>
            <polygon id="Fill-1" fill="#CCCCCC" points="17.8979091 0 15.3155765 2.51755069 11.8204261 1.62845029 10.1424683 4.82079928 6.54369754 5.05521138 5.93433352 8.60984757 2.58405955 9.94493733 3.1029669 13.5138501 0.329282228 15.8188257 1.92564861 19.0527763 0 22.1020909 2.51755069 24.6844235 1.62845029 28.1795739 4.82079928 29.8575317 5.05524976 33.4563408 8.60984757 34.0657049 9.94489896 37.4159404 13.5138501 36.8970331 15.8188641 39.6707561 19.0527379 38.0743898 22.1020909 40 24.6844235 37.4824493 28.1795356 38.3715497 29.8575317 35.1792391 33.4563025 34.9447502 34.0657049 31.3901908 37.4159404 30.055101 36.8970331 26.4861883 39.6707561 24.1811359 38.0743514 20.9472621 40 17.8979091 37.4824493 15.3155765 38.3715881 11.8204644 35.1792391 10.1425067 34.9447502 6.54365916 31.3901524 5.93433352 30.055101 2.58409793 26.4861499 3.1029669 24.1811359 0.329282228 20.9472621 1.92564861"></polygon>
            <polygon id="Fill-2" fill="#999999" points="35.67434 29.0495854 32.659146 30.2511514 32.1106996 33.4502821 28.8717909 33.6613102 27.3616164 36.5343929 24.215974 35.7341898 21.8918861 38 19.1474969 36.2669151 16.2370126 37.7036393 14.1624877 35.2073142 10.9504512 35.67434 9.74888515 32.659146 6.54971792 32.1106996 6.33872637 28.8717544 3.46560708 27.3616164 4.2658102 24.215974 2 21.8918861 3.73308486 19.1474969 2.29636069 16.236976 4.7927224 14.1624877 4.32569656 10.9504146 7.34089056 9.74884859 7.88933698 6.54971792 11.1282456 6.33868981 12.6384202 3.46560708 15.7840626 4.2658102 18.1081505 2 20.8525397 3.73308486 23.7630605 2.29636069 25.8375488 4.79268584 29.0495854 4.32566 30.251188 7.34089056 33.4503186 7.88930042 33.6613102 11.1282456 36.5344295 12.6384202 35.7342264 15.784026 38.0000366 18.1081139 36.2669151 20.8525031 37.7036759 23.763024 35.2073507 25.8375488"></polygon>
            <g id="Group-11" transform="translate(5.174497, 5.184851)">
                <path d="M28.8254644,14.8151486 C28.8254644,18.528176 27.3504661,22.0891036 24.7249622,24.7146464 C22.0994583,27.3401503 18.5385307,28.8151486 14.8254644,28.8151486 C11.112476,28.8151486 7.55150945,27.3401503 4.92600553,24.7146464 C2.30050162,22.0891036 0.825503356,18.528176 0.825503356,14.8151486 C0.825503356,7.08318038 7.09349618,0.81514861 14.8254644,0.81514861 C22.5574716,0.81514861 28.8254644,7.08318038 28.8254644,14.8151486" id="Fill-3" fill="#CCCCCC"></path>
                <path d="M26.8254661,14.8151486 C26.8254661,17.9977533 25.5611753,21.049986 23.310758,23.3004406 C21.0603407,25.5508579 18.0080707,26.8151486 14.8254661,26.8151486 C11.6428987,26.8151486 8.59062871,25.5508579 6.34021139,23.3004406 C4.08975676,21.049986 2.82550336,17.9977533 2.82550336,14.8151486 C2.82550336,8.18774066 8.1980581,2.81514861 14.8254661,2.81514861 C18.0080707,2.81514861 21.0603034,4.07943932 23.310758,6.32985664 C25.5611753,8.58031126 26.8254661,11.632544 26.8254661,14.8151486" id="Fill-5" fill="#E6E6E6"></path>
                <path d="M18.7275391,20.8056641 L18.7275391,18.5996094 L13.1640625,18.5996094 C13.3222656,18.3359375 13.5170898,18.1044922 13.7485352,17.9052734 C13.9799805,17.7060547 14.4091797,17.3837891 15.0361328,16.9384766 L15.0361328,16.9384766 L16.0380859,16.2265625 C16.8818359,15.6289062 17.4882812,15.0869141 17.8574219,14.6005859 C18.4199219,13.8681641 18.7011719,13.0302734 18.7011719,12.0869141 C18.7011719,10.8564453 18.3027344,9.86767578 17.5058594,9.12060547 C16.7089844,8.37353516 15.6367188,8 14.2890625,8 C12.5839844,8 11.3974609,8.63574219 10.7294922,9.90722656 C10.3779297,10.5751953 10.1816406,11.4511719 10.140625,12.5351562 L10.140625,12.5351562 L12.5751953,12.5351562 C12.6044922,11.8203125 12.6982422,11.2988281 12.8564453,10.9707031 C13.1318359,10.4023437 13.6503906,10.1181641 14.4121094,10.1181641 C14.96875,10.1181641 15.3964844,10.296875 15.6953125,10.6542969 C15.9941406,11.0117187 16.1435547,11.4599609 16.1435547,11.9990234 C16.1435547,12.6611328 15.8828125,13.2705078 15.3613281,13.8271484 C15.0214844,14.1845703 14.2744141,14.7763672 13.1201172,15.6025391 C11.7900391,16.5517578 10.9462891,17.4511719 10.5888672,18.3007812 C10.2197266,19.0566406 10.0234375,19.8916016 10,20.8056641 L10,20.8056641 L18.7275391,20.8056641 Z" id="2" fill="#999999" fill-rule="nonzero"></path>
            </g>
        </g>
    </g>
</svg>