<?xml version="1.0" encoding="UTF-8"?>
<svg width="40px" height="40px" viewBox="0 0 40 40" version="1.1" xmlns="http://www.w3.org/2000/svg" xmlns:xlink="http://www.w3.org/1999/xlink">
    <!-- Generator: Sketch 61.2 (89653) - https://sketch.com -->
    <title>icons / 3rd</title>
    <desc>Created with Sketch.</desc>
    <g id="icons-/-3rd" stroke="none" stroke-width="1" fill="none" fill-rule="evenodd">
        <g>
            <polygon id="Fill-1" fill="#DB9D36" points="17.8979091 0 15.3155765 2.51755069 11.8204261 1.62841191 10.1424683 4.8207609 6.54369754 5.05521138 5.93433352 8.60984757 2.58405955 9.94493733 3.1029669 13.5138501 0.32924385 15.8188641 1.92564861 19.0527763 0 22.1020525 2.51755069 24.6844235 1.62845029 28.1795356 4.8207609 29.8574933 5.05524976 33.4563408 8.60984757 34.0656665 9.94489896 37.4159404 13.5138501 36.8969947 15.8188641 39.6707178 19.0527763 38.0743898 22.1020909 40 24.6844235 37.4824493 28.1795739 38.3715497 29.8575317 35.1792391 33.4563408 34.9447886 34.0656665 31.3901908 37.4159404 30.055101 36.8970331 26.4861883 39.6707561 24.1811359 38.0743514 20.9472621 40 17.8979091 37.4824493 15.3155765 38.3715497 11.8204644 35.1792391 10.1425067 34.9447886 6.54369754 31.3901524 5.93429515 30.055101 2.58409793 26.4861499 3.1029669 24.1811743 0.329282228 20.9472621 1.92564861"></polygon>
            <polygon id="Fill-2" fill="#B57C1D" points="35.6743058 29.0495579 32.6590783 30.2511227 32.110669 33.4502867 28.8717636 33.661278 27.3615541 36.5343944 24.2159514 35.7341555 21.8918659 38 19.1474794 36.2668803 16.2369616 37.7036396 14.1624388 35.2072804 10.9504055 35.6743058 9.74884072 32.6591149 6.5497133 32.110669 6.33872196 28.8717271 3.4656056 27.3615906 4.2658079 24.2159514 2 21.8918659 3.7330831 19.1474794 2.29636039 16.2369616 4.79271956 14.1624754 4.32569419 10.9504421 7.34088513 9.74884072 7.88929444 6.5497133 11.1282364 6.3386854 12.6384094 3.4656056 15.784012 4.2658079 18.1081341 2 20.8525206 3.7330831 23.7630384 2.29636039 25.8375246 4.792683 29.0495579 4.32565763 30.2511593 7.34088513 33.4502501 7.889331 33.661278 11.1282364 36.5343578 12.6384094 35.7341921 15.7840486 37.9999634 18.1080976 36.2668803 20.852484 37.703603 23.7630019 35.207317 25.8375246"></polygon>
            <g id="Group-11" transform="translate(5.174497, 5.184851)">
                <path d="M28.8254644,14.8151486 C28.8254644,18.528176 27.3504661,22.0891425 24.7249622,24.7146464 C22.0994583,27.3401503 18.5385307,28.8151486 14.8254644,28.8151486 C11.112437,28.8151486 7.5514705,27.3401503 4.92600553,24.7146464 C2.30050162,22.0891425 0.825503356,18.528176 0.825503356,14.8151486 C0.825503356,7.08318038 7.09349618,0.81514861 14.8254644,0.81514861 C18.5385307,0.81514861 22.0994583,2.29018582 24.7249622,4.91565079 C27.3504661,7.54119365 28.8254644,11.1021212 28.8254644,14.8151486" id="Fill-3" fill="#DB9D36"></path>
                <path d="M26.8255034,14.8151486 C26.8255034,17.9977533 25.5612126,21.049986 23.3107953,23.3004406 C21.0603407,25.5508579 18.008108,26.8151486 14.8255034,26.8151486 C11.6428987,26.8151486 8.59066601,25.5508579 6.34024869,23.3004406 C4.08979407,21.049986 2.82550336,17.9977533 2.82550336,14.8151486 C2.82550336,8.18774066 8.19809541,2.81514861 14.8255034,2.81514861 C21.4529113,2.81514861 26.8255034,8.18774066 26.8255034,14.8151486" id="Fill-5" fill="#FFC86C"></path>
                <path d="M15.2024565,20.9372189 C16.6673002,20.9372189 17.7732573,20.5285275 18.5203276,19.7111447 C19.2673979,18.8937619 19.640933,17.946008 19.640933,16.867883 C19.640933,15.8424924 19.3215971,15.0338986 18.6829252,14.4421017 C18.2551909,14.0495236 17.9270659,13.8532345 17.6985502,13.8532345 C18.0032377,13.736047 18.2962065,13.5163205 18.5774565,13.1940549 C19.022769,12.6784299 19.2454252,12.0456174 19.2454252,11.2956174 C19.2454252,10.2350705 18.8718901,9.38985564 18.1248198,8.75997283 C17.3777494,8.13009002 16.3948393,7.81514861 15.1760893,7.81514861 C14.5198393,7.81514861 13.9661284,7.89425017 13.5149565,8.0524533 C13.0637846,8.21065642 12.6741362,8.43917205 12.3460112,8.73800017 C11.906558,9.15987517 11.5842924,9.61983611 11.3792143,10.117883 C11.1858549,10.6862424 11.0774565,11.2868283 11.054019,11.9196408 L11.054019,11.9196408 L13.3919096,11.9196408 C13.3801909,11.2926877 13.5134916,10.7917111 13.7918119,10.4167111 C14.0701323,10.0417111 14.5051909,9.85421111 15.0969877,9.85421111 C15.6126127,9.85421111 16.0125151,10.0065549 16.2966948,10.3112424 C16.5808744,10.6159299 16.7229643,11.0114377 16.7229643,11.4977658 C16.7229643,12.2477658 16.444644,12.7458127 15.8880034,12.9919064 C15.5657377,13.1383908 14.9973784,13.2174924 14.1829252,13.2292111 L14.1829252,13.2292111 L14.1829252,15.0221799 C15.0149565,15.0221799 15.6243315,15.1012814 16.0110502,15.2594845 C16.6907377,15.5407345 17.0305815,16.1003049 17.0305815,16.9381955 C17.0305815,17.571008 16.847476,18.0558713 16.4812651,18.3927853 C16.1150541,18.7296994 15.6858549,18.8981564 15.1936674,18.8981564 C14.390933,18.8981564 13.8372221,18.5905392 13.5325346,17.9753049 C13.3684721,17.6413205 13.2864409,17.2194455 13.2864409,16.7096799 L13.2864409,16.7096799 L10.8255034,16.7096799 C10.866519,17.7233517 11.0715971,18.5436642 11.4407377,19.1706174 C12.1438627,20.3483517 13.397769,20.9372189 15.2024565,20.9372189 Z" id="3" fill="#B57C1D" fill-rule="nonzero"></path>
            </g>
        </g>
    </g>
</svg>