<?xml version="1.0" encoding="utf-8"?>
<!-- Generator: Adobe Illustrator 24.0.3, SVG Export Plug-In . SVG Version: 6.00 Build 0)  -->
<svg version="1.1" id="Fairies-logo-b" xmlns="http://www.w3.org/2000/svg" xmlns:xlink="http://www.w3.org/1999/xlink" x="0px"
	 y="0px" viewBox="0 0 127 37" style="enable-background:new 0 0 127 37;" xml:space="preserve">
<style type="text/css">
	.st0{fill-rule:evenodd;clip-rule:evenodd;}
</style>
<title>logo / Fairies</title>
<desc>Created with Sketch.</desc>
<g id="Symbols">
	<g id="logo-_x2F_-Fairies-_1_" transform="translate(0.000000, -1.000000)">
		<g id="color_x2F_black" transform="translate(0.000000, 1.342457)">
			<g id="logo-_x2F_-Fairies-">
				<path id="path-1_1_" class="st0" d="M62.2,0c-0.7,3.7-1.7,6.7-2.9,8.9l0,0v27.5H53V15.1c-1,0.3-1.9,0.6-2.9,0.8l0,0v-4
					c2.8-1.8,4.6-5.8,5.4-11.9l0,0H62.2z M101.4,0v5.3h24.7v4.9h-5.3v2.7c0,7.1-2.5,12.5-7.6,16.2c3.1,1.2,7.1,2.2,11.9,2.9l0.7,0.1
					v4.3c-7.6-1.1-13.7-2.4-18.3-4.1c-4.4,1.6-10.3,3-17.5,4l-0.8,0.1v-4.3c5.1-0.7,9.3-1.8,12.6-3c-5-3.6-7.5-8.9-7.6-15.8l0-0.5
					v-2.7h-5.3V5.3h5.3V0H101.4z M35.6,1.6c7.1,2.8,11.5,9.6,11.3,17.1c-0.2,8.1-5.8,14.7-13.1,16.7c-4.4,1.2-8.6,0.8-12.7-1.2
					c-4-2-6.9-5.1-8.7-9.3v10.3H0v-34h12.5v10.3c2-4.4,5.1-7.7,9.6-9.7C26.5-0.1,31.1-0.1,35.6,1.6z M77.2,0.3v30.4h0.5
					c1.6,0.1,2.3-0.7,2.2-2.5l0,0V6.4h6.2v22.8c0.1,4-1.8,6-5.7,5.9l0,0H61.8V6.4H68v24.4h2.7V0.3H77.2z M32.7,24.7h-7.2v2.6h2.4
					v5.7h2.5v-5.8h2.4V24.7z M111.1,11.2c-1.7,0-3.1,1.6-3.7,2.3c-0.6-0.7-2-2.3-3.7-2.3c-2.2,0-4,2-4,4.5c0,1.4,0.5,2.6,1.5,3.5
					c0,0,0,0,0.1,0.1l5.9,5.9c0.1,0.1,0.1,0.1,0.2,0.1c0.1,0,0.2,0,0.2-0.1l6.1-6.1l0.1-0.1c0,0,0.1-0.1,0.2-0.2c0,0,0,0,0.1-0.1
					c0.7-0.8,1.1-1.9,1.1-3.1C115.1,13.2,113.3,11.2,111.1,11.2z M32.7,14.7h-7.2v9.1h7.2v-2.5h-4.4v-0.9h3.9v-2.4h-3.9v-0.9h4.4
					V14.7z M29.9,4.7c-1.4,0-2.8,0-4.2,0c-0.1,0-0.2,0-0.3,0v9.1c0,0,0.1,0,0.1,0c1.5,0,3.1,0,4.6,0c0.8,0,1.5-0.2,2.1-0.7
					c1.1-0.9,1.3-2.9,0-4c0,0,0-0.1,0.1-0.1c1.2-1.2,0.9-3.2-0.6-4C31.1,4.8,30.5,4.7,29.9,4.7z M29.8,10.3c0.3,0,0.4,0.2,0.4,0.6
					c0,0.3-0.2,0.5-0.5,0.5c-0.1,0-0.2,0-0.2,0c-0.4,0-0.8,0-1.2,0v-1.1C28.8,10.3,29.3,10.3,29.8,10.3z M29.7,7
					c0.3,0,0.4,0.2,0.4,0.5C30.1,7.8,30,8,29.7,8c-0.5,0-0.9,0-1.4,0V7C28.8,7,29.2,7,29.7,7z"/>
			</g>
		</g>
	</g>
</g>
</svg>
