<?xml version="1.0" encoding="utf-8"?>
<!-- Generator: Adobe Illustrator 23.1.1, SVG Export Plug-In . SVG Version: 6.00 Build 0)  -->
<svg version="1.1" id="_x31_0Bet-BelieveIn" xmlns="http://www.w3.org/2000/svg" xmlns:xlink="http://www.w3.org/1999/xlink"
	 x="0px" y="0px" viewBox="0 0 104 82" style="enable-background:new 0 0 104 82;" xml:space="preserve">
<style type="text/css">
	.st0{fill-rule:evenodd;clip-rule:evenodd;fill:#FFFFFF;}
	.st1{fill-rule:evenodd;clip-rule:evenodd;fill:#FFFFFC;}
	.st2{fill-rule:evenodd;clip-rule:evenodd;fill:#E73349;}
</style>
<g>
	<g transform="translate(0 67.4)">
		<path class="st0" d="M4.4,8.6v2.1h0.8c0.5,0,0.8-0.1,1.1-0.3c0.3-0.2,0.4-0.4,0.4-0.8c0-0.3-0.1-0.6-0.4-0.8
			C6.1,8.7,5.7,8.6,5.2,8.6H4.4z M4.4,4v1.8H5c0.4,0,0.7-0.1,0.9-0.2c0.2-0.2,0.3-0.4,0.3-0.7c0-0.3-0.1-0.5-0.3-0.7
			C5.7,4.1,5.4,4,5.1,4H4.4z M0,14V0.9h6.3c1.3,0,2.4,0.3,3.2,0.9c0.8,0.6,1.1,1.5,1.1,2.6c0,0.7-0.2,1.3-0.5,1.8
			C9.7,6.7,9.2,7,8.5,7.2c0.9,0.2,1.6,0.5,2,1s0.7,1.2,0.7,2.1c0,1.2-0.4,2.2-1.2,2.8S8,14,6.3,14C6.3,14,0,14,0,14z"/>
	</g>
	<polygon class="st0" points="12.9,81.4 12.9,68.3 21.7,68.3 21.7,71.8 17.5,71.8 17.5,73.1 21.3,73.1 21.3,76.5 17.5,76.5 
		17.5,77.8 21.8,77.8 21.8,81.4 	"/>
	<polygon class="st0" points="23.7,81.4 23.7,68.3 28.4,68.3 28.4,77.1 33,77.1 33,81.4 	"/>
	<polygon class="st0" points="34.5,81.4 39.3,81.4 39.3,68.3 34.5,68.3 	"/>
	<polygon class="st0" points="41.9,81.4 41.9,68.3 50.7,68.3 50.7,71.8 46.5,71.8 46.5,73.1 50.3,73.1 50.3,76.5 46.5,76.5 
		46.5,77.8 50.8,77.8 50.8,81.4 	"/>
	<path class="st0" d="M55.8,81.4l-5-13.1h5.1l1.4,4.8c0.2,0.7,0.4,1.3,0.5,1.8s0.2,0.9,0.2,1.3h0.1c0.1-0.4,0.1-0.9,0.3-1.4
		c0.1-0.5,0.3-1,0.4-1.6l1.5-4.9h5l-5,13.1C60.3,81.4,55.8,81.4,55.8,81.4z"/>
	<polygon class="st0" points="65.8,81.4 65.8,68.3 74.6,68.3 74.6,71.8 70.5,71.8 70.5,73.1 74.2,73.1 74.2,76.5 70.5,76.5 
		70.5,77.8 74.7,77.8 74.7,81.4 	"/>
	<polygon class="st0" points="83,81.4 87.8,81.4 87.8,68.3 83,68.3 	"/>
	<path class="st0" d="M90.4,81.4V68.3H95l4.1,6.9c-0.1-0.3-0.1-0.6-0.1-1s0-0.9,0-1.5v-4.4h4.6v13.1h-4.7l-4-6.8
		c0,0.3,0.1,0.6,0.1,0.9s0,0.7,0,1.1v4.7h-4.6V81.4z"/>
	<path class="st1" d="M50.1,53.8v-9.5H54V40H42.2v4.3h4v9.4h3.9V53.8z M46.8,29.1v-1.5H54v-4H42.2v14.9H54v-4h-7.2v-1.4h6.5v-4
		C53.3,29.1,46.8,29.1,46.8,29.1z M53.2,14.4c0.1-0.1,0.1-0.1,0.1-0.1c2-2,1.5-5.3-1-6.5c-0.9-0.4-1.8-0.6-2.8-0.6
		c-2.3,0-4.6,0-6.9,0c-0.1,0-0.3,0-0.4,0V22c0.1,0,0.1,0,0.2,0c2.5,0,5,0,7.5,0c1.2,0,2.4-0.4,3.4-1.2C55,19.4,55.3,16.1,53.2,14.4
		L53.2,14.4z M0.3,1.5h20.5v16.9C24,11,29.2,5.6,36.5,2.4c7.4-3.1,14.8-3.2,22.3-0.3c11.6,4.5,19,15.9,18.6,28.2
		C77,43.6,67.9,54.4,55.9,57.7c-7.2,2-14.1,1.3-20.8-2c-6.6-3.3-11.3-8.4-14.3-15.2v16.9H0.3V1.5z"/>
	<path class="st1" d="M46.8,18.2v-1.8c0.9,0,1.7,0,2.5,0c0.5,0,0.7,0.4,0.7,0.9s-0.3,0.8-0.8,0.8c-0.1,0-0.3,0-0.4,0
		C48.2,18.2,47.5,18.2,46.8,18.2 M46.8,12.6V11c0.8,0,1.6,0,2.3,0c0.5,0,0.7,0.3,0.7,0.8s-0.2,0.8-0.7,0.8
		C48.3,12.6,47.6,12.6,46.8,12.6"/>
	<path class="st2" d="M100.1,44.3c0.2,0,0.4,0,0.5,0c0.4,0.1,0.6-0.1,0.5-0.5c0-0.1,0-0.2,0-0.3c0-0.3-0.1-0.4-0.4-0.4
		c-0.4,0-0.8,0-1.2,0c-0.6,0-0.6,0-0.6,0.6s0,0.6,0.6,0.6C99.5,44.3,100.1,44.3,100.1,44.3z M95.3,44.3c0.1,0,0.2,0,0.3,0
		c0.8,0,0.7,0.2,0.8-0.8c0-0.3-0.1-0.4-0.4-0.4c-0.4,0-0.8,0-1.1,0c-0.6,0-0.6,0-0.6,0.6c0,0.4,0.1,0.6,0.6,0.6
		C95,44.2,95.1,44.3,95.3,44.3L95.3,44.3z M95.3,40.8c0.1,0,0.2,0,0.3,0c0.9,0,0.8,0.2,0.8-0.8c0-0.3-0.1-0.3-0.4-0.3
		c-0.4,0-0.8,0-1.1,0c-0.6,0-0.6,0-0.6,0.6c0,0.4,0.1,0.6,0.6,0.6C95,40.8,95.1,40.8,95.3,40.8L95.3,40.8z M100,40.8h0.3
		c0.9,0,0.8,0,0.8-0.8c0-0.3-0.1-0.3-0.4-0.3c-0.4,0-0.8,0-1.1,0c-0.6,0-0.6,0-0.6,0.6c0,0.4,0.1,0.6,0.6,0.6
		C99.7,40.8,99.9,40.8,100,40.8L100,40.8z M103.7,47.6h-2.6c0-0.2,0-0.4,0-0.6c0-0.3-0.1-0.5-0.4-0.5c-0.4,0-0.9,0-1.3,0
		c-0.3,0-0.5,0.1-0.4,0.4c0,0.2,0,0.4,0,0.6h-2.6v-1c-0.7,0-1.3,0-2,0c-0.1,0-0.2,0.3-0.2,0.4c0,0.7,0,0.6-0.7,0.6
		c-0.6,0-1.3,0-1.9,0c0-0.2,0-0.3,0-0.4c0-3.1,0-6.3,0-9.4c0-0.4,0.1-0.5,0.5-0.5c1.3,0,2.6,0,3.8,0c0.6,0,0.4-0.3,0.5-0.7
		c0-0.4-0.1-0.5-0.5-0.5c-1.3,0-2.5,0-3.8,0c-0.4,0-0.6-0.1-0.5-0.6c0-0.4,0-0.9,0-1.3c0-0.3,0.1-0.5,0.4-0.5c1.3,0,2.6,0,3.9,0
		c0.4,0,0.5-0.1,0.5-0.5c0-0.8,0-1.6,0-2.4H99c0,0.7,0,1.4,0,2.1c0,0.9-0.1,0.8,0.8,0.8c0.5,0,0.9,0,1.3,0c0,0,0-0.1,0.1-0.1
		c-0.4-0.3-0.8-0.6-1.3-1c0.5-0.6,1.1-1.2,1.6-1.8c0.7,0.5,1.5,1,2.2,1.5c-0.4,0.4-0.7,0.8-1.1,1.3c0.5,0,0.8,0,1.2,0.1v2.2
		c-0.2,0-0.4,0-0.5,0c-1.3,0-2.5,0-3.8,0c-0.4,0-0.5,0.2-0.5,0.6c0,0.3,0,0.6,0.5,0.6c1.3,0,2.6,0,3.9,0c0.3,0,0.4,0,0.4,0.4
		c0,3.2,0,6.5,0,9.7C103.7,47.5,103.7,47.5,103.7,47.6L103.7,47.6z M91.4,26.4v-0.6V14.5c0-0.8,0-0.8-0.8-0.8c-2.8,0-5.7,0-8.5,0
		c-0.4,0-0.6-0.1-0.5-0.5c0-0.6,0-1.3,0-2c0.2,0,0.4,0,0.6,0c2.9,0,5.8,0,8.7,0c0.6,0,0.6,0,0.6-0.6c0-2.9,0-5.8,0-8.6V1.4H94
		c0,0.2,0,0.4,0,0.6c0,2.9,0,5.8,0,8.6c0,0.6,0,0.6,0.6,0.6c2.9,0,5.7,0,8.6,0h0.6c0,0.8,0,1.6,0,2.3c0,0.1-0.1,0.2-0.2,0.2
		s-0.3,0-0.4,0c-2.7,0-5.5,0-8.2,0c-1.2,0-1-0.1-1,1c0,3.7,0,7.4,0,11.1c0,0.6,0,0.6-0.6,0.6C92.8,26.4,92.1,26.4,91.4,26.4
		 M87.4,57.3h-2.6v-0.6V40.3c0-0.6,0-0.6-0.6-0.6c-0.8,0-1.7,0-2.6,0c0-0.7,0-1.4,0-2.1c0-0.1,0.2-0.2,0.4-0.2c0.8,0,1.6,0,2.4,0
		c0.4,0,0.5-0.1,0.5-0.5c0-1.7,0-3.5,0-5.2v-0.5h2.6v0.5c0,1.7,0,3.5,0,5.2c0,0.4,0.1,0.6,0.6,0.5c0.8,0,1.5,0,2.3,0
		c0.3,0,0.4,0.1,0.4,0.4c0,0.6,0,1.2,0,1.8c-0.9,0-1.8,0-2.6,0c-0.6,0-0.6,0-0.6,0.6v16.5v0.6H87.4z M94.7,55.4
		c-1-0.7-2-1.4-3.1-2.1c0.4-0.5,0.8-1,1.3-1.5c-0.5,0-0.9,0-1.3-0.1v-2.2c0.2,0,0.3,0,0.5,0c2,0,4,0,5.9,0c0.6,0,0.6,0,0.7-0.6
		c0-0.1,0-0.2,0-0.3h2.5v0.1c0.1,0.8,0.1,0.8,0.8,0.8h1.6c0,0.7,0,1.4,0,2.1c0,0.1-0.2,0.2-0.3,0.2c-0.6,0-1.1,0-1.7,0
		c-0.3,0-0.5,0.1-0.5,0.5c0,0.7,0,1.5,0,2.2c0.1,1.3-0.7,2.8-2.8,2.9c-0.6,0-1.1,0-1.7,0c-0.1,0-0.3-0.1-0.3-0.2
		c-0.3-0.7-0.5-1.3-0.8-2.1c0.3,0,0.6,0,0.9,0c0.4,0,0.8,0,1.2,0c0.5-0.1,0.8-0.4,0.9-0.9c0-0.7,0-1.3,0-2c0-0.2-0.1-0.4-0.3-0.4
		c-1.5,0-2.9,0-4.4,0c-0.1,0-0.1,0-0.3,0.1c0.9,0.6,1.7,1.2,2.5,1.8C95.8,54.2,95.3,54.8,94.7,55.4"/>
</g>
</svg>
