<?xml version="1.0" encoding="utf-8"?>
<!-- Generator: Adobe Illustrator 23.0.4, SVG Export Plug-In . SVG Version: 6.00 Build 0)  -->
<svg version="1.1" id="_x31_0bet-Juve" xmlns="http://www.w3.org/2000/svg" xmlns:xlink="http://www.w3.org/1999/xlink" x="0px"
	 y="0px" viewBox="0 0 213 41" style="enable-background:new 0 0 213 41;" xml:space="preserve">
<style type="text/css">
	.st0{fill-rule:evenodd;clip-rule:evenodd;fill:#FFFFFF;}
	.st1{filter:url(#Adobe_OpacityMaskFilter);}
	.st2{mask:url(#SVGID_1_);fill-rule:evenodd;clip-rule:evenodd;fill:#FFFFFF;}
	.st3{fill-rule:evenodd;clip-rule:evenodd;fill:#E93E50;}
	.st4{filter:url(#Adobe_OpacityMaskFilter_1_);}
	.st5{mask:url(#SVGID_2_);fill-rule:evenodd;clip-rule:evenodd;fill:#FFFFFF;}
	.st6{filter:url(#Adobe_OpacityMaskFilter_2_);}
	.st7{mask:url(#SVGID_3_);fill-rule:evenodd;clip-rule:evenodd;fill:#FFFFFF;}
	.st8{filter:url(#Adobe_OpacityMaskFilter_3_);}
	.st9{mask:url(#SVGID_4_);fill-rule:evenodd;clip-rule:evenodd;fill:#FFFFFF;}
	.st10{filter:url(#Adobe_OpacityMaskFilter_4_);}
	.st11{mask:url(#SVGID_5_);fill-rule:evenodd;clip-rule:evenodd;fill:#FFFFFF;}
	.st12{filter:url(#Adobe_OpacityMaskFilter_5_);}
	.st13{mask:url(#SVGID_6_);fill-rule:evenodd;clip-rule:evenodd;fill:#FFFFFF;}
	.st14{filter:url(#Adobe_OpacityMaskFilter_6_);}
	.st15{mask:url(#SVGID_7_);fill-rule:evenodd;clip-rule:evenodd;fill:#FFFFFF;}
	.st16{filter:url(#Adobe_OpacityMaskFilter_7_);}
	.st17{mask:url(#SVGID_8_);fill-rule:evenodd;clip-rule:evenodd;fill:#FFFFFF;}
	.st18{filter:url(#Adobe_OpacityMaskFilter_8_);}
	.st19{mask:url(#SVGID_9_);fill-rule:evenodd;clip-rule:evenodd;fill:#FFFFFF;}
</style>
<g>
	<path class="st0" d="M122.8,20.7v-20h-15.1v4.5h10v14.2c0,6.5-0.4,7.1-8.8,10.9c0.6,1.5,1.4,2.9,2.5,4.3
		C120.9,30.2,122.8,28.1,122.8,20.7"/>
	<g transform="translate(115 .629)">
		<defs>
			<filter id="Adobe_OpacityMaskFilter" filterUnits="userSpaceOnUse" x="0.2" y="0" width="17.5" height="40">
				<feColorMatrix  type="matrix" values="1 0 0 0 0  0 1 0 0 0  0 0 1 0 0  0 0 0 1 0"/>
			</filter>
		</defs>
		<mask maskUnits="userSpaceOnUse" x="0.2" y="0" width="17.5" height="40" id="SVGID_1_">
			<g class="st1">
				<polygon class="st0" points="0.2,0 17.7,0 17.7,40 0.2,40 				"/>
			</g>
		</mask>
		<path class="st2" d="M12.6,0v21h0c0,9.7-4.1,12.2-12.4,16.2C1.3,38,2.7,38.8,5.2,40c6.4-3,12.5-7,12.5-17.6V0H12.6z"/>
	</g>
	<path class="st0" d="M33.5,36.2v-6.4h2.6v-2.9h-8v2.9h2.7v6.3H33.5z M31.3,19.6v-1h4.9v-2.7h-8v10h8v-2.7h-4.9v-0.9h4.3v-2.7H31.3z
		 M35.5,9.7C35.6,9.6,35.6,9.6,35.5,9.7c1.4-1.4,1.1-3.6-0.6-4.5c-0.6-0.3-1.2-0.4-1.9-0.4c-1.5,0-3.1,0-4.6,0c-0.1,0-0.2,0-0.3,0
		v10c0.1,0,0.1,0,0.1,0c1.7,0,3.4,0,5.1,0c0.8,0,1.6-0.2,2.3-0.8C36.7,13.1,37,10.8,35.5,9.7L35.5,9.7z M0,1h13.8v11.3
		c2.2-4.9,5.6-8.6,10.6-10.7c4.9-2.1,10-2.2,15-0.2c7.8,3,12.7,10.7,12.5,18.9c-0.3,8.9-6.4,16.2-14.4,18.4c-4.8,1.3-9.5,0.9-14-1.3
		c-4.5-2.2-7.6-5.7-9.6-10.2v11.3H0V1z"/>
	<path class="st0" d="M31.2,12.2V11c0.6,0,1.1,0,1.7,0c0.3,0,0.5,0.3,0.4,0.6c0,0.3-0.2,0.5-0.5,0.6c-0.1,0-0.2,0-0.3,0
		C32.2,12.2,31.7,12.2,31.2,12.2 M31.2,8.4V7.3c0.5,0,1,0,1.6,0c0.3,0,0.5,0.2,0.5,0.5c0,0.3-0.2,0.5-0.5,0.6
		C32.3,8.5,31.8,8.4,31.2,8.4"/>
	<path class="st3" d="M67,29.8c0.1,0,0.2,0,0.4,0c0.3,0,0.4-0.1,0.4-0.4c0-0.1,0-0.1,0-0.2c0-0.2-0.1-0.3-0.3-0.3
		c-0.3,0-0.5,0-0.8,0c-0.4,0-0.4,0-0.4,0.4c0,0.4,0,0.4,0.4,0.4H67z M63.9,29.8c0.1,0,0.1,0,0.2,0c0.6,0,0.5,0.1,0.5-0.5
		c0-0.2-0.1-0.3-0.3-0.3c-0.3,0-0.5,0-0.8,0c-0.4,0-0.4,0-0.4,0.4c0,0.3,0.1,0.4,0.4,0.4C63.6,29.7,63.7,29.8,63.9,29.8L63.9,29.8z
		 M63.8,27.4c0.1,0,0.1,0,0.2,0c0.6,0,0.5,0.1,0.5-0.6c0-0.2-0.1-0.2-0.3-0.2c-0.3,0-0.5,0-0.8,0c-0.4,0-0.4,0-0.4,0.4
		c0,0.3,0.1,0.4,0.4,0.4C63.6,27.4,63.7,27.4,63.8,27.4L63.8,27.4z M67,27.4h0.2c0.6,0,0.6,0,0.5-0.6c0-0.2-0.1-0.2-0.3-0.2
		c-0.3,0-0.5,0-0.8,0c-0.4,0-0.4,0-0.4,0.4c0,0.3,0.1,0.4,0.4,0.4C66.8,27.4,66.9,27.4,67,27.4L67,27.4z M69.5,32h-1.7
		c0-0.1,0-0.3,0-0.4c0-0.2,0-0.3-0.3-0.3c-0.3,0-0.6,0-0.9,0c-0.2,0-0.3,0.1-0.3,0.3c0,0.1,0,0.3,0,0.4h-1.7v-0.7
		c-0.5,0-0.9,0-1.3,0c0,0-0.1,0.2-0.1,0.3c0,0.5,0,0.4-0.4,0.4c-0.4,0-0.9,0-1.3,0c0-0.1,0-0.2,0-0.3c0-2.1,0-4.2,0-6.3
		c0-0.2,0.1-0.3,0.3-0.3c0.9,0,1.7,0,2.6,0c0.4,0,0.3-0.2,0.3-0.4c0-0.2,0-0.4-0.3-0.3c-0.8,0-1.7,0-2.5,0c-0.3,0-0.4-0.1-0.4-0.4
		c0-0.3,0-0.6,0-0.9c0-0.2,0.1-0.3,0.3-0.3c0.9,0,1.7,0,2.6,0c0.2,0,0.3-0.1,0.3-0.3c0-0.5,0-1.1,0-1.6h1.8c0,0.5,0,0.9,0,1.4
		c0,0.6-0.1,0.5,0.5,0.5c0.3,0,0.6,0,0.9,0c0,0,0-0.1,0-0.1c-0.3-0.2-0.6-0.4-0.9-0.6c0.4-0.4,0.7-0.8,1.1-1.2c0.5,0.3,1,0.7,1.5,1
		c-0.2,0.3-0.5,0.6-0.7,0.9c0.3,0,0.5,0,0.8,0v1.5c-0.1,0-0.2,0-0.4,0c-0.8,0-1.7,0-2.5,0c-0.3,0-0.3,0.1-0.3,0.4
		c0,0.2,0,0.4,0.3,0.4c0.9,0,1.7,0,2.6,0c0.2,0,0.3,0,0.3,0.2c0,2.2,0,4.3,0,6.5C69.5,31.9,69.5,31.9,69.5,32L69.5,32z M61.2,17.8
		v-0.4V9.8c0-0.5,0-0.5-0.5-0.5c-1.9,0-3.8,0-5.7,0c-0.3,0-0.4-0.1-0.4-0.4c0-0.4,0-0.9,0-1.3c0.1,0,0.3,0,0.4,0c1.9,0,3.9,0,5.8,0
		c0.4,0,0.4,0,0.4-0.4c0-1.9,0-3.9,0-5.8V0.9h1.7c0,0.1,0,0.3,0,0.4c0,1.9,0,3.9,0,5.8c0,0.4,0,0.4,0.4,0.4c1.9,0,3.8,0,5.8,0h0.4
		c0,0.5,0,1.1,0,1.6c0,0-0.1,0.1-0.2,0.1c-0.1,0-0.2,0-0.3,0c-1.8,0-3.7,0-5.5,0c-0.8,0-0.7-0.1-0.7,0.7c0,2.5,0,5,0,7.4
		c0,0.4,0,0.4-0.4,0.4H61.2z M58.6,38.5h-1.7v-0.4V27.1c0-0.4,0-0.4-0.4-0.4c-0.6,0-1.1,0-1.8,0c0-0.5,0-0.9,0-1.4
		c0,0,0.2-0.1,0.2-0.1c0.5,0,1.1,0,1.6,0c0.3,0,0.3-0.1,0.3-0.3c0-1.2,0-2.3,0-3.5v-0.4h1.7v0.3c0,1.2,0,2.3,0,3.5
		c0,0.3,0.1,0.4,0.4,0.4c0.5,0,1,0,1.5,0c0.2,0,0.3,0.1,0.3,0.3c0,0.4,0,0.8,0,1.2c-0.6,0-1.2,0-1.8,0c-0.4,0-0.4,0-0.4,0.4v11.1
		V38.5z M63.5,37.2c-0.7-0.5-1.4-0.9-2.1-1.4c0.3-0.3,0.6-0.6,0.9-1c-0.3,0-0.6,0-0.9,0v-1.5c0.1,0,0.2,0,0.3,0c1.3,0,2.7,0,4,0
		c0.4,0,0.4,0,0.4-0.4c0-0.1,0-0.1,0-0.2h1.7c0,0,0,0.1,0,0.1c0,0.5,0,0.5,0.6,0.5h1.1c0,0.5,0,0.9,0,1.4c0,0-0.1,0.1-0.2,0.1
		c-0.4,0-0.8,0-1.1,0c-0.2,0-0.3,0.1-0.3,0.3c0,0.5,0,1,0,1.5c0,0.9-0.5,1.9-1.9,2c-0.4,0-0.8,0-1.2,0c-0.1,0-0.2-0.1-0.2-0.1
		c-0.2-0.4-0.3-0.9-0.5-1.4c0.2,0,0.4,0,0.6,0c0.3,0,0.6,0,0.8,0c0.4,0,0.6-0.3,0.6-0.6c0-0.4,0-0.9,0-1.3c0-0.2,0-0.2-0.2-0.2
		c-1,0-2,0-2.9,0c0,0-0.1,0-0.2,0.1c0.6,0.4,1.1,0.8,1.7,1.2C64.2,36.4,63.8,36.8,63.5,37.2"/>
	<defs>
		<filter id="Adobe_OpacityMaskFilter_1_" filterUnits="userSpaceOnUse" x="88.7" y="7.3" width="1" height="25">
			<feColorMatrix  type="matrix" values="1 0 0 0 0  0 1 0 0 0  0 0 1 0 0  0 0 0 1 0"/>
		</filter>
	</defs>
	<mask maskUnits="userSpaceOnUse" x="88.7" y="7.3" width="1" height="25" id="SVGID_2_">
		<g class="st4">
			<polygon class="st0" points="0,40.6 212.1,40.6 212.1,0 0,0 			"/>
		</g>
	</mask>
	<polygon class="st5" points="88.7,32.3 89.7,32.3 89.7,7.3 88.7,7.3 	"/>
	<defs>
		<filter id="Adobe_OpacityMaskFilter_2_" filterUnits="userSpaceOnUse" x="140.2" y="1.8" width="71.9" height="34.6">
			<feColorMatrix  type="matrix" values="1 0 0 0 0  0 1 0 0 0  0 0 1 0 0  0 0 0 1 0"/>
		</filter>
	</defs>
	<mask maskUnits="userSpaceOnUse" x="140.2" y="1.8" width="71.9" height="34.6" id="SVGID_3_">
		<g class="st6">
			<polygon class="st0" points="0,40.6 212.1,40.6 212.1,0 0,0 			"/>
		</g>
	</mask>
	<path class="st7" d="M142.7,12.9h5.5v-1.5h-5.5V12.9z M142.7,8.1h5.1V6.7h-5.1V8.1z M148.2,14.5v-0.6h-5.5v0.7h-1.2v-9h7.5v3.6
		h-6.3v1.1h6.7v4.2H148.2z M140.2,6V3.3h4.5c-0.1-0.5-0.3-0.9-0.4-1.3l1.4-0.2c0,0.1,0.1,0.2,0.1,0.4c0.1,0.5,0.2,0.8,0.3,1.1h4.2V6
		h-1.2V4.5h-7.7V6H140.2z M152.4,5.3V3.9h4.9c-0.2-0.6-0.4-1.2-0.6-1.8L158,2c0.2,0.5,0.4,1.1,0.6,2h4.2v1.4h-6.4c0,0.6,0,1.3-0.1,2
		h5.2c0,0.8-0.1,2.1-0.2,3.7c0,0.4,0,0.7,0,0.9c-0.1,1.6-0.8,2.4-2.2,2.3c-0.3,0-0.6,0-1,0.1h-0.9c0-0.2-0.1-0.6-0.2-1.2
		c0-0.1,0-0.1,0-0.2h0.9c0.4,0,0.7,0.1,0.9,0.1c0.9,0.1,1.4-0.4,1.4-1.5c0.1-0.8,0.1-1.8,0.1-2.8h-4c-0.1,2.5-1.1,4.5-3.1,6l-1-1.1
		c1.9-1.4,2.9-3.3,2.9-5.8c0.1-1,0.1-1.8,0.1-2.4H152.4z M173.1,8.8h-3.2c0.4,1,0.9,1.8,1.6,2.4C172.2,10.6,172.8,9.8,173.1,8.8
		L173.1,8.8z M168.7,7.2c-0.3-0.4-0.5-0.8-0.7-1.1c1-0.5,1.5-1.4,1.4-2.6v-1h4.4v2.2c0,0.5,0.2,0.8,0.6,0.7h0.9
		c-0.1,0.2-0.1,0.6-0.2,1.1v0.2h-1.2c-0.9,0-1.3-0.4-1.3-1.4V3.7h-2.1v0.4C170.5,5.4,170,6.5,168.7,7.2L168.7,7.2z M174.7,14.5
		c-1.3-0.4-2.4-0.9-3.3-1.5c-0.9,0.6-2,1.1-3.3,1.6c-0.1-0.1-0.1-0.4-0.3-0.6c-0.1-0.3-0.3-0.5-0.3-0.6c1.2-0.3,2.2-0.7,3-1.3
		c-0.7-0.9-1.3-1.8-1.7-2.9l0.5-0.3h-0.8V7.5h5.9v1.3c-0.5,1.2-1.1,2.3-2,3.2c0.8,0.6,1.8,0.9,2.9,1.2c-0.1,0.2-0.3,0.6-0.5,1.1
		C174.7,14.4,174.7,14.4,174.7,14.5L174.7,14.5z M164.6,5.6V4.3h1.3V2h1.1v2.3h1.2v1.3h-1.2v2.3l1.1-0.3c0,0.5,0,1,0,1.3l-1.1,0.3
		v3.6c0,1-0.3,1.5-1.1,1.5c-0.3,0-0.6,0.1-1.1,0.1c0-0.3-0.1-0.7-0.1-1.1c0-0.1,0-0.2,0-0.3h0.8c0.4,0,0.6-0.2,0.5-0.6V9.7l-1.3,0.4
		l-0.1-1.5c0.1,0,0.3-0.1,0.5-0.2c0.4-0.1,0.7-0.2,0.9-0.2V5.6H164.6z M180,5.6V4.2h3.3c-0.1-0.2-0.2-0.7-0.4-1.3
		c-0.1-0.4-0.2-0.6-0.2-0.7l1.2-0.3c0,0,0,0.1,0,0.2c0.3,0.8,0.5,1.5,0.6,1.9l-1.1,0.3h3.8v1.4h-3v2.7h2.7v1.3h-2.7v3.1h3.4v1.3
		h-8.1v-1.3h3.5V9.6h-2.7V8.3h2.7V5.6H180z M179,5c-0.6-0.6-1.2-1.2-1.9-1.8l0.8-1.1c0.7,0.6,1.3,1.1,1.9,1.7L179,5z M178.2,14.5
		L177,14c0.5-1.5,0.9-3.1,1.2-4.6c0,0,0.1,0,0.2,0.1c0.4,0.2,0.8,0.3,1,0.4c-0.2,0.7-0.5,1.9-0.9,3.6
		C178.3,13.9,178.2,14.2,178.2,14.5L178.2,14.5z M178.6,8.4c-0.6-0.6-1.2-1.2-1.8-1.8l0.8-1c0.7,0.7,1.4,1.3,1.9,1.8L178.6,8.4z
		 M198.1,8.4l-1-0.7c0.4-0.8,1-1.9,1.6-3.2l1,0.6c-0.2,0.5-0.6,1.3-1.1,2.3C198.4,7.8,198.2,8.2,198.1,8.4L198.1,8.4z M193.4,8.4
		c-0.4-1.1-0.8-2.1-1.3-3.3l1-0.5c0.5,1.2,0.9,2.2,1.4,3.2L193.4,8.4z M192.6,14.6c-0.1-0.1-0.2-0.3-0.4-0.5
		c-0.2-0.4-0.4-0.6-0.5-0.7c2.3-1.7,3.4-4.3,3.4-7.7c0-1.3,0-2.5,0-3.6h1.3c0,0.4,0,1,0,1.8c0,0.8,0,1.5,0,1.8
		c0.2,3.3,1.4,5.8,3.5,7.4c-0.1,0.1-0.3,0.4-0.5,0.7c-0.2,0.3-0.3,0.5-0.4,0.6c-1.7-1.6-2.8-3.4-3.2-5.6
		C195.6,11,194.5,12.9,192.6,14.6L192.6,14.6z M189.3,9.6c0-0.4-0.1-0.9-0.2-1.6c0-0.1,0-0.2,0-0.3c1.1-1.8,1.9-3.7,2.4-5.9l1.2,0.4
		c-0.3,1-0.6,2-1,2.9v9.3h-1.2V7.7C190,8.5,189.6,9.2,189.3,9.6L189.3,9.6z M210.4,6.2l-1-0.6c0.4-0.6,0.8-1.4,1.3-2.5l1,0.6
		c-0.2,0.4-0.6,1.1-1,2C210.6,5.9,210.5,6.1,210.4,6.2L210.4,6.2z M206,6.2c-0.4-0.8-0.8-1.7-1.2-2.5l1-0.6c0.4,0.8,0.9,1.7,1.3,2.5
		L206,6.2z M204.9,8.1V6.8h2.8V2h1.2v4.9h2.9v1.3h-2.9v1.8h3.3v1.3h-3.3v3.3h-1.2v-3.3h-3.2V9.9h3.2V8.1H204.9z M201.6,9.7
		c0-0.1-0.1-0.4-0.1-0.6c-0.1-0.6-0.1-1-0.2-1.3c1-1.6,1.7-3.6,2.3-5.9l1.2,0.4c-0.3,1-0.6,1.9-0.9,2.8v9.3h-1.2V7.8
		C202.3,8.4,201.9,9.1,201.6,9.7L201.6,9.7z M196.7,36.5h2.5c1.8,0,2.7-0.9,2.7-2.5V20.4h-2.7v13.7h-2.5V20.4h-2.7v13.5
		C193.9,35.6,194.9,36.5,196.7,36.5"/>
	<defs>
		<filter id="Adobe_OpacityMaskFilter_3_" filterUnits="userSpaceOnUse" x="185" y="20.4" width="7.9" height="15.9">
			<feColorMatrix  type="matrix" values="1 0 0 0 0  0 1 0 0 0  0 0 1 0 0  0 0 0 1 0"/>
		</filter>
	</defs>
	<mask maskUnits="userSpaceOnUse" x="185" y="20.4" width="7.9" height="15.9" id="SVGID_4_">
		<g class="st8">
			<polygon class="st0" points="0,40.6 212.1,40.6 212.1,0 0,0 			"/>
		</g>
	</mask>
	<polygon class="st9" points="187.6,36.3 190.3,36.3 190.3,22.9 192.9,22.9 192.5,20.4 185.5,20.4 185,22.9 187.6,22.9 	"/>
	<defs>
		<filter id="Adobe_OpacityMaskFilter_4_" filterUnits="userSpaceOnUse" x="203.9" y="20.3" width="7.6" height="16.1">
			<feColorMatrix  type="matrix" values="1 0 0 0 0  0 1 0 0 0  0 0 1 0 0  0 0 0 1 0"/>
		</filter>
	</defs>
	<mask maskUnits="userSpaceOnUse" x="203.9" y="20.3" width="7.6" height="16.1" id="SVGID_5_">
		<g class="st10">
			<polygon class="st0" points="0,40.6 212.1,40.6 212.1,0 0,0 			"/>
		</g>
	</mask>
	<path class="st11" d="M206.6,36.5h2.3c1.4,0,2.5-0.7,2.5-2.4V31c0-1.3-0.6-2.2-1.6-2.8l-2.3-1.5c-0.8-0.5-1-1-1-1.8v-2.4h2.3V26
		l2.6-0.7v-2.5c0-1.7-0.7-2.5-2.5-2.5h-2.5c-1.4,0-2.5,0.9-2.5,2.6v3c0,0.9,0.4,1.9,1.4,2.5l2.4,1.6c0.8,0.6,1.1,1,1.1,2.1v2.2h-2.3
		v-3.2h-2.7v3C203.9,35.8,204.8,36.5,206.6,36.5"/>
	<defs>
		<filter id="Adobe_OpacityMaskFilter_5_" filterUnits="userSpaceOnUse" x="175.9" y="20.4" width="7.9" height="15.9">
			<feColorMatrix  type="matrix" values="1 0 0 0 0  0 1 0 0 0  0 0 1 0 0  0 0 0 1 0"/>
		</filter>
	</defs>
	<mask maskUnits="userSpaceOnUse" x="175.9" y="20.4" width="7.9" height="15.9" id="SVGID_6_">
		<g class="st12">
			<polygon class="st0" points="0,40.6 212.1,40.6 212.1,0 0,0 			"/>
		</g>
	</mask>
	<polygon class="st13" points="178.5,25.5 178.7,25.5 181.2,30.9 181.2,36.3 183.8,36.3 183.8,20.4 181.2,20.4 181.2,26.3 181,26.3 
		178.5,20.4 175.9,20.4 175.9,36.3 178.5,36.3 	"/>
	<defs>
		<filter id="Adobe_OpacityMaskFilter_6_" filterUnits="userSpaceOnUse" x="139.6" y="20.4" width="5.8" height="15.9">
			<feColorMatrix  type="matrix" values="1 0 0 0 0  0 1 0 0 0  0 0 1 0 0  0 0 0 1 0"/>
		</filter>
	</defs>
	<mask maskUnits="userSpaceOnUse" x="139.6" y="20.4" width="5.8" height="15.9" id="SVGID_7_">
		<g class="st14">
			<polygon class="st0" points="0,40.6 212.1,40.6 212.1,0 0,0 			"/>
		</g>
	</mask>
	<path class="st15" d="M145.3,31.7V20.4h-5.2v2.4h2.5v8.8c0,1.6-0.9,2.3-2.6,2.3h-0.5v2.4h0.5C143.6,36.3,145.3,34.5,145.3,31.7"/>
	<defs>
		<filter id="Adobe_OpacityMaskFilter_7_" filterUnits="userSpaceOnUse" x="167.7" y="20.4" width="6.7" height="15.9">
			<feColorMatrix  type="matrix" values="1 0 0 0 0  0 1 0 0 0  0 0 1 0 0  0 0 0 1 0"/>
		</filter>
	</defs>
	<mask maskUnits="userSpaceOnUse" x="167.7" y="20.4" width="6.7" height="15.9" id="SVGID_8_">
		<g class="st16">
			<polygon class="st0" points="0,40.6 212.1,40.6 212.1,0 0,0 			"/>
		</g>
	</mask>
	<polygon class="st17" points="174.4,33.9 170.4,33.9 170.4,29.4 173,29.4 173.5,27.1 170.4,27.1 170.4,22.9 174.2,22.9 173.7,20.4 
		167.7,20.4 167.7,36.3 173.9,36.3 	"/>
	<defs>
		<filter id="Adobe_OpacityMaskFilter_8_" filterUnits="userSpaceOnUse" x="147.5" y="20.4" width="18" height="16">
			<feColorMatrix  type="matrix" values="1 0 0 0 0  0 1 0 0 0  0 0 1 0 0  0 0 0 1 0"/>
		</filter>
	</defs>
	<mask maskUnits="userSpaceOnUse" x="147.5" y="20.4" width="18" height="16" id="SVGID_9_">
		<g class="st18">
			<polygon class="st0" points="0,40.6 212.1,40.6 212.1,0 0,0 			"/>
		</g>
	</mask>
	<path class="st19" d="M150.3,36.5h2.5c1.8,0,2.7-0.9,2.7-2.5V20.4h-2.7v13.7h-2.5V20.4h-2.7v13.5C147.5,35.6,148.5,36.5,150.3,36.5
		 M165.6,30.3v-9.8h-2.7v9.7c0,2-1,3.6-2.4,3.6h-0.1V20.4h-2.7v15.9h1.3C163.2,36.4,165.6,34.2,165.6,30.3"/>
</g>
</svg>
