<svg enable-background="new 0 0 88 91" viewBox="0 0 88 91" xmlns="http://www.w3.org/2000/svg"><path d="m78.3 69.8c5.8-7.5 9-16.8 9-26.5 0-23.9-19.4-43.3-43.3-43.3s-43.4 19.4-43.4 43.3c0 9.7 3.2 18.9 9 26.5l-9.6 6.4v14.8h88v-14.8z"/><path d="m2.3 76.9 8.5-5.7c-.2-.2-.4-.5-.6-.7-5.4 3.5-9.2 6.1-9.4 6.2v1.2h16.9c-.4-.3-.8-.6-1.2-1zm75.5-6.4c-.2.2-.4.5-.6.7l8.5 5.7h-14.2c-.4.3-.8.7-1.2 1h16.9c0-.7 0-1.1 0-1.2-.2-.1-4-2.7-9.4-6.2z" fill="#ffed00"/><path d="m11.1 71.5c-.9.6-6.4 4.3-7.4 4.9h12.3c-.9-.8-1.8-1.6-2.7-2.4-.8-.8-1.5-1.6-2.2-2.5zm65.8 0c-.7.8-1.5 1.7-2.3 2.5-.9.9-1.7 1.7-2.7 2.4h12.3c-.8-.6-6.4-4.3-7.3-4.9z" fill="#e2001a"/><path d="m44 .9c-23.4 0-42.5 19-42.5 42.4 0 11.4 4.4 22 12.4 30.1 1.6 1.6 3.4 3.1 5.2 4.4h49.6c10.7-7.7 17.7-20.3 17.7-34.5.1-23.4-19-42.4-42.4-42.4z" fill="#ffed00"/><path d="m44 1.8c-22.9 0-41.5 18.6-41.5 41.5 0 14.4 7.3 27 18.4 34.5h46.2c11.1-7.5 18.4-20.1 18.4-34.5 0-22.9-18.6-41.5-41.5-41.5z"/><path d="m44 2.1c-22.7 0-41.2 18.5-41.2 41.2 0 14.4 7.4 27.1 18.7 34.5h45.1c11.2-7.4 18.7-20.1 18.7-34.5-.1-22.7-18.6-41.2-41.3-41.2z" fill="#009ee0"/><path d="m44 11.7c-17.5 0-31.7 14.2-31.7 31.7 0 17.4 14.2 31.6 31.7 31.6s31.7-14.2 31.7-31.7c0-17.4-14.2-31.6-31.7-31.6z"/><path d="m44 11.9c-17.3 0-31.4 14.1-31.4 31.4s14.1 31.4 31.4 31.4 31.4-14.1 31.4-31.4-14.1-31.4-31.4-31.4z" fill="#ffed00"/><path d="m44 12.8c-16.8 0-30.5 13.7-30.5 30.5s13.7 30.5 30.5 30.5 30.5-13.7 30.5-30.5-13.7-30.5-30.5-30.5z"/><path d="m44 13.9c-16.2 0-29.4 13.2-29.4 29.4s13.2 29.4 29.4 29.4 29.4-13.2 29.4-29.4-13.2-29.4-29.4-29.4z" fill="#fff"/><path d="m87.1 78.7v11.4c-.8 0-85.5 0-86.3 0 0-.8 0-10.7 0-11.4z" fill="#ffed00"/><path d="m2 79.7c-.1 0-.2.1-.2.2v9c0 .1.1.2.2.2h84c.1 0 .2-.1.2-.2v-9c0-.1-.1-.2-.2-.2z"/><path d="m85.7 80.1v8.6c-.4 0-83.1 0-83.5 0 0-.4 0-8.2 0-8.6z" fill="#fff"/><path d="m4.8 87h1l.7-1.6h2.7l.8 1.6h1l-2.6-5.2h-1zm2-2.1 1.1-2.3 1.1 2.3zm4.9-3.1v5.2h.9v-2.2h1.5c1.2 0 1.5.1 1.5.8l.1.7c0 .3 0 .6.2.7h1.1v-.1c-.2-.1-.3-.3-.3-.6l-.1-.9c-.1-.6-.2-.8-.8-1 .6-.2.9-.6.9-1.2s-.3-1-.9-1.3c-.4-.2-.9-.2-1.5-.2zm.9.6h1.6c1 0 1.6.1 1.6.9 0 .7-.5.9-1.6.9h-1.6z"/><path d="m19.6 87h1v-4.6h2.1v-.6h-5.3v.6h2.2"/><path d="m23.6 87h5v-.6h-4.1v-1.8h3.7v-.6h-3.7v-1.6h4v-.6h-4.9"/><path d="m32.3 87h5.1v-.6h-4.1v-1.8h3.7v-.6h-3.7v-1.6h4v-.6h-5"/><path d="m40 87h1v-4.6h2.1v-.6h-5.3v.6h2.2"/><path d="m46.6 87h4.4v-.6h-3.5v-4.6h-.9"/><path d="m51 87h1l.7-1.6h2.7l.7 1.6h1l-2.6-5.2h-1zm2-2.1 1.1-2.3 1.1 2.3zm5.8 1.5v-1.8h1.8c1.1 0 1.6.3 1.6.9s-.5.9-1.5.9zm0-2.4v-1.6h1.7c.9 0 1.3.2 1.3.8s-.5.8-1.4.8zm-.9 3h2.9c1.5 0 2.3-.6 2.3-1.6 0-.7-.5-1.1-1.3-1.3.7-.2 1-.6 1-1.1 0-.8-.7-1.3-2.2-1.3h-2.8v5.3zm6.1-2.6c0 1.7 1.2 2.8 3.3 2.8 2 0 3.3-1 3.3-2.8s-1.2-2.8-3.3-2.8c-2 .1-3.3 1.1-3.3 2.8zm1 0c0-1.4.9-2.1 2.3-2.1s2.3.8 2.3 2.1c0 1.4-.9 2.1-2.3 2.1-1.4.1-2.3-.7-2.3-2.1zm6.8-2.6v5.2h.9v-2.2h1.5c1.2 0 1.5.1 1.5.8l.1.7c0 .3.1.6.2.7h1.1v-.1c-.2-.1-.3-.3-.3-.6l-.1-.9c0-.6-.2-.8-.8-1 .6-.2.9-.6.9-1.2s-.3-1-.9-1.3c-.4-.2-.9-.2-1.5-.2zm.9.6h1.6c1 0 1.6.1 1.6.9 0 .7-.5.9-1.6.9h-1.6z"/><path d="m78.2 87h5v-.6h-4.1v-1.8h3.7v-.6h-3.7v-1.6h4v-.6h-4.9"/><path d="m70.2 47.3c0-.8-.5-1.4-1.4-2h-.1s-.5 0-.8 0c.9-2.3 1.3-3.5 1.3-6.1 0-.1-.1-.2-.2-.2-.3 0-.6-.1-.9-.3s-.7-.3-1.1-.3c-.6 0-1.3.3-2.1.7-1.5.7-3.3 1.6-5.2 0 0 0-.1-.1-.2 0-.1 0-.1.1-.1.1-1 2.1-2.7 3.3-4.2 4.5-2.3-.9-4.7-2-5.6-2.7.9-.4 1.4-1.1 1.8-1.9.5-.8.9-1.4 1.2-2.3.2-.6.5-1 .8-1.5.6-1.1 1.1-2 1.1-3.6 0-.7 0-1.9-.8-2v.1-.1c-.9-.1-1.6-.1-2.2-.1-1.9-1.2-2.1-3.7-2.1-6.3v-.2h-.2c-.5-.1-.8.1-1 .2 0 0-.1 0-.1.1-.4-1.9-.6-3.8-.6-5.7 0-.1 0-.3 0-.4v-.2l-.1-.1c-1.1-.7-1.6-.2-2.1.3-.2.2-.3.3-.5.5-1.3.9-1.8 2-2.2 2.9-.2.6-.5 1.1-.9 1.6-.9-.9-2.7-2-2.8-2.1l-.6-.4.2.9c.1.3.2.6.2.8-.1-.3-.3-.6-.4-.9-.6-1.3-1.1-2.1-1.6-2.2-.2 0-.3 0-.4.1-.4.3-1.8 1.6-2.9 2.6-.4.4-.8.8-1 .9-.6-.1-1.4-.7-2.2-1.3-.9-.8-1.7-1.4-2.4-1.2l-.2.1.1 2.8c-.5.3-.8.9-.8 1.6 0 .5.3.8.6 1.1.2.2.4.3.5.6v.1s.2.4.2.4c0 .1.1.2.1.3-.4-.1-.7-.3-1.1-.4-.3-.1-.7-.2-1.2-.2-.2 0-.4.1-.6.2-.3.3-.2.8-.2 1.4v.6c0 .7 0 1.3.1 1.8-.3-.1-.8-.2-1.3-.4-.1 0-.2-.1-.3-.1-.9-.3-1.8-.6-2.3-.5h-.2v.2c-.1 3.9.8 7.9 2.5 10.5.8 1.3 4.8 2.7 6.6 2.8-.1.2-.1.4-.1.6-.1.4-.1.7-.1 1.2s.2.9.6 1.2c-1.6 1.8-3.6 2.1-5.3 2.4-1.1.2-2 .3-2.6.7 0 0-.1.1-.1.1v.2c1.3 1.8 2.5 3.6 1.3 5 0 0-.1.1 0 .2 0 .1.1.1.1.1.2.1.5.2.8.3 1.2.4 2.8 1 2.5 3.6 0 .1 0 .1.1.2 0 0 .1.1.2.1 2.2 0 11.5-1.1 13-3.5.3-.5.8-.7 1.4-1 .1-.1.2-.1.4-.2v.1l-.4.3.4-.2c1.3-.6 2.3-1.2 3.2-2 .1.1.1.3.1.4 0 .3-.3.5-.7.8-.2.1-.5.3-.8.6 0 0-.1.1-.1.2 0 .1 0 .1.1.2l.6.3c.8.4 1.5.8 2.1 1.5-4.1-1.1-5.7-.2-7.4.9-1.4.9-3 1.9-6.3 1.9-.1 0-.1 0-.2.1v.1.1l.4.6c.3.5.6 1.1 1.1 1.4-1.2.5-1.6 1-2.1 1.6-.3.3-.6.7-1.1 1.1 0 0-.1.1-.1.2 0 .1.1.1.1.2.2 0 .4.1.8.1s1.5 0 1.5.3c0 0 .1 1.4.1 1.4.1 1.9.2 3.2 1.5 5.2 0 .1.1.1.2.1s.1 0 .2-.1c.6-.6 2.7-1.7 3.6-1.8v.1c.6.8 1.1 1.4 1.7 1.8h.2c2.4-1.3 3.4-2.6 4-5.1l.3.6c.2.4.4.7.5 1.2 0 .1.1.1.1.2h.2c.9-.9 1.4-2.6 1.4-3.9 0-.3 0-.6-.1-.8.6-.4.9-.8 1.3-1.3.2-.3.5-.6.7-.8.4 1.2.6 2.2.6 3.2 0 .5-.1 1-.2 1.5-.5.1-1.2.2-1.9.1-.1 0-.1 0-.2.1 0 0-.1.1-.1.2.2 1.1.5 5 .2 5.8v.2c.1.1.1.1.2.1.6-.2 1.3-.5 1.9-.8.9-.4 1.9-.9 2.8-.9.1 0 .2-.1.2-.2 0-.7.1-1.4.1-2.1 0-2.5-.2-5.1-.4-7.3.2-.4.3-.7.4-1.1s.2-.8.4-1.1c.8-1.1 1.6-.9 2.9-.5 2.1.6 5 1.4 9.3-2.6 0 0 .3-.3.3-.3.6-.5 1.3-1.1 1.3-2 0-.6-.6-.7-1.2-.8-.3-.1-.7-.1-.9-.3.2-.1.4-.3.4-.3 1.8-1.4 4.5-3 4.5-4.8zm-34.2.5c-.9-.6-1.7-1.3-2.3-1.8h.6 2.3v.1c-.1.4-.2 1-.6 1.7zm4.6 2.3c-.2.1-.5 0-.8-.1.7-.6 1.4-1.2 1.9-2 .4.6.5 1.5.6 2.3-.6-.2-1.3-.3-1.7-.2zm10 1.9c.1 1 .3 2.1.5 3.1.3 1.1.5 2.3.5 3.5v.4c-1.2-2-2-4.1-2.9-6.2-.4-1-.8-2.1-1.3-3.1.5-.9.8-1.8 1-2.9v-.1h.1c1.1.1 2.1.2 3.1.2-.7 1.1-1.2 2.5-1.2 4.5.2 0 .2.3.2.6z"/><path d="m65.1 51.8.6-.4c1.5-1 4-2.6 4-4.1 0-.6-.4-1.1-1.2-1.6-.1 0-1.1 0-1.1 0-.1 0-.1 0-.2-.1v-.1-.1c.9-2.4 1.4-3.6 1.4-6.1-.3-.1-.6-.2-.9-.3-.3-.2-.6-.3-.9-.3-.5 0-1.2.3-1.9.6-1.5.7-3.4 1.6-5.4.1-1 2-2.5 3.2-4 4.2 1.7.6 3.2 1 3.9 1l.1.4c-2.2.9-4.6 1.5-7.4 1.5-.8 1.1-1.3 2.5-1.3 4.5v.8c.1 1 .3 2 .5 3 .3 1.2.5 2.4.5 3.6 0 .4 0 .7-.1 1.1 0 .1-.1.2-.2.2s-.2 0-.2-.1c-1.4-2.1-2.3-4.5-3.2-6.8-.4-.9-.8-1.9-1.2-2.9-.3.5-.8 1-1.2 1.5.1.3.2.5.2.7 0 .6-.4.8-.9 1.1-.2.1-.3.2-.5.3.2.1.3.2.3.2 1 .5 2 1 2.7 2.1v.1.1c-.1.1-.1.1-.2.1-4.4-1.4-6-.4-7.7.7-1.4.9-3 1.8-6.1 1.9.1.1.2.3.2.3.4.6.7 1.2 1.3 1.5.1 0 .1.1.1.2 0 .1-.1.2-.1.2-1.3.6-1.8 1-2.3 1.6-.2.2-.5.5-.8.8h.2c.9 0 1.8 0 1.9.6l.1 1.5c.1 1.8.2 3 1.3 4.8.9-.7 3.1-1.8 3.9-1.8.1 0 .2.1.2.2v.2c.5.7 1 1.2 1.4 1.5 2.5-1.4 3.4-2.7 3.8-5.6 0-.1.1-.2.2-.2s.2.1.2.2c0 .5.2.9.5 1.3.2.3.3.6.5.9.6-.8 1-2.2 1-3.3 0-.3 0-.6-.1-.9 0 0 0 0 0-.1s0-.1.1-.2c.6-.4.9-.8 1.3-1.3.3-.4.6-.8 1.1-1.1.1 0 .1-.1.2 0 .1 0 .1.1.1.1.5 1.7 1 3.4.5 5.4 0 .1-.1.1-.2.2-.5.1-1.2.2-1.9.1.1.8.3 2.6.3 4.1 0 .5 0 1-.1 1.3.5-.2 1-.4 1.5-.6.9-.4 1.9-.9 2.8-.9 0-.6 0-1.3 0-1.9 0-2.6-.2-5.1-.4-7.3v-.1c.2-.3.3-.7.3-1 .1-.4.2-.8.4-1.2.9-1.4 2.1-1 3.4-.7 2 .6 4.7 1.3 8.9-2.6l.3-.3c.5-.5 1.1-1 1.1-1.7 0-.2-.3-.3-.8-.4s-1.1-.2-1.3-.7v-.1c.4.2.5.1.5.1z" fill="#009036"/><path d="m31.6 45.8c-.2 0-.4-.1-.6-.2-1.7 2-3.8 2.3-5.6 2.6-.9.1-1.7.3-2.3.6.8 1 1.7 2.4 1.7 3.7 0 .5-.1.9-.5 1.4.1.1.3.1.5.2 1.1.4 2.8 1 2.8 3.4v.3c2.9-.1 11.2-1.2 12.4-3.3.3-.6 1-.9 1.6-1.2.2-.1.4-.2.6-.3 0-.4.1-1 .1-1.6 0-.2 0-.4 0-.6 0 0 0 0-.1 0-.6-.3-1.3-.4-1.6-.3s-.8.1-1.3-.2c-3.5 2.4-8.3 2.5-8.5 2.5h-.8l.7-.4c2.9-1.7 4.3-3.1 5-4.3-.9-.7-1.8-1.4-2.8-2.1 0 0-.1-.1-.1-.1-.2 0-.4-.1-.7-.1z" fill="#009036"/><path d="m48.7 46.1h-.3c-.2 0-.3.2-.3.5-.2 1.1-.7 4.5-5.4 6.7 0-.4.1-1.1.1-1.9 0-1.3-.2-2.9-.9-3.8l-.2-.2-.2.3c-2.4 3.8-7.8 4.6-9.9 4.8 4.7-2.9 5.1-5.1 5.3-6.2v-.1h1.4.1c.5-.2.9-.4 1.3-.7.3-.2.6-.3.9-.5 1-.5 1.8-1 2.7-1.4 1.8-1 3.4-1.9 5.8-2.4h.1c1.3 1.3 6.9 3.6 9.6 4.1-2.9.9-6.3 1.2-10.1.8z" fill="#009036"/><path d="m48.8 23.4c-.2 0-.3.1-.4.1-.1.1-.3.2-.6.2l-.3.1-.1-.3c-.5-2.1-.7-4.1-.7-6.1 0-.1 0-.2 0-.2-.6-.3-.8-.1-1.3.3-.2.2-.4.4-.6.5-1.2.8-1.6 1.7-2 2.7-.3.6-.5 1.3-1 1.9.5.9.9 1.4 1.3 2 .3.4.7.9 1 1.5.1.2.2.3.4.4.2.2.4.4.5.6.5.9.6 1.7.6 2.4.1.7.1 1.3.4 2.1v.1 1.1c.1-.1.2-.2.3-.3 0 0 .5-.5.5-.5 1.5-1.6 2.3-2.3 3.6-2.5-1.5-1.6-1.6-4.4-1.6-6.1zm-5.4 11.4s.4-1.7-.1-2.8c-.1 0-.1 0-.2.1l-.3.1c-.4.1-.8.2-1.3.2-1.3 0-2.3-.4-3.2-.9-.9-.4-1.8-.8-3-.8-.1 0-.2 0-.2.1-.2.2-.2.8-.2 1.2v.2.2s.2 2.8.2 2.8c0 1.6-.1 2.7-1 4l-.1.3c-.3.4-.5.8-.8 1.1 6.5.5 9.9-3.5 10.2-5.8zm-2.7-5c.3.2.7.4 1.1.5.1 0 .3.1.5.1-.1-1.1-.4-1.9-.9-2.9 0 0-.2-.5-.2-.5-.1-.3-.3-.4-.4-.6-.2-.2-.4-.5-.5-.9-.4-1.1-.7-1.7-1.2-2.5l-.1-.2c-.4-.5-.8-1.3-1.1-2s-.9-1.8-1.2-1.9c-.4.3-1.8 1.7-2.8 2.6-1.2 1.1-1.2 1.1-1.3 1.1-.8 0-1.7-.7-2.6-1.4-.6-.5-1.3-1-1.7-1.1 0 .3.1 1.5.1 2.1.1 0 .3-.1.4-.1.7 0 1.2.3 1.8.5.3.1.5.3.9.4l.2.1c.6.2 1.1.4 1.9.5.8.2 1.3.5 1.9.8.3.2.7.4 1.1.5l.4.1c.4.1.8.3 1.1.6.6.7.8 1.3 1 2 .1.4.2.9.4 1.4.3.3.8.6 1.2.8z" fill="#e2001a"/><path d="m44 34.9c-.2 1.1-1 2.7-2.7 4.1 1.8-1 2.8-2.3 3-3 .2-.5.4-.9.7-1.3.2-.3.4-.6.5-.8.1-.1.1-.3.2-.4h-.1s0-1.5 0-1.6c-.3-.8-.4-1.5-.5-2.2s-.1-1.4-.6-2.2c-.1-.2-.2-.3-.4-.4-.2-.2-.4-.4-.5-.6-.4-.6-.7-1-1-1.4-.5-.6-.9-1.2-1.4-2.2-.5-.6-1.6-1.3-2.3-1.8.2.8.3 1.3.3 1.6v.1c.5 1 .9 1.6 1.3 2.8.1.3.3.5.4.7.2.2.4.4.5.8l.2.5c.4 1.1.8 1.9.9 3.1.4 0 .8 0 1.1.3.1.1.2.3.2.5s-.1.4-.3.5c.9 1 .5 2.8.5 2.9zm-12.1-1.6c-.2-.7-.3-1.4-.3-2.3-.5-.5-.6-1-.7-1.6l-.2-.7v-1.3c.1-.6.3-1.9 1.4-1.9.7 0 1.1.3 1.6.5 0 0 .3.2.3.2l.6.3c1.1.5 2.1 1 2.6 2.3.4.1.8.2 1.3.3-.1-.4-.2-.8-.3-1.1-.2-.7-.3-1.2-.8-1.8-.2-.3-.5-.4-.9-.5 0 0-.4-.1-.4-.1-.4-.2-.8-.4-1.1-.5-.5-.3-1-.5-1.7-.7-.8-.1-1.3-.3-2-.6 0 0-.2-.1-.2-.1-.4-.1-.7-.3-1-.4-.5-.3-.9-.5-1.5-.5-.7 0-1.2.7-1.2 1.3 0 .3.1.4.4.7.2.2.4.4.6.8 0 0 .1.1.1.1l.2.4c.2.3.3.6.4 1.1.3.8.3 1.5.3 2.1 0 .5 0 1 .2 1.7.1.5.2.9.2 1.3.1.5.1.9.3 1.5.1.4.3.6.6.8.2.2.5.5.7.8.3.5.5 1 .7 1.5.2-.3.2-.7.2-1.2-.1-1-.2-1.7-.4-2.4z" fill="#e2001a"/><path d="m33.5 39.2s.2-.3.2-.3c.8-1.2.9-2.2.9-3.7 0 0-.2-2.8-.2-2.8v-.2c0-.1 0-.1 0-.2 0-.6 0-1.3.4-1.6.2-.2.4-.2.6-.2 1.3 0 2.3.4 3.2.9.9.4 1.8.8 3 .8.5 0 .8-.1 1.1-.2 0 0 .3-.1.3-.1.4-.1.6-.2.6-.3s0-.1 0-.1c-.2-.2-.6-.2-.9-.2-.4 0-.8 0-1.1-.1-.5-.2-.8-.4-1.2-.6s-.8-.5-1.3-.6c-2.1-.6-3.2-.8-5.2-.8-.6 0-1.2 0-1.5.3s-.3.7-.3 1.3v.4c0 .9.2 1.5.3 2.2.2.7.3 1.4.3 2.3 0 .8-.1 1.3-.6 2 .1.4.1.9.1 1.4v.4c0 .3 0 .6-.1 1 .8 0 1.1-.5 1.4-1zm-1.8 1.3c.1-.4.1-.7.1-1.1v-.5c0-1.4-.4-2.4-1-3.5-.1-.3-.3-.5-.5-.7-.3-.3-.6-.6-.7-1-.2-.6-.3-1.1-.4-1.6-.1-.4-.1-.8-.2-1.2-.2-.7-.2-1.3-.2-1.8 0-.6 0-1.2-.2-1.9-.4-.1-.7-.3-1-.4-.5-.2-.9-.4-1.6-.4-.1 0-.1 0-.1 0-.1.1-.1.6 0 1v.6c0 1.7.1 2.6.7 4.4.2.8.5 1.2.9 1.7.2.3.4.5.6.9l-.5.3c-.2-.3-.4-.6-.5-.8-.4-.5-.7-1.1-1-1.9s-.4-1.5-.5-2.1c-.4-.1-.9-.2-1.7-.5-.7-.2-1.5-.5-2-.6v.3c0 3.6.9 7.2 2.4 9.7.7 1.1 4.8 2.5 6.4 2.6.2-.5.5-1.1 1-1.3z" fill="#e2001a"/><path d="m34.4 26.8s-.6-.3-.6-.3l-.3-.2c-.4-.2-.8-.4-1.3-.4s-.7.6-.8 1.4v1.1c0 .1.2.7.2.7 0 .2.1.4.1.6 0-.4.1-.7.4-1 .5-.5 1.2-.5 1.9-.5 1 0 1.9.1 2.7.2-.6-.7-1.4-1.1-2.3-1.6zm16.9 3.2c-1.5.1-2.2.7-3.8 2.4l-.5.5c-.4.4-.7.7-1 1.1-.2.3-.3.6-.5.9-.3.4-.5.8-.7 1.2-.6 1.9-4.7 5.9-12.7 4.9h-.1c-.5 0-.7.4-1 1.1-.4.8-.5 1.2-.5 2 0 .5.4.9 1 1l.6.1c.7.1 1.2.2 2 .2h4l1.2-.6c.3-.2.6-.4 1-.5 1-.5 1.8-1 2.6-1.4 1.8-1 3.5-2 6-2.5 1-.2 1.5-.9 2-1.8.5-.8.8-1.3 1.2-2.2.3-.6.5-1.1.8-1.6.6-1.1 1-1.9 1-3.3 0-.9-.1-1.4-.3-1.4-.9-.1-1.7-.2-2.3-.1z" fill="#e2001a"/><path d="m50.1 32.7c0 .2.1.4.4.5l2.1.3c.2 0 .4-.1.5-.4 0-.2-.1-.4-.4-.5l-2.1-.3c-.3 0-.5.1-.5.4zm-5.4 14.1-1 4.3c-.1.2.1.5.3.5.2.1.5-.1.5-.3l1-4.3c.1-.2-.1-.5-.3-.5s-.4.1-.5.3zm5.6-15.2c0 .2.2.4.4.4l2.5.1c.2 0 .4-.2.4-.4s-.2-.4-.4-.4l-2.5-.1c-.2-.1-.4.1-.4.4zm-6.4 7.7c-.2.1-.3.4-.2.6l.6 1c.1.2.4.3.6.2s.3-.4.2-.6l-.6-1c-.1-.3-.4-.3-.6-.2zm1.3-1c-.2.2-.2.4-.1.6l1.4 1.7c.2.2.4.2.6.1.2-.2.2-.4.1-.6l-1.4-1.7c-.2-.3-.5-.3-.6-.1zm1.2-.9c-.2.2-.2.4 0 .6l1.8 2c.2.2.4.2.6 0s.2-.4 0-.6l-1.8-2c-.2-.2-.5-.2-.6 0zm-5.7-4c-1.1-.4-1.8-.6-3-.6-1.3 0-1.8 1.2-2.1 2.5v1.4c1.1-1.3 1.1-3.3 2.8-3.3.9-.1 1.5.2 2.3 0" fill="#ffed00"/><path d="m40.6 58c0 .1 0 .1 0 0 .6.3 1 .6 1.4.8l.5.3s.2.1.2.1c.4.2.7.3.7.7 0 .8-1 1.3-1.9 1.3-1.5 0-2.4-.1-4-.6h-.1v.1c.7.4 1.3.6 2.2.6h.4c.5 0 1 0 1.3.2.1.1.1.2.1.3 0 .4-.3.7-.6.9-.1.1-.3.3-.4.4-.4.6-.8 1.1-1.2 1.6-.6.8-1.3 1.6-1.8 2.7v.1h.1c.4-.7.8-1 1.3-1.5l.1-.1c.7-.6 1.2-1.3 1.7-1.9.4-.5.9-1.1 1.5-1.7 0 .1 0 .2-.1.3 0 .1-.1.3-.1.5 0 .3.1.6.1.8.1.2.1.5.1.8 0 0-.1 1.3-.1 1.3v.1h.1l.1-.1c.1-.2.3-.4.3-.6v-2.6c.2-1.2.9-1.6 2.1-2.3 0 .2-.2 3.5-.2 3.5s0 .1.1.1c0 0 .1 0 .1-.1.2-.6.2-1.1.3-1.6.1-.7.1-1.4.6-2 .4-.6 1.1-.8 1.9-.9.5-.1 1-.2 1.5-.5 0 0 0 0 0-.1 0 0 0 0 0-.1 0 0-.1-.1-.1-.2-.1-.1-.1-.3-.4-.3-.8 0-1.5.3-2 .5-.6.3-1.2.5-2 .5s-1.4-.3-2-.6c-.5-.3-1-.6-1.8-.7z"/><path d="m38 60.9c.7.2 1.2.3 1.8.3-.1 0-.3 0-.3 0-.5 0-1-.1-1.5-.3zm4.1-2.2c-.3-.1-.5-.3-.8-.4.4.1.8.3 1.1.5.6.3 1.2.7 2.1.7.8 0 1.4-.3 2-.5.6-.3 1.2-.5 2-.5.1 0 .2.1.2.2s0 .1.1.1c-.4.3-.9.4-1.4.5-.8.2-1.5.3-1.9 1-.5.7-.5 1.4-.6 2.1 0 .2 0 .3-.1.5.1-1.1.1-2.6.1-2.6s0 0 0-.1c0 0 0 0-.1 0-1.2.7-2.1 1.1-2.3 2.5v2.6c0 .1-.2.3-.3.5 0-.2.1-1 .1-1 0-.3-.1-.6-.1-.8-.1-.2-.1-.4-.1-.8 0-.2 0-.3.1-.4 0-.1.1-.3.1-.5v-.1h-.1c-.7.6-1.2 1.3-1.7 1.9s-1 1.2-1.7 1.8c0 0-.1.1-.1.1-.2.2-.4.4-.7.6.4-.6.8-1.1 1.3-1.7.4-.5.8-1 1.2-1.6.1-.2.3-.3.4-.4.3-.3.6-.6.6-1 0-.2-.1-.3-.2-.4s-.1-.1-.2-.1h.3c1 0 2.1-.5 2.1-1.4 0-.5-.4-.6-.8-.8l-.2-.2s-.4-.3-.4-.3z" fill="#ffed00"/><path d="m65.2 42c-1.1 1.5-2.1 2.1-3.5 3.1l-.2.1c-.4.3-.6.6-.9.9-.3.4-.7.8-1.3 1 0-.2 0-1.5 0-1.5s0-.1-.1-.1-.1 0-.1.1c-.1.4-.1.8-.1 1.1 0 .5 0 1-.3 1.5-.4.6-.7 1-1.1 1.5-.2.3-.5.6-.8.9-.2.2-.3.5-.4.8-.2.5-.4.9-.9.9-.1 0-.1 0-.1-.1 0 0-.1 0-.1-.1s0-2.5 0-2.5l-.5-2s0-.1-.1-.1c0 0-.1 0-.1.1.2 1.2.2 1.8.2 2.8v.7c0 2.2-.8 3.4-1.8 5.1 0 0-.1.1-.1.1-.2.5-.6 1.1-.2 1.3.3.2.9-.2 1.2-.4.5-.6.7-1.1.9-2 .3-1.6 1.8-2 3.4-2.4h.1c1-.2 1.7-.4 2.5-.5.9-.1 1.8-.3 3.1-.7 0 0 .1 0 0-.1 0 0 0-.1-.1-.1h-2.8c-1.3.5-2 .7-3.4.7-.2 0-.3 0-.4-.1 0 0 0 0-.1 0 .8-.5 1.1-1 1.5-2.1.3-.9.9-1.8 1.7-1.6 1.6.3 2.6-.1 4.1-.9 0 0 .3-.2.3-.2.1-.1.2-.1.3-.2.4-.1.9-.1 1.4-.1 0 0 .1 0 .1-.1 0 0 0-.1-.1-.1h-.8c-.2 0-.4.1-.6.2-.3.1-.7.2-1 .2-.7.2-1.5.4-2.4.4h-.5c-.3 0-.5 0-.8 0 .5-.9 1.2-1.4 1.8-1.9.4-.4.9-.7 1.4-1.2s.8-1 1.1-1.4c.2-.4.5-.8.8-1.2-.1.2-.1.2-.2.2z"/><path d="m59.2 47.3c.7-.2 1-.6 1.4-1.1.2-.3.5-.6.9-.9l.2-.1c1-.7 1.8-1.2 2.6-2-.3.4-.6.9-1 1.4s-.9.9-1.3 1.2c-.7.5-1.4 1.1-1.9 2.1h.1 1 .5c1 0 1.7-.2 2.5-.4.2 0 .3-.1.5-.1-.1.1-.2.1-.2.1-1.4.7-2.4 1.1-4 .8-.8-.1-1.5.8-1.8 1.7-.4 1.1-.7 1.6-1.6 2.1v.1s0 .1.1.1l.2.1c.1 0 .2.1.4.1 1.4 0 2.1-.2 3.4-.7h2.3c-1 .3-1.8.4-2.6.5-.7.1-1.5.2-2.5.5h-.1c-1.7.4-3.1.8-3.5 2.5-.1.8-.3 1.3-.8 1.9-.2.3-.7.6-1 .4-.1 0-.1-.1-.1-.2 0-.2.2-.6.3-.9l.1-.1c1.1-1.7 1.8-3 1.8-5.2v-.7c0-.2 0-.4 0-.5 0-.3 0-.6 0-1 .1.3.2.6.2.6v2.5s0 .1.1.1.1 0 .1.1c.1 0 .1.1.2.1.6 0 .8-.5 1-1 .1-.3.2-.5.4-.7.3-.3.5-.6.8-.9.4-.5.8-.9 1.1-1.5.1-.3.2-.6.2-1z" fill="#ffed00"/><path d="m40.9 50.8c-.1-.1-.1-.2-.2-.2-.2 0-.5.2-.8.4-.2.1-.3.3-.5.3 0 0-.9.4-.9.4-.5.2-1 .5-1.6.8-2 1.1-3.3 1.5-5.4 1.5 0 0-.1 0-.1.1v.1c.2.1.5.2.8.2.8 0 1.5-.1 2.2-.2.6-.1 1.1-.2 1.8-.2 1.7-.1 3.5-.4 4.4-2.2 0 0 .1-.2.1-.2.2-.2.3-.5.2-.8z"/><g fill="#ffed00"><path d="m9.3 60.4 1.5-.7-.8-1.6c-.1-.3-.3-.5-.5-.6s-.4-.1-.7 0-.5.4-.5.6.1.5.3.8zm2.5-1.2 1.8-.8-.7-1.6c-.1-.3-.3-.5-.4-.6-.3-.2-.6-.3-1-.1-.3.2-.5.4-.5.8 0 .2.1.4.2.7zm-4.6-2.3c.2-.3.5-.6.9-.8.4-.1.7-.2 1.1-.1.2.1.4.2.6.3 0-.4.1-.7.2-1 .2-.3.5-.5.9-.7s.8-.2 1.2-.2c.3 0 .5.1.7.2.3.1.5.3.7.6s.4.6.5.9l1.3 3-6.7 3-1.4-3.1c-.3-.9-.3-1.5 0-2.1z"/><path d="m5.4 54-.3-1.5 5.8-1.4-.8-3.5 1.3-.3 1.2 5"/><path d="m8.6 43.6.1-1.9-2.9.8zm-4.6-.3.1-1.7 7.4-2.2v1.6l-1.5.4-.1 2.7 1.5.6-.1 1.6zm1.5-7.4c-.4-.7-.6-1.5-.3-2.4.3-1.2.9-2 1.8-2.3.5-.2 1-.3 1.4-.2l-.4 1.5c-.4 0-.7.1-.9.2-.4.2-.6.6-.8 1.1-.1.5 0 1 .3 1.4.4.4.9.7 1.7.9s1.4.2 1.9 0 .8-.6.9-1.1.1-1-.2-1.3c-.1-.2-.4-.4-.7-.6l.4-1.5c.7.3 1.3.8 1.6 1.5.3.6.4 1.4.2 2.2-.3 1-.8 1.7-1.6 2.2-.8.4-1.8.5-2.9.2-1.1-.4-1.9-.9-2.4-1.8"/><path d="m7.2 27.7.7-1.3 2.7 1.3-1.5-3.9.9-1.7 1.4 4 5.2-1-.8 1.8-3.9.6.3 1 2.2 1.1-.6 1.3"/><path d="m13.9 19.1 1.2 1.1 1.2-1.4c.2-.2.3-.5.4-.7 0-.2-.1-.4-.3-.7-.3-.2-.5-.3-.8-.1-.2.1-.4.3-.7.6zm2.1 1.8 1.5 1.3 1.2-1.4c.2-.2.3-.5.4-.7.1-.3 0-.7-.4-1-.3-.3-.6-.3-.9-.2-.2.1-.4.2-.6.5zm.1-5.2c.4 0 .7.2 1.1.5.3.3.5.6.6 1 0 .2 0 .4-.1.7.3-.2.7-.3 1-.2s.7.2 1 .5.5.6.7 1c.1.3.1.5.1.8s-.1.6-.3.9-.4.6-.6.9l-2.2 2.5-5.4-5 2.3-2.7c.6-.6 1.2-.9 1.8-.9zm2.1-2.9 1.2-.9 2.7 3.6c.3.4.6.7.8.8.4.2.8.1 1.3-.2.5-.4.7-.8.6-1.2 0-.3-.2-.6-.5-1l-2.7-3.6 1.2-.9 2.7 3.6c.5.6.7 1.2.8 1.7.1.9-.3 1.7-1.3 2.5s-1.9 1-2.8.6c-.5-.2-.9-.6-1.4-1.2m7.7-8.7.7 1.9 1.6-.6c.3-.1.6-.2.7-.4.2-.2.3-.5.1-.9s-.4-.6-.7-.7c-.2 0-.4 0-.8.1zm2.7-2.2c.3 0 .6.1.8.2s.4.3.6.4c.2.2.3.4.4.7s.2.7.1 1.1-.2.7-.6 1c.4 0 .7.1.9.3s.4.5.6 1l.2.5c.1.3.2.5.3.6.1.2.2.3.4.3l.1.2-1.6.6c-.1-.1-.2-.3-.2-.3-.1-.2-.2-.4-.3-.6l-.3-.7c-.2-.4-.3-.7-.6-.8-.2-.1-.5-.1-.9.1l-1.5.5 1 2.7-1.4.5-2.5-6.9 3.3-1.1c.5-.2.9-.3 1.2-.3z"/><path d="m35.4 4.2 1.6-.2 3.5 4.7-.6-5.1 1.4-.1.9 7.2-1.5.2-3.6-4.8.6 5.2-1.4.1"/><path d="m48.9 5-.3 1.9 1.7.3c.3.1.6.1.8 0 .3-.1.5-.3.6-.7s0-.8-.3-1c-.2-.1-.4-.2-.7-.2zm3.4-.5c.3.2.5.4.6.6s.2.4.3.7c.1.2.1.5 0 .8s-.2.7-.4 1-.6.5-1 .6c.3.2.5.4.6.7s.1.7 0 1.2l-.1.5c-.1.3-.1.6-.1.7 0 .2.1.3.2.5v.2l-1.7-.3c0-.2 0-.3 0-.4 0-.2 0-.4 0-.6l.1-.7c.1-.5 0-.8-.1-1s-.4-.3-.9-.4l-1.6-.3-.3 2.7-1.5-.2 1.1-7.2 3.5.6c.6 0 1 .1 1.3.3zm6.9 8c.5-.2 1-.7 1.3-1.5.4-.7.5-1.4.3-1.9-.1-.6-.4-1-1-1.2-.5-.3-1.1-.3-1.6 0-.5.2-1 .7-1.3 1.5-.4.7-.5 1.4-.3 1.9.1.6.5 1 1 1.2.5.3 1.1.3 1.6 0zm.4 1.5c-.8.3-1.6.2-2.5-.3s-1.5-1.1-1.8-1.8c-.4-1-.3-2 .3-3.2s1.4-1.9 2.3-2.2c.7-.3 1.6-.2 2.5.3s1.5 1.1 1.8 1.8c.4.9.3 2-.3 3.2-.6 1.1-1.4 1.9-2.3 2.2z"/><path d="m69.4 12.5 1.3 1-6.5 4.2-1.1-.9 2.5-7.3 1.3 1-2.2 5.4"/><path d="m74.9 20-2.6-2.9-1.1 1.1 2.4 2.6-1 .9-2.4-2.7-1.4 1.3 2.8 3-1 .9-3.7-4.1 5.4-4.9 3.6 4"/><path d="m77.7 24.3-1.8.9.8 1.6c.2.3.3.5.4.6.3.2.6.2.9 0 .4-.2.6-.5.6-.8 0-.2-.1-.4-.2-.7zm2.4 2.4c0 .3 0 .6-.2.9-.1.2-.2.4-.4.6s-.4.3-.6.5c-.3.2-.7.2-1 .2-.4 0-.7-.2-1-.5 0 .4 0 .7-.2.9s-.5.5-.9.7l-.4.2c-.3.2-.5.3-.6.3-.2.1-.2.3-.3.4l-.2.1-.7-1.5c.1-.1.2-.2.3-.3.2-.1.3-.2.5-.3l.6-.3c.4-.2.7-.4.7-.6.1-.2 0-.5-.2-.9l-.7-1.4-2.6 1.3-.7-1.3 6.6-3.2 1.6 3.2c.3.4.4.7.4 1zm-2.8 6.2c-.3.1-.5.3-.7.4-.2.3-.3.8-.1 1.4.1.3.2.6.3.8.3.4.6.5 1 .4.2-.1.4-.2.5-.4s.1-.6.1-1.1v-.8c0-.8 0-1.3.2-1.7.2-.6.7-.9 1.4-1.1.6-.2 1.2-.1 1.8.3.5.4.9 1 1.1 1.9.2.7.2 1.4-.1 2.1-.3.6-.8 1-1.5 1.3l-.5-1.4c.4-.1.7-.4.8-.8.1-.3 0-.6 0-.9-.1-.4-.3-.7-.5-.9s-.4-.3-.7-.2-.4.2-.5.5c-.1.2-.1.5-.1 1v1.3c0 .6-.1 1-.2 1.3-.2.5-.7.8-1.3 1-.7.2-1.3 0-1.8-.3-.5-.4-.9-1-1.2-1.9-.2-.9-.2-1.7.1-2.3s.8-1 1.5-1.2"/><path d="m83.9 44.7-.3 5.2-1.3-.1.3-3.7-1.7-.1-.2 3.2-1.3-.1.2-3.2-3.1-.2.1-1.5"/><path d="m77.6 49.2-.3 1.5-1.4-.2.2-1.5"/><path d="m81.4 55.3c.3.8.3 1.6 0 2.5-.5 1.1-1.2 1.8-2.1 2.1-.5.1-1 .1-1.5 0l.6-1.4c.4 0 .7 0 .9-.1.4-.1.7-.5.9-1s.2-1-.1-1.5-.8-.9-1.6-1.2-1.4-.4-1.9-.2-.9.5-1.1 1-.2.9 0 1.3c.1.2.3.4.6.7l-.6 1.4c-.7-.4-1.2-1-1.4-1.7-.3-.7-.2-1.4.1-2.2.4-1 1-1.6 1.9-1.9s1.8-.2 2.9.2c1.2.4 2 1.1 2.4 2"/><path d="m74 59.6-.8 1.3-1.2-.8.7-1.3"/><path d="m16.8 73.1h1.1v-6.1h-.7c-.1.7-.7 1.1-1.7 1.1v.7h1.3m3.6 1.1c-.6.2-.9.7-.9 1.6 0 1.2.5 1.8 1.6 1.8 1.2 0 1.7-.6 1.7-1.9 0-.9-.3-1.4-.9-1.5.5-.2.8-.6.8-1.3 0-1-.5-1.5-1.5-1.5s-1.5.5-1.5 1.5c-.1.7.2 1.1.7 1.3zm.7.4c.4 0 .6.3.6 1.1s-.1 1.1-.6 1.1c-.4 0-.5-.3-.5-1 0-.9.1-1.2.5-1.2zm-.5-1.6c0-.5.1-.8.5-.8s.5.2.5.8-.1.8-.5.8c-.3 0-.5-.3-.5-.8zm45.2 4.4h1.2c.1-1.9.6-3.6 1.5-5.1v-.9h-3.5v1h2.3c-.9 1.9-1.4 3.6-1.5 5m3.2-1.9v.2c0 1.3.5 1.9 1.6 1.9 1.2 0 1.7-.7 1.7-2.3 0-1.3-.5-2-1.5-2-.3 0-.6.1-.8.3l.1-1.2h2v-1h-2.9l-.2 3.2h1c0-.3.2-.5.6-.5.5 0 .7.4.7 1.2 0 .9-.2 1.4-.6 1.4s-.6-.4-.6-1.1c0-.1 0-.1 0-.2"/></g></svg>