<?xml version="1.0" encoding="utf-8"?>
<!-- Generator: Adobe Illustrator 23.0.4, SVG Export Plug-In . SVG Version: 6.00 Build 0)  -->
<svg version="1.1" id="Blackburn" xmlns="http://www.w3.org/2000/svg" xmlns:xlink="http://www.w3.org/1999/xlink" x="0px" y="0px"
	 viewBox="0 0 132 45" style="enable-background:new 0 0 132 45;" xml:space="preserve">
<style type="text/css">
	.st0{fill-rule:evenodd;clip-rule:evenodd;fill:#FFF200;}
	.st1{fill:none;stroke:#231F20;stroke-width:0.5;stroke-linecap:round;}
	.st2{fill-rule:evenodd;clip-rule:evenodd;fill:#ED1C24;}
	.st3{fill:none;stroke:#231F20;stroke-width:0.5;stroke-linecap:round;stroke-linejoin:round;}
	.st4{fill-rule:evenodd;clip-rule:evenodd;fill:#00AEEF;}
	.st5{fill-rule:evenodd;clip-rule:evenodd;fill:#FFFFFF;}
	.st6{fill:none;stroke:#231F20;stroke-width:0.551;stroke-linecap:round;stroke-linejoin:round;}
	.st7{filter:url(#Adobe_OpacityMaskFilter);}
	.st8{mask:url(#blackburn-b_1_);fill-rule:evenodd;clip-rule:evenodd;fill:#FFF200;}
	.st9{filter:url(#Adobe_OpacityMaskFilter_1_);}
	.st10{mask:url(#blackburn-b_2_);fill:none;stroke:#231F20;stroke-width:0.5;stroke-linecap:round;}
	.st11{filter:url(#Adobe_OpacityMaskFilter_2_);}
	.st12{mask:url(#blackburn-b_3_);fill-rule:evenodd;clip-rule:evenodd;fill:#FFFFFF;}
	.st13{filter:url(#Adobe_OpacityMaskFilter_3_);}
	.st14{mask:url(#blackburn-b_4_);fill:none;stroke:#231F20;stroke-width:0.5;stroke-linecap:round;stroke-linejoin:round;}
	.st15{filter:url(#Adobe_OpacityMaskFilter_4_);}
	.st16{mask:url(#blackburn-b_5_);fill-rule:evenodd;clip-rule:evenodd;fill:#231F20;}
	.st17{filter:url(#Adobe_OpacityMaskFilter_5_);}
	.st18{mask:url(#blackburn-b_6_);fill-rule:evenodd;clip-rule:evenodd;fill:#231F20;}
	.st19{filter:url(#Adobe_OpacityMaskFilter_6_);}
	.st20{mask:url(#blackburn-b_7_);fill-rule:evenodd;clip-rule:evenodd;fill:#231F20;}
	.st21{filter:url(#Adobe_OpacityMaskFilter_7_);}
	.st22{mask:url(#blackburn-b_8_);fill-rule:evenodd;clip-rule:evenodd;fill:#231F20;}
	.st23{filter:url(#Adobe_OpacityMaskFilter_8_);}
	.st24{mask:url(#blackburn-b_9_);fill-rule:evenodd;clip-rule:evenodd;fill:#231F20;}
	.st25{filter:url(#Adobe_OpacityMaskFilter_9_);}
	.st26{mask:url(#blackburn-b_10_);fill-rule:evenodd;clip-rule:evenodd;fill:#231F20;}
	.st27{filter:url(#Adobe_OpacityMaskFilter_10_);}
	.st28{mask:url(#blackburn-b_11_);fill-rule:evenodd;clip-rule:evenodd;fill:#231F20;}
	.st29{filter:url(#Adobe_OpacityMaskFilter_11_);}
	.st30{mask:url(#blackburn-b_12_);fill-rule:evenodd;clip-rule:evenodd;fill:#231F20;}
	.st31{filter:url(#Adobe_OpacityMaskFilter_12_);}
	.st32{mask:url(#blackburn-b_13_);fill-rule:evenodd;clip-rule:evenodd;fill:#00A651;}
	.st33{filter:url(#Adobe_OpacityMaskFilter_13_);}
	.st34{mask:url(#blackburn-b_14_);fill:none;stroke:#231F20;stroke-width:0.5;stroke-linecap:round;stroke-linejoin:round;}
	.st35{filter:url(#Adobe_OpacityMaskFilter_14_);}
	.st36{mask:url(#blackburn-b_15_);fill-rule:evenodd;clip-rule:evenodd;fill:#00A651;}
	.st37{filter:url(#Adobe_OpacityMaskFilter_15_);}
	.st38{mask:url(#blackburn-b_16_);fill:none;stroke:#231F20;stroke-width:0.5;stroke-linecap:round;stroke-linejoin:round;}
	.st39{filter:url(#Adobe_OpacityMaskFilter_16_);}
	.st40{mask:url(#blackburn-b_17_);fill-rule:evenodd;clip-rule:evenodd;fill:#00A651;}
	.st41{filter:url(#Adobe_OpacityMaskFilter_17_);}
	.st42{mask:url(#blackburn-b_18_);fill:none;stroke:#231F20;stroke-width:0.5;}
	.st43{filter:url(#Adobe_OpacityMaskFilter_18_);}
	.st44{mask:url(#blackburn-b_19_);fill-rule:evenodd;clip-rule:evenodd;fill:#ED1C24;}
	.st45{filter:url(#Adobe_OpacityMaskFilter_19_);}
	.st46{mask:url(#blackburn-b_20_);fill:none;stroke:#231F20;stroke-width:0.5;}
	.st47{filter:url(#Adobe_OpacityMaskFilter_20_);}
	.st48{mask:url(#blackburn-b_21_);fill:none;stroke:#231F20;stroke-width:0.5;}
	.st49{filter:url(#Adobe_OpacityMaskFilter_21_);}
	.st50{mask:url(#blackburn-b_22_);fill:none;stroke:#231F20;stroke-width:0.5;}
	.st51{filter:url(#Adobe_OpacityMaskFilter_22_);}
	.st52{mask:url(#blackburn-b_23_);fill:none;stroke:#231F20;stroke-width:0.5;}
	.st53{filter:url(#Adobe_OpacityMaskFilter_23_);}
	.st54{mask:url(#blackburn-b_24_);fill:none;stroke:#231F20;stroke-width:0.5;}
	.st55{filter:url(#Adobe_OpacityMaskFilter_24_);}
	.st56{mask:url(#blackburn-b_25_);fill:none;stroke:#231F20;stroke-width:0.5;}
	.st57{filter:url(#Adobe_OpacityMaskFilter_25_);}
	.st58{mask:url(#blackburn-b_26_);fill:none;stroke:#231F20;stroke-width:0.5;}
	.st59{filter:url(#Adobe_OpacityMaskFilter_26_);}
	.st60{mask:url(#blackburn-b_27_);fill:none;stroke:#231F20;stroke-width:0.5;}
	.st61{filter:url(#Adobe_OpacityMaskFilter_27_);}
	.st62{mask:url(#blackburn-b_28_);fill:none;stroke:#231F20;stroke-width:0.5;}
	.st63{filter:url(#Adobe_OpacityMaskFilter_28_);}
	.st64{mask:url(#blackburn-b_29_);fill-rule:evenodd;clip-rule:evenodd;fill:#FFF200;}
	.st65{filter:url(#Adobe_OpacityMaskFilter_29_);}
	.st66{mask:url(#blackburn-b_30_);fill:none;stroke:#FFF200;stroke-width:0.5;stroke-linecap:round;}
	.st67{filter:url(#Adobe_OpacityMaskFilter_30_);}
	.st68{mask:url(#blackburn-b_31_);fill-rule:evenodd;clip-rule:evenodd;fill:#FFF200;}
	.st69{filter:url(#Adobe_OpacityMaskFilter_31_);}
	.st70{mask:url(#blackburn-b_32_);fill:none;stroke:#231F20;stroke-width:0.5;stroke-linecap:round;stroke-linejoin:round;}
	.st71{filter:url(#Adobe_OpacityMaskFilter_32_);}
	.st72{mask:url(#blackburn-b_33_);fill-rule:evenodd;clip-rule:evenodd;fill:#FFF200;}
	.st73{filter:url(#Adobe_OpacityMaskFilter_33_);}
	.st74{mask:url(#blackburn-b_34_);fill:none;stroke:#231F20;stroke-width:0.5;stroke-linecap:round;stroke-linejoin:round;}
	.st75{filter:url(#Adobe_OpacityMaskFilter_34_);}
	.st76{mask:url(#blackburn-b_35_);fill-rule:evenodd;clip-rule:evenodd;fill:#231F20;}
	.st77{filter:url(#Adobe_OpacityMaskFilter_35_);}
	.st78{mask:url(#blackburn-b_36_);fill:none;stroke:#231F20;stroke-width:0.5;stroke-linecap:round;stroke-linejoin:round;}
	.st79{fill:#FFFFFF;}
</style>
<g transform="translate(1)">
	<polygon class="st0" points="0.2,37.7 0.2,43.8 42.6,43.8 42.6,37.7 20.6,23.6 	"/>
	<polygon class="st1" points="42.6,37.7 42.6,43.8 0.2,43.8 0.2,37.7 20.6,23.6 	"/>
	<polygon class="st2" points="1.5,37.9 8.1,37.9 5.4,35.2 	"/>
	<polygon class="st1" points="1.5,37.9 8.1,37.9 5.4,35.2 	"/>
	<polygon class="st2" points="41.3,37.9 34.6,37.9 37.3,35.2 	"/>
	<polygon class="st1" points="41.3,37.9 34.6,37.9 37.3,35.2 	"/>
	<g transform="translate(0 .339)">
		<path class="st0" d="M0.5,21.2C0.5,9.7,9.8,0.4,21.4,0.4s20.9,9.3,20.9,20.9c0,11.5-9.3,20.8-20.8,20.9
			C9.9,42.1,0.5,32.8,0.5,21.2L0.5,21.2C0.5,21.2,0.5,21.2,0.5,21.2"/>
		<path class="st3" d="M0.5,21.2C0.5,9.7,9.8,0.4,21.4,0.4s20.9,9.3,20.9,20.9c0,11.5-9.3,20.8-20.8,20.9
			C9.9,42.1,0.5,32.8,0.5,21.2L0.5,21.2C0.5,21.2,0.5,21.2,0.5,21.2z"/>
		<path class="st4" d="M1.3,21.2c0-11.1,9-20.1,20.1-20.1s20.1,9,20.1,20.1c0,11.1-9,20.1-20.1,20.1S1.3,32.3,1.3,21.2"/>
		<path class="st3" d="M1.3,21.2c0-11.1,9-20.1,20.1-20.1s20.1,9,20.1,20.1c0,11.1-9,20.1-20.1,20.1S1.3,32.3,1.3,21.2z"/>
		<path class="st0" d="M6.1,21.2c0-8.5,6.9-15.3,15.3-15.3s15.3,6.9,15.3,15.3s-6.9,15.3-15.3,15.3S6.1,29.7,6.1,21.2"/>
		<path class="st3" d="M6.1,21.2c0-8.5,6.9-15.3,15.3-15.3s15.3,6.9,15.3,15.3s-6.9,15.3-15.3,15.3S6.1,29.7,6.1,21.2z"/>
		<path class="st5" d="M6.8,21.2c0-8,6.5-14.6,14.6-14.6c8,0,14.6,6.5,14.6,14.6c0,8-6.5,14.6-14.6,14.6
			C13.3,35.8,6.8,29.3,6.8,21.2"/>
		<path class="st6" d="M6.8,21.2c0-8,6.5-14.6,14.6-14.6c8,0,14.6,6.5,14.6,14.6c0,8-6.5,14.6-14.6,14.6
			C13.3,35.8,6.8,29.3,6.8,21.2z"/>
		<path class="st0" d="M3.5,27.8c0.1-0.2,0.3-0.3,0.4-0.4c0.2-0.1,0.4-0.1,0.5-0.1c0.1,0,0.2,0.1,0.3,0.2c0-0.2,0-0.4,0.1-0.5
			c0.1-0.2,0.2-0.3,0.4-0.3c0.2-0.1,0.4-0.1,0.6-0.1c0.3,0,0.5,0.2,0.7,0.4c0.1,0.1,0.2,0.3,0.2,0.4L7.5,29l-3.2,1.4l-0.7-1.6
			C3.4,28.5,3.4,28.1,3.5,27.8L3.5,27.8z M5.8,29l0.9-0.4l-0.4-0.8c0-0.1-0.1-0.2-0.2-0.3c-0.1-0.1-0.3-0.1-0.5,0
			c-0.2,0.1-0.3,0.2-0.3,0.4c0,0.1,0,0.2,0.1,0.4L5.8,29L5.8,29z M4.5,29.5l0.7-0.3l-0.4-0.8c0-0.1-0.1-0.2-0.2-0.3
			c-0.1-0.1-0.2-0.1-0.3,0c-0.1,0-0.2,0.2-0.2,0.3c0,0.1,0.1,0.3,0.1,0.4L4.5,29.5z"/>
		<polygon class="st0" points="2.6,26.4 2.5,25.7 5.3,25 4.9,23.3 5.6,23.1 6.1,25.6 		"/>
		<path class="st0" d="M2,21.2L2,20.3l3.6-1.1l-0.1,0.8l-0.7,0.2l-0.1,1.3l0.7,0.3l0,0.8L2,21.2L2,21.2z M4.2,21.3l0-0.9l-1.4,0.4
			L4.2,21.3z M2.7,17.6c-0.4-0.8-0.1-1.8,0.7-2.3c0,0,0,0,0.1,0c0.2-0.1,0.5-0.1,0.7-0.1L3.9,16c-0.1,0-0.3,0-0.4,0.1
			c-0.2,0.1-0.3,0.3-0.4,0.5c-0.1,0.2,0,0.5,0.2,0.7c0.2,0.2,0.5,0.4,0.8,0.5c0.3,0.1,0.6,0.1,0.9,0c0.2-0.1,0.4-0.3,0.4-0.5
			c0.1-0.2,0-0.5-0.1-0.6c-0.1-0.1-0.2-0.2-0.4-0.3l0.2-0.7c0.3,0.1,0.6,0.4,0.8,0.7c0.2,0.3,0.2,0.7,0.1,1.1
			c-0.1,0.4-0.4,0.8-0.8,1c-0.4,0.2-1,0.2-1.4,0.1C3.4,18.4,2.9,18.1,2.7,17.6L2.7,17.6z"/>
		<polygon class="st0" points="3.5,13.6 3.8,13 5.1,13.6 4.4,11.8 4.8,10.9 5.5,12.8 8.1,12.4 7.7,13.2 5.8,13.5 6,14 7,14.5 
			6.7,15.2 		"/>
		<path class="st0" d="M7.8,7.8C8,7.8,8.2,7.9,8.3,8c0.1,0.1,0.3,0.3,0.3,0.5c0,0.1,0,0.2,0,0.3c0.2-0.1,0.3-0.1,0.5-0.1
			c0.2,0,0.4,0.1,0.5,0.2c0.2,0.1,0.3,0.3,0.3,0.5c0.1,0.3,0,0.6-0.1,0.8c-0.1,0.1-0.2,0.3-0.3,0.4l-1.1,1.2L5.8,9.6l1.1-1.3
			C7.2,8,7.5,7.8,7.8,7.8L7.8,7.8z M7.8,10.3l0.7,0.6l0.6-0.7c0.1-0.1,0.2-0.2,0.2-0.3c0-0.2,0-0.4-0.2-0.5C9,9.4,8.8,9.3,8.6,9.4
			C8.5,9.5,8.4,9.6,8.4,9.7L7.8,10.3L7.8,10.3z M6.7,9.4l0.6,0.5l0.6-0.7C8,9.2,8.1,9.1,8.1,8.9c0-0.1,0-0.2-0.1-0.3
			C7.9,8.5,7.7,8.5,7.6,8.5C7.5,8.6,7.4,8.7,7.3,8.8L6.7,9.4L6.7,9.4z M8.9,6.4l0.6-0.5l1.3,1.7C10.9,7.8,11,7.9,11.2,8
			c0.2,0.1,0.5,0.1,0.7-0.1c0.2-0.1,0.3-0.4,0.3-0.6c0-0.2-0.1-0.3-0.3-0.5l-1.3-1.7l0.6-0.5l1.3,1.7c0.2,0.2,0.3,0.5,0.4,0.8
			c0,0.5-0.2,1-0.7,1.2c-0.4,0.3-0.9,0.5-1.4,0.3c-0.3-0.1-0.5-0.3-0.7-0.6L8.9,6.4L8.9,6.4z M15.2,2.9c0.1,0,0.3,0,0.4,0.1
			c0.1,0.1,0.2,0.1,0.3,0.2c0.1,0.1,0.2,0.2,0.2,0.3c0.1,0.2,0.1,0.3,0.1,0.5c0,0.2-0.1,0.4-0.3,0.5c0.2,0,0.3,0,0.4,0.1
			c0.1,0.1,0.2,0.3,0.3,0.5l0.1,0.2c0,0.1,0.1,0.2,0.1,0.3c0,0.1,0.1,0.1,0.2,0.1L17,6l-0.8,0.3l-0.1-0.2C16,6,16,5.9,15.9,5.8
			l-0.1-0.3c0-0.2-0.1-0.3-0.3-0.4c-0.2,0-0.3,0-0.5,0l-0.7,0.3l0.5,1.3L14.2,7l-1.2-3.3l1.6-0.6C14.8,3,15,2.9,15.2,2.9L15.2,2.9z
			 M13.8,4l0.3,0.9L15,4.6c0.1,0,0.2-0.1,0.3-0.2c0.1-0.1,0.1-0.3,0.1-0.5c0-0.2-0.2-0.3-0.3-0.3c-0.1,0-0.2,0-0.3,0.1L13.8,4
			L13.8,4z"/>
		<polygon class="st0" points="17.2,2.2 18,2.1 19.7,4.4 19.4,1.9 20.1,1.8 20.5,5.4 19.8,5.5 18,3.1 18.3,5.6 17.6,5.7 		"/>
		<path class="st0" d="M25.4,2.3c0.1,0.1,0.2,0.2,0.3,0.3c0.1,0.1,0.1,0.2,0.1,0.3c0,0.1,0,0.3,0,0.4c0,0.2-0.1,0.3-0.2,0.5
			c-0.1,0.1-0.3,0.2-0.5,0.3c0.1,0.1,0.2,0.2,0.3,0.3c0,0.2,0,0.4,0,0.6l0,0.2c0,0.1,0,0.2,0,0.3c0,0.1,0,0.2,0.1,0.2v0.1l-0.8-0.1
			V5.5c0-0.1,0-0.2,0-0.3l0-0.3c0-0.2,0-0.3-0.1-0.5c-0.1-0.1-0.2-0.2-0.4-0.2l-0.8-0.1l-0.3,1.4l-0.7-0.1l0.6-3.5l1.7,0.3
			C25,2.2,25.2,2.2,25.4,2.3L25.4,2.3z M23.7,2.6l-0.1,0.9l0.8,0.1c0.1,0,0.3,0,0.4,0c0.2,0,0.3-0.2,0.3-0.4c0-0.2,0-0.4-0.1-0.5
			c-0.1-0.1-0.2-0.1-0.3-0.1L23.7,2.6L23.7,2.6z M28.9,6.9c-0.4,0.1-0.9,0.1-1.2-0.1c-0.4-0.2-0.7-0.5-0.9-0.9
			c-0.2-0.5-0.1-1.1,0.2-1.6c0.2-0.5,0.6-0.9,1.1-1.1c0.4-0.1,0.8-0.1,1.2,0.2c0.4,0.2,0.7,0.5,0.9,0.9c0.2,0.5,0.1,1.1-0.2,1.6
			C29.9,6.4,29.4,6.8,28.9,6.9L28.9,6.9z M28.8,6.2c0.3-0.2,0.5-0.4,0.6-0.7c0.2-0.3,0.2-0.6,0.2-0.9c-0.1-0.3-0.2-0.5-0.5-0.6
			c-0.2-0.1-0.5-0.1-0.8,0c-0.3,0.2-0.5,0.4-0.6,0.7c-0.2,0.3-0.2,0.6-0.2,1c0.1,0.3,0.3,0.5,0.5,0.6C28.2,6.4,28.5,6.4,28.8,6.2
			L28.8,6.2z"/>
		<polygon class="st0" points="33.7,6.2 34.3,6.7 31.2,8.8 30.6,8.3 31.9,4.8 32.5,5.3 31.5,7.9 		"/>
		<polygon class="st0" points="36.4,9.9 35.2,8.5 34.6,9 35.8,10.3 35.3,10.7 34.1,9.4 33.5,10 34.8,11.5 34.3,11.9 32.5,9.9 
			35.1,7.5 36.9,9.5 		"/>
		<path class="st0" d="M39,13.2c0,0.1,0,0.3-0.1,0.4c0,0.1-0.1,0.2-0.2,0.3c-0.1,0.1-0.2,0.2-0.3,0.2c-0.2,0.1-0.3,0.1-0.5,0.1
			c-0.2,0-0.4-0.1-0.5-0.2c0,0.2,0,0.3-0.1,0.4c-0.1,0.1-0.3,0.3-0.5,0.3l-0.2,0.1c-0.1,0-0.2,0.1-0.3,0.2c-0.1,0.1-0.1,0.1-0.1,0.2
			l-0.1,0l-0.4-0.7l0.2-0.1c0.1-0.1,0.2-0.1,0.3-0.2l0.3-0.2c0.2-0.1,0.3-0.2,0.4-0.3c0-0.2,0-0.3-0.1-0.5l-0.3-0.7l-1.3,0.6
			l-0.3-0.7L38,11l0.8,1.6C38.9,12.8,38.9,13,39,13.2L39,13.2z M37.8,12l-0.9,0.4l0.4,0.8c0.1,0.1,0.1,0.2,0.2,0.3
			c0.1,0.1,0.3,0.1,0.5,0c0.2-0.1,0.3-0.2,0.3-0.4c0-0.1,0-0.2-0.1-0.4L37.8,12L37.8,12z M37.6,16.2c-0.1,0-0.2,0.1-0.3,0.2
			c-0.1,0.2-0.1,0.4-0.1,0.7c0,0.1,0.1,0.3,0.2,0.4c0.1,0.2,0.3,0.3,0.5,0.2c0.1,0,0.2-0.1,0.2-0.2c0-0.2,0.1-0.3,0-0.5v-0.4
			c0-0.3,0-0.5,0.1-0.8c0.1-0.3,0.4-0.5,0.7-0.5c0.3-0.1,0.6,0,0.9,0.1c0.3,0.2,0.5,0.6,0.6,0.9c0.1,0.3,0.1,0.7-0.1,1
			c-0.1,0.3-0.4,0.5-0.8,0.6l-0.2-0.7c0.2,0,0.3-0.2,0.4-0.4c0-0.1,0-0.3,0-0.4c0-0.2-0.1-0.3-0.2-0.4c-0.1-0.1-0.2-0.1-0.4-0.1
			c-0.1,0-0.2,0.1-0.2,0.2c0,0.2,0,0.3,0,0.5v0.6c0,0.2,0,0.4-0.1,0.7c-0.1,0.3-0.3,0.5-0.6,0.5c-0.3,0.1-0.6,0-0.9-0.2
			c-0.3-0.2-0.5-0.6-0.6-0.9c-0.1-0.4-0.1-0.8,0-1.1c0.1-0.3,0.4-0.5,0.8-0.6L37.6,16.2L37.6,16.2z"/>
		<polygon class="st0" points="40.8,21.9 40.6,24.4 40,24.4 40.1,22.6 39.3,22.5 39.2,24.1 38.6,24.1 38.7,22.5 37.2,22.4 
			37.3,21.7 		"/>
		<polygon class="st0" points="37.7,24.1 37.6,24.8 36.9,24.7 37,24 		"/>
		<path class="st0" d="M39.6,27c0.3,0.9-0.1,1.8-1,2.2c0,0,0,0,0,0h0c-0.2,0.1-0.5,0.1-0.7,0l0.3-0.7c0.1,0,0.3,0,0.4,0
			c0.2-0.1,0.4-0.3,0.4-0.5c0.1-0.2,0.1-0.5-0.1-0.7c-0.2-0.3-0.5-0.5-0.8-0.6c-0.3-0.1-0.6-0.2-0.9-0.1c-0.2,0.1-0.4,0.2-0.5,0.5
			c-0.1,0.2-0.1,0.4,0,0.6c0.1,0.1,0.2,0.2,0.3,0.3l-0.3,0.7c-0.3-0.2-0.6-0.5-0.7-0.8c-0.1-0.4-0.1-0.7,0-1.1
			c0.1-0.4,0.5-0.8,0.9-0.9C38,25.7,39,26.1,39.6,27L39.6,27z"/>
		<polygon class="st0" points="36,29.1 35.6,29.7 35,29.4 35.4,28.7 		"/>
		<path class="st0" d="M8.2,35.7h0.5v-3H8.3c0,0.3-0.3,0.5-0.8,0.5v0.3h0.7L8.2,35.7L8.2,35.7z M10,33.6c0-0.3,0.1-0.4,0.2-0.4
			c0.2,0,0.3,0.1,0.3,0.4s-0.1,0.4-0.2,0.4S10,33.8,10,33.6L10,33.6z M10.3,34.3c0.2,0,0.3,0.2,0.3,0.5s0,0.5-0.3,0.5
			c-0.2,0-0.3-0.1-0.3-0.5S10,34.3,10.3,34.3L10.3,34.3z M9.9,34.1c-0.3,0.1-0.4,0.3-0.4,0.8c0,0.6,0.3,0.9,0.8,0.9
			c0.5,0,0.8-0.3,0.8-0.9c0-0.4-0.1-0.7-0.4-0.7c0.3-0.1,0.4-0.3,0.4-0.6c0-0.4-0.2-0.7-0.6-0.7c-0.1,0-0.1,0-0.2,0
			c-0.4,0-0.7,0.2-0.7,0.6c0,0.1,0,0.1,0,0.2C9.5,33.8,9.7,34.1,9.9,34.1L9.9,34.1z M32,35.7h0.6c0.1-0.9,0.3-1.7,0.7-2.5v-0.4h-1.6
			v0.5h1.1C32.3,34.1,32.1,34.9,32,35.7L32,35.7z M33.6,34.8L33.6,34.8c0,0.7,0.3,1,0.8,1s0.8-0.3,0.8-1.1c0-0.7-0.3-1-0.7-1
			c-0.2,0-0.3,0.1-0.4,0.2l0-0.6h1v-0.5h-1.4l-0.1,1.5h0.5c0-0.1,0.1-0.2,0.3-0.2h0c0.2,0,0.3,0.2,0.3,0.6s-0.1,0.7-0.3,0.7
			s-0.3-0.2-0.3-0.5v-0.1H33.6z"/>
		<defs>
			<filter id="Adobe_OpacityMaskFilter" filterUnits="userSpaceOnUse" x="0.2" y="38.3" width="42.3" height="6">
				<feColorMatrix  type="matrix" values="1 0 0 0 0  0 1 0 0 0  0 0 1 0 0  0 0 0 1 0"/>
			</filter>
		</defs>
		<mask maskUnits="userSpaceOnUse" x="0.2" y="38.3" width="42.3" height="6" id="blackburn-b_1_">
			<g class="st7">
				<polygon id="blackburn-a_1_" class="st5" points="0,44.5 42.8,44.5 42.8,0.2 0,0.2 				"/>
			</g>
		</mask>
		<polygon class="st8" points="0.2,44.3 42.6,44.3 42.6,38.3 0.2,38.3 		"/>
		<defs>
			<filter id="Adobe_OpacityMaskFilter_1_" filterUnits="userSpaceOnUse" x="0" y="38.1" width="42.8" height="6.5">
				<feColorMatrix  type="matrix" values="1 0 0 0 0  0 1 0 0 0  0 0 1 0 0  0 0 0 1 0"/>
			</filter>
		</defs>
		<mask maskUnits="userSpaceOnUse" x="0" y="38.1" width="42.8" height="6.5" id="blackburn-b_2_">
			<g class="st9">
				<polygon id="blackburn-a_2_" class="st5" points="0,44.5 42.8,44.5 42.8,0.2 0,0.2 				"/>
			</g>
		</mask>
		<polygon class="st10" points="0.2,44.3 42.6,44.3 42.6,38.3 0.2,38.3 		"/>
		<defs>
			<filter id="Adobe_OpacityMaskFilter_2_" filterUnits="userSpaceOnUse" x="1" y="39.1" width="40.8" height="4.4">
				<feColorMatrix  type="matrix" values="1 0 0 0 0  0 1 0 0 0  0 0 1 0 0  0 0 0 1 0"/>
			</filter>
		</defs>
		<mask maskUnits="userSpaceOnUse" x="1" y="39.1" width="40.8" height="4.4" id="blackburn-b_3_">
			<g class="st11">
				<polygon id="blackburn-a_3_" class="st5" points="0,44.5 42.8,44.5 42.8,0.2 0,0.2 				"/>
			</g>
		</mask>
		<polygon class="st12" points="1,43.5 41.8,43.5 41.8,39.1 1,39.1 		"/>
		<defs>
			<filter id="Adobe_OpacityMaskFilter_3_" filterUnits="userSpaceOnUse" x="0.7" y="38.8" width="41.3" height="4.9">
				<feColorMatrix  type="matrix" values="1 0 0 0 0  0 1 0 0 0  0 0 1 0 0  0 0 0 1 0"/>
			</filter>
		</defs>
		<mask maskUnits="userSpaceOnUse" x="0.7" y="38.8" width="41.3" height="4.9" id="blackburn-b_4_">
			<g class="st13">
				<polygon id="blackburn-a_4_" class="st5" points="0,44.5 42.8,44.5 42.8,0.2 0,0.2 				"/>
			</g>
		</mask>
		<polygon class="st14" points="1,43.5 41.8,43.5 41.8,39.1 1,39.1 		"/>
		<defs>
			<filter id="Adobe_OpacityMaskFilter_4_" filterUnits="userSpaceOnUse" x="2.2" y="39.9" width="5.9" height="2.6">
				<feColorMatrix  type="matrix" values="1 0 0 0 0  0 1 0 0 0  0 0 1 0 0  0 0 0 1 0"/>
			</filter>
		</defs>
		<mask maskUnits="userSpaceOnUse" x="2.2" y="39.9" width="5.9" height="2.6" id="blackburn-b_5_">
			<g class="st15">
				<polygon id="blackburn-a_5_" class="st5" points="0,44.5 42.8,44.5 42.8,0.2 0,0.2 				"/>
			</g>
		</mask>
		<path class="st16" d="M3.2,41.4l0.5-1.1l0.5,1.1H3.2z M2.2,42.5h0.5L3,41.7h1.3l0.4,0.8h0.5l-1.3-2.6H3.4L2.2,42.5z M6,40.2h0.8
			c0.5,0,0.8,0.1,0.8,0.4c0,0.3-0.2,0.5-0.8,0.5H6L6,40.2L6,40.2z M5.6,39.9v2.6H6v-1.1h0.7c0.6,0,0.7,0,0.7,0.4l0,0.3
			c0,0.1,0,0.2,0.1,0.4h0.5v-0.1C8,42.4,8,42.3,8,42.1l0-0.4c0-0.2-0.1-0.4-0.3-0.5c0,0,0,0,0,0C7.8,41.2,8,40.9,8,40.6
			c0-0.3-0.2-0.5-0.4-0.6c-0.2-0.1-0.5-0.1-0.7-0.1H5.6z"/>
		<defs>
			<filter id="Adobe_OpacityMaskFilter_5_" filterUnits="userSpaceOnUse" x="8.3" y="39.9" width="2.6" height="2.6">
				<feColorMatrix  type="matrix" values="1 0 0 0 0  0 1 0 0 0  0 0 1 0 0  0 0 0 1 0"/>
			</filter>
		</defs>
		<mask maskUnits="userSpaceOnUse" x="8.3" y="39.9" width="2.6" height="2.6" id="blackburn-b_6_">
			<g class="st17">
				<polygon id="blackburn-a_6_" class="st5" points="0,44.5 42.8,44.5 42.8,0.2 0,0.2 				"/>
			</g>
		</mask>
		<polygon class="st18" points="9.4,42.5 9.8,42.5 9.8,40.2 10.9,40.2 10.9,39.9 8.3,39.9 8.3,40.2 9.4,40.2 		"/>
		<defs>
			<filter id="Adobe_OpacityMaskFilter_6_" filterUnits="userSpaceOnUse" x="11.3" y="39.9" width="2.4" height="2.6">
				<feColorMatrix  type="matrix" values="1 0 0 0 0  0 1 0 0 0  0 0 1 0 0  0 0 0 1 0"/>
			</filter>
		</defs>
		<mask maskUnits="userSpaceOnUse" x="11.3" y="39.9" width="2.4" height="2.6" id="blackburn-b_7_">
			<g class="st19">
				<polygon id="blackburn-a_7_" class="st5" points="0,44.5 42.8,44.5 42.8,0.2 0,0.2 				"/>
			</g>
		</mask>
		<polygon class="st20" points="11.3,42.5 13.7,42.5 13.7,42.2 11.8,42.2 11.8,41.3 13.5,41.3 13.5,41 11.8,41 11.8,40.3 13.7,40.3 
			13.7,39.9 11.3,39.9 		"/>
		<defs>
			<filter id="Adobe_OpacityMaskFilter_7_" filterUnits="userSpaceOnUse" x="15.6" y="39.9" width="2.4" height="2.6">
				<feColorMatrix  type="matrix" values="1 0 0 0 0  0 1 0 0 0  0 0 1 0 0  0 0 0 1 0"/>
			</filter>
		</defs>
		<mask maskUnits="userSpaceOnUse" x="15.6" y="39.9" width="2.4" height="2.6" id="blackburn-b_8_">
			<g class="st21">
				<polygon id="blackburn-a_8_" class="st5" points="0,44.5 42.8,44.5 42.8,0.2 0,0.2 				"/>
			</g>
		</mask>
		<polygon class="st22" points="15.6,42.5 18,42.5 18,42.2 16,42.2 16,41.3 17.8,41.3 17.8,41 16,41 16,40.3 18,40.3 18,39.9 
			15.6,39.9 		"/>
		<defs>
			<filter id="Adobe_OpacityMaskFilter_8_" filterUnits="userSpaceOnUse" x="18.2" y="39.9" width="2.6" height="2.6">
				<feColorMatrix  type="matrix" values="1 0 0 0 0  0 1 0 0 0  0 0 1 0 0  0 0 0 1 0"/>
			</filter>
		</defs>
		<mask maskUnits="userSpaceOnUse" x="18.2" y="39.9" width="2.6" height="2.6" id="blackburn-b_9_">
			<g class="st23">
				<polygon id="blackburn-a_9_" class="st5" points="0,44.5 42.8,44.5 42.8,0.2 0,0.2 				"/>
			</g>
		</mask>
		<polygon class="st24" points="19.3,42.5 19.8,42.5 19.8,40.2 20.8,40.2 20.8,39.9 18.2,39.9 18.2,40.2 19.3,40.2 		"/>
		<defs>
			<filter id="Adobe_OpacityMaskFilter_9_" filterUnits="userSpaceOnUse" x="22.5" y="39.9" width="2.1" height="2.6">
				<feColorMatrix  type="matrix" values="1 0 0 0 0  0 1 0 0 0  0 0 1 0 0  0 0 0 1 0"/>
			</filter>
		</defs>
		<mask maskUnits="userSpaceOnUse" x="22.5" y="39.9" width="2.1" height="2.6" id="blackburn-b_10_">
			<g class="st25">
				<polygon id="blackburn-a_10_" class="st5" points="0,44.5 42.8,44.5 42.8,0.2 0,0.2 				"/>
			</g>
		</mask>
		<polygon class="st26" points="22.5,42.5 24.6,42.5 24.6,42.2 23,42.2 23,39.9 22.5,39.9 		"/>
		<defs>
			<filter id="Adobe_OpacityMaskFilter_10_" filterUnits="userSpaceOnUse" x="24.6" y="39.9" width="12.7" height="2.7">
				<feColorMatrix  type="matrix" values="1 0 0 0 0  0 1 0 0 0  0 0 1 0 0  0 0 0 1 0"/>
			</filter>
		</defs>
		<mask maskUnits="userSpaceOnUse" x="24.6" y="39.9" width="12.7" height="2.7" id="blackburn-b_11_">
			<g class="st27">
				<polygon id="blackburn-a_11_" class="st5" points="0,44.5 42.8,44.5 42.8,0.2 0,0.2 				"/>
			</g>
		</mask>
		<path class="st28" d="M25.6,41.4l0.5-1.1l0.5,1.1H25.6z M24.6,42.5h0.5l0.4-0.8h1.3l0.4,0.8h0.5l-1.2-2.6h-0.5L24.6,42.5
			L24.6,42.5z M28,42.5h1.4c0.7,0,1.1-0.3,1.1-0.8c0-0.3-0.2-0.6-0.6-0.6c0.3,0,0.5-0.3,0.5-0.6c0-0.4-0.3-0.6-1-0.6H28V42.5z
			 M28.4,41v-0.8h0.8c0.4,0,0.6,0.1,0.6,0.4c0,0.3-0.2,0.4-0.7,0.4L28.4,41z M28.4,42.2v-0.9h0.9c0.5,0,0.8,0.1,0.8,0.4
			c0,0.3-0.2,0.5-0.7,0.5H28.4z M31.4,41.2c0-0.6,0.4-1.2,1-1.2s1.2,0.4,1.2,1c0,0.6-0.4,1.2-1,1.2c0,0,0,0,0,0h-0.1
			c-0.6,0.1-1.1-0.3-1.1-0.9C31.4,41.3,31.4,41.3,31.4,41.2L31.4,41.2z M31,41.2c0,0.9,0.6,1.4,1.6,1.4c1,0,1.6-0.5,1.6-1.4
			c0-0.8-0.6-1.4-1.6-1.4C31.6,39.9,31,40.4,31,41.2L31,41.2z M35.2,40.2H36c0.5,0,0.8,0.1,0.8,0.4c0,0.3-0.2,0.5-0.8,0.5h-0.8V40.2
			z M34.7,39.9v2.6h0.5v-1.1h0.7c0.6,0,0.7,0,0.7,0.4l0,0.3c0,0.1,0,0.2,0.1,0.4h0.5v-0.1c-0.1,0-0.1-0.1-0.2-0.3l0-0.4
			c0-0.2-0.1-0.4-0.3-0.5c0,0,0,0,0,0c0.3-0.1,0.5-0.3,0.5-0.6c0-0.3-0.2-0.5-0.4-0.6c-0.2-0.1-0.5-0.1-0.7-0.1L34.7,39.9z"/>
		<defs>
			<filter id="Adobe_OpacityMaskFilter_11_" filterUnits="userSpaceOnUse" x="37.8" y="39.9" width="2.4" height="2.6">
				<feColorMatrix  type="matrix" values="1 0 0 0 0  0 1 0 0 0  0 0 1 0 0  0 0 0 1 0"/>
			</filter>
		</defs>
		<mask maskUnits="userSpaceOnUse" x="37.8" y="39.9" width="2.4" height="2.6" id="blackburn-b_12_">
			<g class="st29">
				<polygon id="blackburn-a_12_" class="st5" points="0,44.5 42.8,44.5 42.8,0.2 0,0.2 				"/>
			</g>
		</mask>
		<polygon class="st30" points="37.8,42.5 40.3,42.5 40.3,42.2 38.3,42.2 38.3,41.3 40.1,41.3 40.1,41 38.3,41 38.3,40.3 40.2,40.3 
			40.2,39.9 37.8,39.9 		"/>
		<defs>
			<filter id="Adobe_OpacityMaskFilter_12_" filterUnits="userSpaceOnUse" x="15.3" y="18.9" width="18.7" height="16.1">
				<feColorMatrix  type="matrix" values="1 0 0 0 0  0 1 0 0 0  0 0 1 0 0  0 0 0 1 0"/>
			</filter>
		</defs>
		<mask maskUnits="userSpaceOnUse" x="15.3" y="18.9" width="18.7" height="16.1" id="blackburn-b_13_">
			<g class="st31">
				<polygon id="blackburn-a_13_" class="st5" points="0,44.5 42.8,44.5 42.8,0.2 0,0.2 				"/>
			</g>
		</mask>
		<path class="st32" d="M23,24.2c0.7,1.6,1.2,3.4,2.2,4.9c0.2-1.2-0.4-2.5-0.5-3.7c-0.2-3.9,2.9-3.5,4.3-6.2
			c1.5,1.2,2.7-0.3,3.6-0.3c0.3,0,0.6,0.3,1,0.3c0,1.1-0.2,2.1-0.7,3.1h0.6c1.9,1.1-0.8,2.5-1.6,3.1c0.2,0.4,1,0.2,1,0.6
			c0,0.4-0.4,0.7-0.7,1c-3.4,3.2-4.9,0-5.9,1.5c-0.2,0.3-0.2,0.8-0.4,1.1c0.2,1.5,0.2,3.1,0.2,4.6c-0.8,0-1.6,0.6-2.3,0.8
			c0.2-0.4,0-2.4-0.1-2.9c0.3,0,0.7,0,1-0.1c0.2-0.9,0.1-1.8-0.2-2.6c-0.5,0.4-0.6,0.8-1.1,1.2c0.1,0.8-0.1,1.6-0.6,2.3
			c-0.1-0.5-0.5-0.8-0.5-1.3c-0.1,1.2-0.8,2.3-2,2.8c-0.3-0.2-0.6-0.5-0.8-0.8v-0.1c-0.7,0.2-1.4,0.5-1.9,0.9
			c-0.8-1.2-0.7-1.9-0.8-3.2c0-0.3-1-0.2-1.2-0.2c0.7-0.6,0.7-0.9,1.7-1.4c-0.4-0.2-0.6-0.7-0.9-1.1c3.7,0,3-2.5,6.9-1.3
			c-0.4-0.5-0.9-0.9-1.5-1.1c0.4-0.4,1-0.4,0.6-1.1L23,24.2L23,24.2z"/>
		<defs>
			<filter id="Adobe_OpacityMaskFilter_13_" filterUnits="userSpaceOnUse" x="15.1" y="18.6" width="19.2" height="16.6">
				<feColorMatrix  type="matrix" values="1 0 0 0 0  0 1 0 0 0  0 0 1 0 0  0 0 0 1 0"/>
			</filter>
		</defs>
		<mask maskUnits="userSpaceOnUse" x="15.1" y="18.6" width="19.2" height="16.6" id="blackburn-b_14_">
			<g class="st33">
				<polygon id="blackburn-a_14_" class="st5" points="0,44.5 42.8,44.5 42.8,0.2 0,0.2 				"/>
			</g>
		</mask>
		<path class="st34" d="M23,24.2c0.7,1.6,1.2,3.4,2.2,4.9c0.2-1.2-0.4-2.5-0.5-3.7c-0.2-3.9,2.9-3.5,4.3-6.2
			c1.5,1.2,2.7-0.3,3.6-0.3c0.3,0,0.6,0.3,1,0.3c0,1.1-0.2,2.1-0.7,3.1h0.6c1.9,1.1-0.8,2.5-1.6,3.1c0.2,0.4,1,0.2,1,0.6
			c0,0.4-0.4,0.7-0.7,1c-3.4,3.2-4.9,0-5.9,1.5c-0.2,0.3-0.2,0.8-0.4,1.1c0.2,1.5,0.2,3.1,0.2,4.6c-0.8,0-1.6,0.6-2.3,0.8
			c0.2-0.4,0-2.4-0.1-2.9c0.3,0,0.7,0,1-0.1c0.2-0.9,0.1-1.8-0.2-2.6c-0.5,0.4-0.6,0.8-1.1,1.2c0.1,0.8-0.1,1.6-0.6,2.3
			c-0.1-0.5-0.5-0.8-0.5-1.3c-0.1,1.2-0.8,2.3-2,2.8c-0.3-0.2-0.6-0.5-0.8-0.8v-0.1c-0.7,0.2-1.4,0.5-1.9,0.9
			c-0.8-1.2-0.7-1.9-0.8-3.2c0-0.3-1-0.2-1.2-0.2c0.7-0.6,0.7-0.9,1.7-1.4c-0.4-0.2-0.6-0.7-0.9-1.1c3.7,0,3-2.5,6.9-1.3
			c-0.4-0.5-0.9-0.9-1.5-1.1c0.4-0.4,1-0.4,0.6-1.1L23,24.2L23,24.2z"/>
		<defs>
			<filter id="Adobe_OpacityMaskFilter_14_" filterUnits="userSpaceOnUse" x="11.1" y="21.9" width="10" height="6.5">
				<feColorMatrix  type="matrix" values="1 0 0 0 0  0 1 0 0 0  0 0 1 0 0  0 0 0 1 0"/>
			</filter>
		</defs>
		<mask maskUnits="userSpaceOnUse" x="11.1" y="21.9" width="10" height="6.5" id="blackburn-b_15_">
			<g class="st35">
				<polygon id="blackburn-a_15_" class="st5" points="0,44.5 42.8,44.5 42.8,0.2 0,0.2 				"/>
			</g>
		</mask>
		<path class="st36" d="M21.1,25.3c-0.3-0.5-0.8-0.7-1.4-0.6c-0.9,0.3-4.3-2.7-4.5-2.7c-1.3,1.9-3.3,1.3-4.2,1.9
			c0.6,0.8,1.3,1.8,0.6,2.5c0.6,0.3,1.8,0.3,1.6,2c1.2,0,5.6-0.5,6.2-1.6C19.9,26.1,21.1,26.1,21.1,25.3L21.1,25.3z"/>
		<defs>
			<filter id="Adobe_OpacityMaskFilter_15_" filterUnits="userSpaceOnUse" x="10.8" y="21.6" width="10.5" height="7">
				<feColorMatrix  type="matrix" values="1 0 0 0 0  0 1 0 0 0  0 0 1 0 0  0 0 0 1 0"/>
			</filter>
		</defs>
		<mask maskUnits="userSpaceOnUse" x="10.8" y="21.6" width="10.5" height="7" id="blackburn-b_16_">
			<g class="st37">
				<polygon id="blackburn-a_16_" class="st5" points="0,44.5 42.8,44.5 42.8,0.2 0,0.2 				"/>
			</g>
		</mask>
		<path class="st38" d="M21.1,25.3c-0.3-0.5-0.8-0.7-1.4-0.6c-0.9,0.3-4.3-2.7-4.5-2.7c-1.3,1.9-3.3,1.3-4.2,1.9
			c0.6,0.8,1.3,1.8,0.6,2.5c0.6,0.3,1.8,0.3,1.6,2c1.2,0,5.6-0.5,6.2-1.6C19.9,26.1,21.1,26.1,21.1,25.3L21.1,25.3z"/>
		<defs>
			<filter id="Adobe_OpacityMaskFilter_16_" filterUnits="userSpaceOnUse" x="15" y="19.9" width="14" height="6.3">
				<feColorMatrix  type="matrix" values="1 0 0 0 0  0 1 0 0 0  0 0 1 0 0  0 0 0 1 0"/>
			</filter>
		</defs>
		<mask maskUnits="userSpaceOnUse" x="15" y="19.9" width="14" height="6.3" id="blackburn-b_17_">
			<g class="st39">
				<polygon id="blackburn-a_17_" class="st5" points="0,44.5 42.8,44.5 42.8,0.2 0,0.2 				"/>
			</g>
		</mask>
		<path class="st40" d="M23.9,19.9C24.4,20.6,28,22,29,22c-1.7,0.7-3.6,0.9-5.4,0.7c-0.1,0,0.1,2.3-2.9,3.6c0,0,0.3-2-0.3-2.9
			c-1.5,2.4-5.3,2.4-5.3,2.4c2.9-1.7,2.8-2.9,2.9-3.3C19.8,21.3,21.8,20.5,23.9,19.9L23.9,19.9z"/>
		<defs>
			<filter id="Adobe_OpacityMaskFilter_17_" filterUnits="userSpaceOnUse" x="14" y="19.3" width="15" height="7.3">
				<feColorMatrix  type="matrix" values="1 0 0 0 0  0 1 0 0 0  0 0 1 0 0  0 0 0 1 0"/>
			</filter>
		</defs>
		<mask maskUnits="userSpaceOnUse" x="14" y="19.3" width="15" height="7.3" id="blackburn-b_18_">
			<g class="st41">
				<polygon id="blackburn-a_18_" class="st5" points="0,44.5 42.8,44.5 42.8,0.2 0,0.2 				"/>
			</g>
		</mask>
		<path class="st42" d="M23.9,19.9C24.4,20.6,28,22,29,22c-1.7,0.7-3.6,0.9-5.4,0.7c-0.1,0,0.1,2.3-2.9,3.6c0,0,0.3-2-0.3-2.9
			c-1.5,2.4-5.3,2.4-5.3,2.4c2.9-1.7,2.8-2.9,2.9-3.3C19.8,21.3,21.8,20.5,23.9,19.9L23.9,19.9z"/>
		<defs>
			<filter id="Adobe_OpacityMaskFilter_18_" filterUnits="userSpaceOnUse" x="10.4" y="8.3" width="15.9" height="14.1">
				<feColorMatrix  type="matrix" values="1 0 0 0 0  0 1 0 0 0  0 0 1 0 0  0 0 0 1 0"/>
			</filter>
		</defs>
		<mask maskUnits="userSpaceOnUse" x="10.4" y="8.3" width="15.9" height="14.1" id="blackburn-b_19_">
			<g class="st43">
				<polygon id="blackburn-a_19_" class="st5" points="0,44.5 42.8,44.5 42.8,0.2 0,0.2 				"/>
			</g>
		</mask>
		<path class="st44" d="M26.1,14.7c0.3,0,0.3,0.6,0.3,0.8c0,1-0.5,1.5-0.9,2.4c-0.2,0.4-0.3,0.8-0.6,1.1c-0.3,0.4-0.5,0.8-1.1,0.9
			c-1.8,0.3-2.6,1.1-4.2,1.9c-0.4,0.2-0.7,0.4-1.1,0.6h-2c-0.4,0-0.9-0.1-1.3-0.1c-0.3,0-0.6-0.3-0.6-0.6c0-0.3,0-0.7,0.2-1
			c-0.7,0-2.9-0.7-3.3-1.3c-0.9-1.5-1.3-3.3-1.2-5.1c0.4-0.1,1.6,0.5,2,0.5c0-0.3-0.1-0.7-0.1-1c0-0.4-0.2-0.9,0.2-0.9
			c0.5,0,0.9,0.1,1.3,0.3c-0.1-0.2-0.1-0.4-0.2-0.6l0-0.1c-0.2-0.3-0.5-0.4-0.5-0.8c0-0.3,0.1-0.5,0.4-0.7l0-1.3
			C14,9.6,15,11,15.7,11c0,0,1.6-1.5,1.9-1.8C18,9,18.5,10.6,19,11.2c0.1-0.1-0.2-1-0.2-1.2c0.5,0.3,1,0.7,1.5,1.1
			c0.6-0.7,0.5-1.6,1.5-2.3c0.4-0.3,0.6-0.8,1.1-0.4c0,1.1,0.1,2.1,0.3,3.1c0.3-0.1,0.3-0.2,0.6-0.2c0,1.1,0.1,2.5,1.1,3.2
			L26.1,14.7L26.1,14.7z"/>
		<defs>
			<filter id="Adobe_OpacityMaskFilter_19_" filterUnits="userSpaceOnUse" x="10.2" y="8" width="16.4" height="14.6">
				<feColorMatrix  type="matrix" values="1 0 0 0 0  0 1 0 0 0  0 0 1 0 0  0 0 0 1 0"/>
			</filter>
		</defs>
		<mask maskUnits="userSpaceOnUse" x="10.2" y="8" width="16.4" height="14.6" id="blackburn-b_20_">
			<g class="st45">
				<polygon id="blackburn-a_20_" class="st5" points="0,44.5 42.8,44.5 42.8,0.2 0,0.2 				"/>
			</g>
		</mask>
		<path class="st46" d="M26.1,14.7c0.3,0,0.3,0.6,0.3,0.8c0,1-0.5,1.5-0.9,2.4c-0.2,0.4-0.3,0.8-0.6,1.1c-0.3,0.4-0.5,0.8-1.1,0.9
			c-1.8,0.3-2.6,1.1-4.2,1.9c-0.4,0.2-0.7,0.4-1.1,0.6h-2c-0.4,0-0.9-0.1-1.3-0.1c-0.3,0-0.6-0.3-0.6-0.6c0-0.3,0-0.7,0.2-1
			c-0.7,0-2.9-0.7-3.3-1.3c-0.9-1.5-1.3-3.3-1.2-5.1c0.4-0.1,1.6,0.5,2,0.5c0-0.3-0.1-0.7-0.1-1c0-0.4-0.2-0.9,0.2-0.9
			c0.5,0,0.9,0.1,1.3,0.3c-0.1-0.2-0.1-0.4-0.2-0.6l0-0.1c-0.2-0.3-0.5-0.4-0.5-0.8c0-0.3,0.1-0.5,0.4-0.7l0-1.3
			C14,9.6,15,11,15.7,11c0,0,1.6-1.5,1.9-1.8C18,9,18.5,10.6,19,11.2c0.1-0.1-0.2-1-0.2-1.2c0.5,0.3,1,0.7,1.5,1.1
			c0.6-0.7,0.5-1.6,1.5-2.3c0.4-0.3,0.6-0.8,1.1-0.4c0,1.1,0.1,2.1,0.3,3.1c0.3-0.1,0.3-0.2,0.6-0.2c0,1.1,0.1,2.5,1.1,3.2
			L26.1,14.7L26.1,14.7z"/>
		<defs>
			<filter id="Adobe_OpacityMaskFilter_20_" filterUnits="userSpaceOnUse" x="15.8" y="11.1" width="5.7" height="9.2">
				<feColorMatrix  type="matrix" values="1 0 0 0 0  0 1 0 0 0  0 0 1 0 0  0 0 0 1 0"/>
			</filter>
		</defs>
		<mask maskUnits="userSpaceOnUse" x="15.8" y="11.1" width="5.7" height="9.2" id="blackburn-b_21_">
			<g class="st47">
				<polygon id="blackburn-a_21_" class="st5" points="0,44.5 42.8,44.5 42.8,0.2 0,0.2 				"/>
			</g>
		</mask>
		<path class="st48" d="M20.7,15.1c-0.1-0.6-0.3-1.3-0.6-1.9c-0.1-0.3-0.4-0.4-0.5-0.7c-0.2-0.5-0.4-0.9-0.7-1.3 M15.9,20
			c3.4,0.4,5.2-1.6,5.4-2.9c0.1-0.5,0.1-1-0.1-1.5"/>
		<defs>
			<filter id="Adobe_OpacityMaskFilter_21_" filterUnits="userSpaceOnUse" x="15.7" y="14.4" width="10.4" height="5.9">
				<feColorMatrix  type="matrix" values="1 0 0 0 0  0 1 0 0 0  0 0 1 0 0  0 0 0 1 0"/>
			</filter>
		</defs>
		<mask maskUnits="userSpaceOnUse" x="15.7" y="14.4" width="10.4" height="5.9" id="blackburn-b_22_">
			<g class="st49">
				<polygon id="blackburn-a_22_" class="st5" points="0,44.5 42.8,44.5 42.8,0.2 0,0.2 				"/>
			</g>
		</mask>
		<path class="st50" d="M15.7,20c3.8,0.5,5.7-1.4,6-2.3c0.2-0.3,0.4-0.7,0.6-1c0.2-0.3,0.4-0.6,0.7-0.8c1.1-1.2,1.4-1.3,3.1-1.2"/>
		<defs>
			<filter id="Adobe_OpacityMaskFilter_22_" filterUnits="userSpaceOnUse" x="14.5" y="14.4" width="12.1" height="8.3">
				<feColorMatrix  type="matrix" values="1 0 0 0 0  0 1 0 0 0  0 0 1 0 0  0 0 0 1 0"/>
			</filter>
		</defs>
		<mask maskUnits="userSpaceOnUse" x="14.5" y="14.4" width="12.1" height="8.3" id="blackburn-b_23_">
			<g class="st51">
				<polygon id="blackburn-a_23_" class="st5" points="0,44.5 42.8,44.5 42.8,0.2 0,0.2 				"/>
			</g>
		</mask>
		<path class="st52" d="M15.6,20c-0.3,0-0.5,0.3-0.6,0.7c-0.2,0.3-0.2,0.7-0.2,1c0,0.3,0.3,0.6,0.6,0.6c0.4,0.1,0.8,0.1,1.3,0.2h2
			c0.4-0.2,0.7-0.4,1.1-0.6c1.5-0.8,2.4-1.5,4.2-1.9c0.6-0.1,0.8-0.5,1.1-0.9c0.2-0.3,0.4-0.7,0.6-1.1c0.4-1,0.9-1.4,0.9-2.4
			c0-0.3,0-0.8-0.3-0.8"/>
		<defs>
			<filter id="Adobe_OpacityMaskFilter_23_" filterUnits="userSpaceOnUse" x="15.2" y="13.9" width="6.3" height="6.4">
				<feColorMatrix  type="matrix" values="1 0 0 0 0  0 1 0 0 0  0 0 1 0 0  0 0 0 1 0"/>
			</filter>
		</defs>
		<mask maskUnits="userSpaceOnUse" x="15.2" y="13.9" width="6.3" height="6.4" id="blackburn-b_24_">
			<g class="st53">
				<polygon id="blackburn-a_24_" class="st5" points="0,44.5 42.8,44.5 42.8,0.2 0,0.2 				"/>
			</g>
		</mask>
		<path class="st54" d="M15.5,18.4c0.2-0.3,0.3-0.6,0.3-0.9c0-0.9-0.3-1.3-0.3-2.2c0-0.4-0.1-0.7,0.2-0.9c0.2-0.2,0.5-0.3,0.8-0.2
			c0.9,0,1.7,0.1,2.5,0.4c0.5,0.1,0.8,0.4,1.2,0.6c0.4,0.1,1-0.1,1,0.3c0,0.2-0.2,0.2-0.4,0.3c-0.2,0.1-0.5,0.1-0.8,0.1
			c-1.2,0-1.8-0.8-3-0.8c-0.4,0-0.3,0.6-0.3,1l0.1,1.3c0.1,0.7-0.1,1.3-0.4,1.9c-0.2,0.4-0.4,0.7-0.8,0.8l-0.1,0v-0.1"/>
		<defs>
			<filter id="Adobe_OpacityMaskFilter_24_" filterUnits="userSpaceOnUse" x="12.9" y="10.8" width="6.3" height="9.3">
				<feColorMatrix  type="matrix" values="1 0 0 0 0  0 1 0 0 0  0 0 1 0 0  0 0 0 1 0"/>
			</filter>
		</defs>
		<mask maskUnits="userSpaceOnUse" x="12.9" y="10.8" width="6.3" height="9.3" id="blackburn-b_25_">
			<g class="st55">
				<polygon id="blackburn-a_25_" class="st5" points="0,44.5 42.8,44.5 42.8,0.2 0,0.2 				"/>
			</g>
		</mask>
		<path class="st56" d="M15.5,20c0.1-0.3,0.2-0.6,0.1-0.9c0-0.6-0.2-1.2-0.5-1.8c-0.2-0.3-0.5-0.4-0.6-0.8c-0.2-0.5-0.1-0.8-0.3-1.3
			c-0.2-0.7,0-1.1-0.2-1.9c-0.1-0.2-0.2-0.5-0.3-0.7l0-0.1c-0.2-0.3-0.5-0.4-0.5-0.8c0-0.4,0.3-0.8,0.7-0.8c0.5,0,0.8,0.3,1.2,0.4
			c0.4,0.2,0.7,0.3,1.1,0.3c0.5,0.2,1,0.4,1.4,0.6c0.3,0.1,0.5,0.2,0.7,0.3c0.5,0.5,0.3,1,0.7,1.7"/>
		<defs>
			<filter id="Adobe_OpacityMaskFilter_25_" filterUnits="userSpaceOnUse" x="13.3" y="9" width="9.4" height="7.4">
				<feColorMatrix  type="matrix" values="1 0 0 0 0  0 1 0 0 0  0 0 1 0 0  0 0 0 1 0"/>
			</filter>
		</defs>
		<mask maskUnits="userSpaceOnUse" x="13.3" y="9" width="9.4" height="7.4" id="blackburn-b_26_">
			<g class="st57">
				<polygon id="blackburn-a_26_" class="st5" points="0,44.5 42.8,44.5 42.8,0.2 0,0.2 				"/>
			</g>
		</mask>
		<path class="st58" d="M13.6,11.1l-0.1-1.4C14,9.6,15,11,15.7,11c0,0,1.6-1.5,1.9-1.8s0.8,1.3,1.3,1.9c0.1-0.1-0.2-1-0.2-1.2
			c0.5,0.3,1,0.7,1.5,1.1c0.4,0.6,0.8,1.2,1.2,1.8c0.1,0.2,0.3,0.3,0.4,0.5c0.4,0.8,0.2,1.3,0.5,2.2v0.8"/>
		<defs>
			<filter id="Adobe_OpacityMaskFilter_26_" filterUnits="userSpaceOnUse" x="12.1" y="12.4" width="6.1" height="5">
				<feColorMatrix  type="matrix" values="1 0 0 0 0  0 1 0 0 0  0 0 1 0 0  0 0 0 1 0"/>
			</filter>
		</defs>
		<mask maskUnits="userSpaceOnUse" x="12.1" y="12.4" width="6.1" height="5" id="blackburn-b_27_">
			<g class="st59">
				<polygon id="blackburn-a_27_" class="st5" points="0,44.5 42.8,44.5 42.8,0.2 0,0.2 				"/>
			</g>
		</mask>
		<path class="st60" d="M18,14.2c-0.2-0.8-0.9-1-1.5-1.3c-0.3-0.2-0.6-0.3-0.9-0.3c-0.4,0-0.5,0.4-0.6,0.8V14
			c0.1,0.4,0.1,0.8,0.4,1.1 M14,13.3c-0.6-0.2-0.8-0.4-1.3-0.4c-0.4,0-0.2,0.6-0.2,0.9c0,0.7,0.1,1.5,0.3,2.2
			c0.2,0.5,0.4,0.9,0.7,1.3"/>
		<defs>
			<filter id="Adobe_OpacityMaskFilter_27_" filterUnits="userSpaceOnUse" x="10.2" y="8" width="15" height="12.9">
				<feColorMatrix  type="matrix" values="1 0 0 0 0  0 1 0 0 0  0 0 1 0 0  0 0 0 1 0"/>
			</filter>
		</defs>
		<mask maskUnits="userSpaceOnUse" x="10.2" y="8" width="15" height="12.9" id="blackburn-b_28_">
			<g class="st61">
				<polygon id="blackburn-a_28_" class="st5" points="0,44.5 42.8,44.5 42.8,0.2 0,0.2 				"/>
			</g>
		</mask>
		<path class="st62" d="M12.5,14.8c-0.3,0.1-1.6-0.6-2.1-0.6c-0.1,1.8,0.3,3.5,1.2,5.1c0.4,0.6,2.5,1.3,3.3,1.3 M25,14.6
			c-1.1-0.6-1.2-2.1-1.2-3.2c-0.3,0-0.3,0.1-0.6,0.2c-0.2-1-0.4-2.1-0.3-3.1c-0.6-0.4-0.7,0.1-1.1,0.4c-1.1,0.7-0.9,1.6-1.5,2.3"/>
		<defs>
			<filter id="Adobe_OpacityMaskFilter_28_" filterUnits="userSpaceOnUse" x="17.3" y="16" width="2.5" height="1.9">
				<feColorMatrix  type="matrix" values="1 0 0 0 0  0 1 0 0 0  0 0 1 0 0  0 0 0 1 0"/>
			</filter>
		</defs>
		<mask maskUnits="userSpaceOnUse" x="17.3" y="16" width="2.5" height="1.9" id="blackburn-b_29_">
			<g class="st63">
				<polygon id="blackburn-a_29_" class="st5" points="0,44.5 42.8,44.5 42.8,0.2 0,0.2 				"/>
			</g>
		</mask>
		<path class="st64" d="M19.8,16.4c-0.5-0.2-0.9-0.3-1.4-0.3c-0.6,0-0.9,0.6-1,1.2v0.7c0.5-0.7,0.5-1.6,1.3-1.6
			C19,16.4,19.4,16.4,19.8,16.4L19.8,16.4z"/>
		<defs>
			<filter id="Adobe_OpacityMaskFilter_29_" filterUnits="userSpaceOnUse" x="21.2" y="15.3" width="5" height="10.1">
				<feColorMatrix  type="matrix" values="1 0 0 0 0  0 1 0 0 0  0 0 1 0 0  0 0 0 1 0"/>
			</filter>
		</defs>
		<mask maskUnits="userSpaceOnUse" x="21.2" y="15.3" width="5" height="10.1" id="blackburn-b_30_">
			<g class="st65">
				<polygon id="blackburn-a_30_" class="st5" points="0,44.5 42.8,44.5 42.8,0.2 0,0.2 				"/>
			</g>
		</mask>
		<path class="st66" d="M22.7,18.5l0.9,1 M22.1,18.9l0.7,0.8 M21.4,19.4l0.3,0.5 M24.7,15.5l1.2,0.1 M24.5,16.1l1,0.1 M21.9,23
			l-0.5,2.1"/>
		<defs>
			<filter id="Adobe_OpacityMaskFilter_30_" filterUnits="userSpaceOnUse" x="18.2" y="28.4" width="5.6" height="4.6">
				<feColorMatrix  type="matrix" values="1 0 0 0 0  0 1 0 0 0  0 0 1 0 0  0 0 0 1 0"/>
			</filter>
		</defs>
		<mask maskUnits="userSpaceOnUse" x="18.2" y="28.4" width="5.6" height="4.6" id="blackburn-b_31_">
			<g class="st67">
				<polygon id="blackburn-a_31_" class="st5" points="0,44.5 42.8,44.5 42.8,0.2 0,0.2 				"/>
			</g>
		</mask>
		<path class="st68" d="M23.8,28.7c-0.1-0.1-0.1-0.2-0.2-0.2c-0.8,0-1.2,0.5-2,0.5s-1.1-0.5-1.9-0.6c0.3,0.1,0.6,0.3,0.9,0.5
			c0.2,0.1,0.5,0.2,0.5,0.4c0,0.4-0.5,0.7-1,0.7c-0.7,0-1.3-0.1-2-0.3c0.3,0.2,0.7,0.3,1,0.3c0.4,0,0.9-0.1,0.9,0.3
			c0,0.4-0.3,0.4-0.5,0.7c-0.5,0.7-1,1.3-1.4,2.1c0.2-0.3,0.4-0.5,0.7-0.8c0.7-0.6,0.9-1.2,1.6-1.8c0,0.2-0.1,0.3-0.1,0.4
			c0,0.3,0.1,0.4,0.1,0.8c0,0.3,0,0.4,0,0.6c0.1-0.1,0.2-0.2,0.2-0.3v-1.3c0.1-0.6,0.5-0.8,1.1-1.2l-0.1,1.8c0.2-0.7,0-1.2,0.4-1.8
			C22.5,28.9,23.2,29.1,23.8,28.7"/>
		<defs>
			<filter id="Adobe_OpacityMaskFilter_31_" filterUnits="userSpaceOnUse" x="18" y="28.1" width="6.1" height="5.1">
				<feColorMatrix  type="matrix" values="1 0 0 0 0  0 1 0 0 0  0 0 1 0 0  0 0 0 1 0"/>
			</filter>
		</defs>
		<mask maskUnits="userSpaceOnUse" x="18" y="28.1" width="6.1" height="5.1" id="blackburn-b_32_">
			<g class="st69">
				<polygon id="blackburn-a_32_" class="st5" points="0,44.5 42.8,44.5 42.8,0.2 0,0.2 				"/>
			</g>
		</mask>
		<path class="st70" d="M23.8,28.7c-0.1-0.1-0.1-0.2-0.2-0.2c-0.8,0-1.2,0.5-2,0.5s-1.1-0.5-1.9-0.6c0.3,0.1,0.6,0.3,0.9,0.5
			c0.2,0.1,0.5,0.2,0.5,0.4c0,0.4-0.5,0.7-1,0.7c-0.7,0-1.3-0.1-2-0.3c0.3,0.2,0.7,0.3,1,0.3c0.4,0,0.9-0.1,0.9,0.3
			c0,0.4-0.3,0.4-0.5,0.7c-0.5,0.7-1,1.3-1.4,2.1c0.2-0.3,0.4-0.5,0.7-0.8c0.7-0.6,0.9-1.2,1.6-1.8c0,0.2-0.1,0.3-0.1,0.4
			c0,0.3,0.1,0.4,0.1,0.8c0,0.3,0,0.4,0,0.6c0.1-0.1,0.2-0.2,0.2-0.3v-1.3c0.1-0.6,0.5-0.8,1.1-1.2l-0.1,1.8c0.2-0.7,0-1.2,0.4-1.8
			C22.5,28.9,23.2,29.1,23.8,28.7z"/>
		<defs>
			<filter id="Adobe_OpacityMaskFilter_32_" filterUnits="userSpaceOnUse" x="25.6" y="20.6" width="6.6" height="7.6">
				<feColorMatrix  type="matrix" values="1 0 0 0 0  0 1 0 0 0  0 0 1 0 0  0 0 0 1 0"/>
			</filter>
		</defs>
		<mask maskUnits="userSpaceOnUse" x="25.6" y="20.6" width="6.6" height="7.6" id="blackburn-b_33_">
			<g class="st71">
				<polygon id="blackburn-a_33_" class="st5" points="0,44.5 42.8,44.5 42.8,0.2 0,0.2 				"/>
			</g>
		</mask>
		<path class="st72" d="M26.7,25.1c0-0.6,0-1.1-0.1-1.7l0.2,1v1.2c0.1,0,0.1,0.1,0.2,0.1c0.4,0,0.4-0.5,0.7-0.8
			c0.3-0.4,0.6-0.8,0.9-1.2c0.2-0.4,0.1-0.8,0.2-1.3v0.8c0.6-0.2,0.7-0.7,1.1-1c0.7-0.4,1.3-0.9,1.8-1.6c-0.4,0.4-0.5,0.8-0.9,1.3
			c-0.6,0.6-1.1,0.8-1.6,1.6c0.2,0,0.5,0,0.7,0c0.9,0,1.4-0.4,2.4-0.4h-0.4c-0.2,0-0.4,0.1-0.6,0.2c-0.6,0.4-1.3,0.5-2,0.4
			c-0.4-0.1-0.7,0.4-0.8,0.8c-0.1,0.4-0.4,0.8-0.8,1c0.1,0,0.2,0.1,0.3,0.1c0.6,0,1.1-0.1,1.6-0.3H31c-1.1,0.3-1.6,0.3-2.7,0.6
			c-0.8,0.2-1.5,0.4-1.7,1.2c0,0.4-0.2,0.7-0.4,1c-0.1,0.1-0.4,0.3-0.5,0.2c-0.1-0.1,0-0.4,0.1-0.7C26.4,26.7,26.7,26.1,26.7,25.1
			L26.7,25.1z"/>
		<defs>
			<filter id="Adobe_OpacityMaskFilter_33_" filterUnits="userSpaceOnUse" x="25.4" y="20.4" width="7.1" height="8.1">
				<feColorMatrix  type="matrix" values="1 0 0 0 0  0 1 0 0 0  0 0 1 0 0  0 0 0 1 0"/>
			</filter>
		</defs>
		<mask maskUnits="userSpaceOnUse" x="25.4" y="20.4" width="7.1" height="8.1" id="blackburn-b_34_">
			<g class="st73">
				<polygon id="blackburn-a_34_" class="st5" points="0,44.5 42.8,44.5 42.8,0.2 0,0.2 				"/>
			</g>
		</mask>
		<path class="st74" d="M26.7,25.1c0-0.6,0-1.1-0.1-1.7l0.2,1v1.2c0.1,0,0.1,0.1,0.2,0.1c0.4,0,0.4-0.5,0.7-0.8
			c0.3-0.4,0.6-0.8,0.9-1.2c0.2-0.4,0.1-0.8,0.2-1.3v0.8c0.6-0.2,0.7-0.7,1.1-1c0.7-0.4,1.3-0.9,1.8-1.6c-0.4,0.4-0.5,0.8-0.9,1.3
			c-0.6,0.6-1.1,0.8-1.6,1.6c0.2,0,0.5,0,0.7,0c0.9,0,1.4-0.4,2.4-0.4h-0.4c-0.2,0-0.4,0.1-0.6,0.2c-0.6,0.4-1.3,0.5-2,0.4
			c-0.4-0.1-0.7,0.4-0.8,0.8c-0.1,0.4-0.4,0.8-0.8,1c0.1,0,0.2,0.1,0.3,0.1c0.6,0,1.1-0.1,1.6-0.3H31c-1.1,0.3-1.6,0.3-2.7,0.6
			c-0.8,0.2-1.5,0.4-1.7,1.2c0,0.4-0.2,0.7-0.4,1c-0.1,0.1-0.4,0.3-0.5,0.2c-0.1-0.1,0-0.4,0.1-0.7C26.4,26.7,26.7,26.1,26.7,25.1
			L26.7,25.1z"/>
		<defs>
			<filter id="Adobe_OpacityMaskFilter_34_" filterUnits="userSpaceOnUse" x="15.3" y="24.8" width="4.6" height="1.8">
				<feColorMatrix  type="matrix" values="1 0 0 0 0  0 1 0 0 0  0 0 1 0 0  0 0 0 1 0"/>
			</filter>
		</defs>
		<mask maskUnits="userSpaceOnUse" x="15.3" y="24.8" width="4.6" height="1.8" id="blackburn-b_35_">
			<g class="st75">
				<polygon id="blackburn-a_35_" class="st5" points="0,44.5 42.8,44.5 42.8,0.2 0,0.2 				"/>
			</g>
		</mask>
		<path class="st76" d="M15.3,26.5c0.1,0.1,0.2,0.1,0.4,0.1c0.8,0,1.2-0.2,2-0.2c0.9-0.1,1.7-0.2,2.1-1.1c0.1-0.1,0.2-0.3,0.1-0.4
			c-0.1-0.2-0.4,0.2-0.7,0.3c-0.5,0.2-0.8,0.3-1.2,0.6C17.1,26.3,16.2,26.5,15.3,26.5"/>
		<defs>
			<filter id="Adobe_OpacityMaskFilter_35_" filterUnits="userSpaceOnUse" x="15" y="24.6" width="5.1" height="2.3">
				<feColorMatrix  type="matrix" values="1 0 0 0 0  0 1 0 0 0  0 0 1 0 0  0 0 0 1 0"/>
			</filter>
		</defs>
		<mask maskUnits="userSpaceOnUse" x="15" y="24.6" width="5.1" height="2.3" id="blackburn-b_36_">
			<g class="st77">
				<polygon id="blackburn-a_36_" class="st5" points="0,44.5 42.8,44.5 42.8,0.2 0,0.2 				"/>
			</g>
		</mask>
		<path class="st78" d="M15.3,26.5c0.1,0.1,0.2,0.1,0.4,0.1c0.8,0,1.2-0.2,2-0.2c0.9-0.1,1.7-0.2,2.1-1.1c0.1-0.1,0.2-0.3,0.1-0.4
			c-0.1-0.2-0.4,0.2-0.7,0.3c-0.5,0.2-0.8,0.3-1.2,0.6C17.1,26.3,16.2,26.5,15.3,26.5z"/>
	</g>
	<path class="st79" d="M65.1,18.2v2.8h-1.2v-1.7h-8.6v1.6H54v-2.8h4.9c-0.2-0.4-0.4-0.7-0.6-1l1.3-0.2c0.2,0.4,0.4,0.8,0.5,1.2H65.1
		z M63.3,20.5v3.4H57V25h6.8v4.1h-1.2v-0.5H57v0.5h-1.2v-8.7H63.3z M57,27.6h5.6v-1.5H57V27.6z M57,22.8h5v-1.3h-5V22.8z M66.8,19
		h5.5c-0.2-0.5-0.5-1-0.9-1.5l1.2-0.4c0.4,0.5,0.7,1.2,1,1.9h4.8v1.2h-6.8l-0.1,2h5.4c0,2.8-0.2,4.5-0.4,5.3c-0.3,1-0.9,1.6-2,1.6
		c-0.4,0-0.9,0-1.5-0.1l-0.4-1.1c0.7,0,1.3,0.1,1.7,0.1c0.5,0,0.9-0.4,1.1-1.2c0.1-0.4,0.1-1.6,0.1-3.4h-4.3c-0.2,1-0.5,1.9-1,2.8
		c-0.6,1.1-1.5,2.1-2.7,3.1l-0.9-0.9c1.4-1.2,2.3-2.2,2.7-3.2c0.4-1,0.7-2.1,0.8-3.3c0-0.7,0.1-1.3,0.1-1.7h-3.6V19z M84.9,20.5
		h-4.7v-1.2h4.7c-0.2-0.6-0.5-1.2-0.7-1.8l1.2-0.3c0.3,0.8,0.6,1.5,0.8,2.1l0,0h4.8v1.2h-4.7v2.7h4.1v1.2h-4.1v3.2h5.2v1.2H79.8
		v-1.2h5.2v-3.2h-4.1v-1.2h4.1V20.5z M94.2,19c-0.2,0.3-0.4,0.5-0.6,0.7L93,18.9c0.5-0.4,0.8-0.9,1-1.5l0.9,0.1
		c-0.1,0.2-0.1,0.4-0.2,0.6h0.7v-0.9h1.1v0.9H98V19h-1.5v0.7h1.6v1h-1.2v1c0.4-0.1,0.8-0.3,1.2-0.4l0.2,0.9
		c-0.8,0.3-1.5,0.6-2.3,0.8l-0.4-0.9c0.2-0.1,0.3-0.2,0.3-0.4v-1h-0.8c-0.1,0.7-0.2,1.2-0.4,1.5c-0.3,0.4-0.7,0.8-1.3,1.2l-0.7-0.9
		c0.5-0.2,0.9-0.5,1.1-0.8c0.1-0.2,0.2-0.6,0.3-1H93v-1h2.4V19H94.2z M99.6,19c-0.2,0.3-0.4,0.5-0.6,0.7h1.9V19H99.6z M99,19.7
		l-0.6-0.8c0.5-0.4,0.8-1,0.9-1.7l0.9,0.1c-0.1,0.2-0.1,0.4-0.2,0.6h0.9v-0.9h1.1v0.9h1.7V19H102v0.7h2.1v1h-1.7v0.9
		c0,0.2,0.1,0.3,0.2,0.3h0.4c0.1,0,0.2,0,0.3-0.1c0.1-0.1,0.1-0.3,0.2-0.7l0.9,0.3c-0.1,0.7-0.2,1.1-0.4,1.2
		c-0.2,0.1-0.4,0.2-0.8,0.2h-0.9c-0.3,0-0.5-0.1-0.7-0.3s-0.2-0.4-0.2-0.7v-1.1h-0.6c-0.1,0.5-0.2,1-0.4,1.3c-0.3,0.4-0.7,0.7-1.3,1
		l-0.7-0.9c0.5-0.2,0.8-0.4,1-0.7c0.1-0.2,0.2-0.4,0.3-0.8h-1.2v-1H99z M102.8,23.1v3.8h-1.2v-2.7h-6.1V27h-1.2v-3.9H102.8z
		 M99.4,26.8c1.8,0.4,3.5,0.8,5,1.4l-0.7,1c-1.6-0.6-3.3-1.1-5-1.5L99.4,26.8z M98.2,24.8l1.2,0.1c-0.2,1.1-0.7,2.1-1.7,2.8
		c-0.8,0.6-2.2,1.1-4.3,1.5L92.9,28c1.8-0.3,3.1-0.6,3.8-1.1C97.6,26.4,98,25.7,98.2,24.8z M110.9,17.9v7.8c0.3-0.1,0.6-0.2,0.8-0.3
		v1.2c-1.7,0.6-3.7,1.1-5.9,1.6l-0.3-1.2c0.3-0.1,0.6-0.1,0.9-0.2v-8.9H110.9z M107.6,26.5c0.7-0.2,1.4-0.3,2.1-0.5v-1.6h-2.1V26.5z
		 M107.6,23.4h2.1v-1.7h-2.1V23.4z M107.6,20.5h2.1V19h-2.1V20.5z M113.1,17.2h1.2v2.5h2.8c0,4.2-0.1,6.8-0.2,7.8
		c-0.1,1-0.8,1.5-2,1.5c-0.2,0-0.6,0-1.1-0.1l-0.3-1.1c0.5,0,0.8,0.1,1.2,0.1c0.6,0,0.9-0.3,1-0.9c0.1-0.6,0.1-2.6,0.1-6.1h-1.6V21
		c0,3.7-0.9,6.5-2.7,8.2l-0.9-0.8c1.6-1.5,2.4-4,2.4-7.4v-0.1h-1.5v-1.2h1.5V17.2z M122,24.3c-0.2,0.2-0.5,0.3-0.8,0.5l-0.8-1v5.3
		h-1.2v-8.4h2.7c-0.2-0.5-0.4-0.9-0.6-1.3h-2.6v-1.2h5.1c-0.1-0.3-0.2-0.6-0.4-0.9l1.4-0.2c0.1,0.3,0.2,0.7,0.4,1.1h5.1v1.2h-2.7
		c-0.2,0.5-0.4,0.9-0.6,1.3h2.8v7c0,1-0.4,1.5-1.3,1.5h-1.3l-0.3-1.1l1.2,0c0.3,0,0.5-0.2,0.5-0.7v-5.6h-8.1v2c1-0.6,1.9-1.2,2.6-2
		l0.9,0.8c-0.5,0.6-1.1,1.2-1.8,1.7h5v3.4H122V24.3z M125.9,26.5v-1.2h-2.7v1.2H125.9z M125.9,21.7c1,0.7,1.9,1.4,2.6,2.1l-0.9,0.9
		c-0.6-0.7-1.5-1.4-2.5-2.2L125.9,21.7z M123.3,20.6h2.4c0.2-0.4,0.4-0.9,0.6-1.3h-3.5C122.9,19.7,123.1,20.1,123.3,20.6z"/>
</g>
</svg>
