<svg xmlns="http://www.w3.org/2000/svg" xmlns:xlink="http://www.w3.org/1999/xlink" viewBox="0 0 84.53 87.67"><defs><style>.cls-1,.cls-4{fill:#fff;}.cls-2{fill:#001f5b;}.cls-3{fill:#fffffe;}.cls-4{stroke:#fff;stroke-width:3.04px;}.cls-5{fill:url(#linear-gradient);}.cls-6{fill:#8f5927;}.cls-7{fill:#512c1d;}.cls-8{fill:#00945e;}.cls-9{fill:#a93439;}.cls-10{fill:none;}</style><linearGradient id="linear-gradient" x1="4.96" y1="31.59" x2="39.03" y2="47.48" gradientTransform="translate(10.33 9.32) rotate(-2.94)" gradientUnits="userSpaceOnUse"><stop offset="0" stop-color="#fff"/><stop offset="0.1" stop-color="#fdfcfa"/><stop offset="0.22" stop-color="#f8f4ec"/><stop offset="0.35" stop-color="#f0e6d6"/><stop offset="0.48" stop-color="#e5d3b5"/><stop offset="0.61" stop-color="#d6ba8d"/><stop offset="0.61" stop-color="#d6ba8c"/></linearGradient></defs><title>west bromwich</title><g id="Layer_2" data-name="Layer 2"><g id="Layer_2-2" data-name="Layer 2"><path class="cls-1" d="M6.76,3.79l-1.39.27V46A42,42,0,0,0,9.74,63.06,41.3,41.3,0,0,0,20.3,76.61a49.74,49.74,0,0,0,20.47,10l.16,0,.29.07.37-.06.2,0a49.73,49.73,0,0,0,20.47-10A41.3,41.3,0,0,0,72.81,63.06,42.18,42.18,0,0,0,77.19,46V4.06L75.8,3.79A208.36,208.36,0,0,0,41.28.85,208.17,208.17,0,0,0,6.76,3.79Z"/><path class="cls-2" d="M75.63,4.68a203.62,203.62,0,0,0-68.7,0l-.66.13V46a41.1,41.1,0,0,0,4.29,16.68A40.4,40.4,0,0,0,20.88,75.92,48.84,48.84,0,0,0,41,85.71l.16,0,.1,0,.15,0,.16,0a48.84,48.84,0,0,0,20.1-9.79A40.39,40.39,0,0,0,72,62.66,41.12,41.12,0,0,0,76.28,46V4.81Z"/><path class="cls-3" d="M60.62,74.67l-.33.27V30H52.35V80.07a50.33,50.33,0,0,1-7,2.85V30H36.87V82.82a49.85,49.85,0,0,1-7.15-3V30H21.78V74.53a38.57,38.57,0,0,1-7-7.77V30H7.91V6.17A207.52,207.52,0,0,1,41.28,3.4,207.56,207.56,0,0,1,74.64,6.17V30h-7.2V67.19A38.58,38.58,0,0,1,60.62,74.67Z"/><path class="cls-2" d="M14.91,14.39h1.93l5.39,12.32H19.69l-1.17-2.82H13.09L12,26.71H9.47ZM17.74,22l-1.93-5-2,5Z"/><path class="cls-2" d="M23.1,14.39h2.23V24.72h5.32v2H23.1Z"/><path class="cls-2" d="M31.74,14.39h4.88c1.89,0,3.84.85,3.84,3.1a2.75,2.75,0,0,1-2.17,2.7v0a3,3,0,0,1,2.7,3c0,2.68-2.37,3.52-4.74,3.52H31.74Zm2.23,5h2c1.48,0,2.23-.63,2.23-1.55s-.74-1.58-2.42-1.58H34Zm0,5.43H36c1.15,0,2.74-.19,2.74-1.81,0-1.29-.85-1.74-2.65-1.74H34Z"/><path class="cls-2" d="M42.08,14.39h2.23V26.71H42.08Z"/><path class="cls-2" d="M52.11,14.07a6.17,6.17,0,0,1,6.66,6.46C58.77,24.38,56,27,52.11,27S45.5,24.44,45.5,20.6A6.25,6.25,0,0,1,52.11,14.07Zm0,11a4.26,4.26,0,0,0,4.31-4.58,4.31,4.31,0,1,0-8.61,0A4.26,4.26,0,0,0,52.13,25Z"/><path class="cls-2" d="M60,14.39h3L69,23.54l0,0h0l0,0V14.39h2.23V26.71H68.46l-6.19-9.45h0v9.45H60Z"/><path class="cls-2" d="M9.69,7.8h1l.92,3.49h0l1.1-3.49h.86l1.08,3.49h0l1-3.49h.89l-1.43,4.84h-.83L13.1,9h0l-1.14,3.69h-.81Z"/><path class="cls-2" d="M17.23,7.8h3.26v.78H18.1V9.77h2.26v.78H18.1v1.31h2.51v.78H17.23Z"/><path class="cls-2" d="M24.06,8.84a1,1,0,0,0-.86-.38c-.4,0-.81.18-.81.62,0,1,2.33.42,2.33,2.14a1.59,1.59,0,0,1-1.8,1.55,2.05,2.05,0,0,1-1.61-.66l.66-.63a1.17,1.17,0,0,0,1,.51c.4,0,.86-.22.86-.66,0-1.06-2.33-.45-2.33-2.18,0-1,.9-1.46,1.81-1.46a2,2,0,0,1,1.41.5Z"/><path class="cls-2" d="M26.81,8.58H25.31V7.8H29.2v.78H27.69v4.06h-.88Z"/><path class="cls-2" d="M32.2,7.8h1.92c.74,0,1.51.34,1.51,1.22a1.08,1.08,0,0,1-.85,1.06h0a1.16,1.16,0,0,1,1.06,1.17c0,1.05-.93,1.38-1.86,1.38H32.2Zm.88,2h.8c.58,0,.88-.25.88-.61s-.29-.62-1-.62h-.72Zm0,2.13h.81c.45,0,1.08-.08,1.08-.71s-.33-.68-1-.68h-.84Z"/><path class="cls-2" d="M36.77,7.8h1.71c.94,0,1.83.3,1.83,1.39a1.25,1.25,0,0,1-1.14,1.31l1.31,2.14H39.42l-1.14-2.05h-.64v2.05h-.88Zm1.56,2.05c.49,0,1.07,0,1.07-.67s-.54-.64-1-.64h-.76V9.85Z"/><path class="cls-2" d="M43.48,7.67a2.42,2.42,0,0,1,2.62,2.54,2.49,2.49,0,0,1-2.62,2.55,2.45,2.45,0,0,1-2.6-2.52A2.45,2.45,0,0,1,43.48,7.67Zm0,4.31a1.67,1.67,0,0,0,1.69-1.8,1.69,1.69,0,1,0-3.38,0A1.67,1.67,0,0,0,43.48,12Z"/><path class="cls-2" d="M46.92,7.8h1.33l1.31,3.39L50.89,7.8h1.32v4.84h-.83v-4h0l-1.49,4h-.61l-1.49-4h0v4h-.83Z"/><path class="cls-2" d="M53,7.8h1l.92,3.49h0L56,7.8h.86l1.08,3.49h0l1-3.49h.89l-1.43,4.84H57.5L56.36,9h0l-1.14,3.69H54.4Z"/><path class="cls-2" d="M60.43,7.8h.88v4.84h-.88Z"/><path class="cls-2" d="M65.76,8.93a1.35,1.35,0,0,0-1-.48A1.65,1.65,0,0,0,63,10.18,1.67,1.67,0,0,0,64.73,12a1.39,1.39,0,0,0,1.1-.59l.72.51a2.19,2.19,0,0,1-1.83.86,2.45,2.45,0,0,1-2.6-2.52,2.45,2.45,0,0,1,2.6-2.56,2.15,2.15,0,0,1,1.72.77Z"/><path class="cls-2" d="M67.32,7.8h.88V9.73h2.3V7.8h.87v4.84h-.87V10.51h-2.3v2.13h-.88Z"/><path class="cls-1" d="M55.83,71.15l0-.15a6.51,6.51,0,0,0-1-2.16c1.47-.22,3.27-.75,4.1-2l.21-.31-.22-.3c-.92-1.22-2.8-1.7-4.27-1.89a5.24,5.24,0,0,0,.81-1.77l.16-.73a3.67,3.67,0,0,1-.79.1,3.29,3.29,0,0,1-.45,0,8.71,8.71,0,0,0-1.75,0,5.63,5.63,0,0,0-1.56.39,5.74,5.74,0,0,0,.26-1.52c0-.07,0-.13,0-.19a19,19,0,0,0-.61-2.25l-.17-.31a10.29,10.29,0,0,1,2.4.29A57.12,57.12,0,0,1,60,61.16c.13.07,3.88,2,6.62.46a1.9,1.9,0,0,0,.48-.62l-2-1.06a5.79,5.79,0,0,0,2.29-.16,3,3,0,0,0-1.49-2,2.56,2.56,0,0,0,1.49-.21,5.29,5.29,0,0,0-.25-.54,7.32,7.32,0,0,0-3.54-2.72A.74.74,0,0,0,63.7,54v.08a.7.7,0,0,0,0-.24c0-.45-.55-1.67-4.57-3.55h0a31.83,31.83,0,0,0-4.61-1.66c-1.12-.92-9.52-7.56-20.09-9.75-.42-.6-1.62-2.29-2.23-3a7.13,7.13,0,0,0-5.35-2.8,7.14,7.14,0,0,0-2.83.65,1.34,1.34,0,0,1-.64-.16c-1.63-.91-2.89-1.54-2.9-1.54l-.07,0-.07,0a.86.86,0,0,0-1,.36.87.87,0,0,0,0,.9h0A18.94,18.94,0,0,0,20.6,35a6.62,6.62,0,0,0-2.07,0h0a.85.85,0,0,0-.61.47.82.82,0,0,0-.07.33,1,1,0,0,0,.15.5l0,0c.05.1.22.4,1.18.84s2.59,1.42,2.73,1.51c.76.53,1.47,2.75,1.74,4v0c.65,2.56,1.29,4.55,1.45,5.09A16.64,16.64,0,0,0,31,56.91l0,1.25c0,.38-.06,1.42-.11,1.75h0a3,3,0,0,0,0,.41A6.46,6.46,0,0,0,31,61.59a5,5,0,0,0-1.37-.44A7.79,7.79,0,0,0,28,61h-.4a2.6,2.6,0,0,1-.76-.27l.08.85a5.43,5.43,0,0,0,.65,1.83c-1.38.11-3.15.5-4.08,1.67l-.21.27.17.3c.7,1.31,2.35,1.94,3.68,2.23a5.54,5.54,0,0,0-.92,1.63l-.18.61s.51,0,.82.09a2.26,2.26,0,0,1,.33.06,7.84,7.84,0,0,0,1.62.18,5.36,5.36,0,0,0,1.64-.25,2.93,2.93,0,0,0,0,.39,6,6,0,0,0,.09.9l0,.4c0,.35-.08,1.35-.14,1.71l0,1.1.67-.6a6.24,6.24,0,0,1,1.4-.58,6.62,6.62,0,0,0,2.27-1.2,7.54,7.54,0,0,0-.17,1.56,8.89,8.89,0,0,0,.06,1,8.81,8.81,0,0,1,.1,1.16,1.38,1.38,0,0,1,0,.33l-.11,1.1.91-.52c.33-.22,1.24-.82,1.54-1a5.79,5.79,0,0,0,1.37-1.07,4.69,4.69,0,0,0,.41,1.36,7.38,7.38,0,0,0,.84,1.38,2.83,2.83,0,0,1,.22.33,5.81,5.81,0,0,1,.32.72l.53-.49a5.5,5.5,0,0,0,1.18-1.59A5.86,5.86,0,0,0,45.63,79L46,79l.15-.3a3.43,3.43,0,0,0,.38-1.64,7,7,0,0,0-.6-2.62,6,6,0,0,0,1.91-.17l.87-.24s.23,0,.18,0a4.54,4.54,0,0,0,.6.24,6.56,6.56,0,0,1,1.44.63l.85.51v-1c0-.35-.11-1.27-.11-1.68,0,0,0-.06,0-.08s0,0,0-.06A5.18,5.18,0,0,0,51.3,71a5.68,5.68,0,0,0,1.56.3,9,9,0,0,0,1.75-.08,2.36,2.36,0,0,1,.31,0A4.63,4.63,0,0,1,55.83,71.15Zm-18.53-7a8,8,0,0,0-4.2-5.54h0a5.19,5.19,0,0,1-1.22-.73l-.66-.77a16.13,16.13,0,0,0,7.47,2.68c.4.07,1.71.3,2.81.46A23.92,23.92,0,0,0,38.4,63.8l-.23.34a2.07,2.07,0,0,0-.78.27Zm3.28,2A2.15,2.15,0,0,0,40.14,65c.2-.18,1.1-1,2.06-1.85-.32.94-.69,2-.93,2.48l-.2.43Zm9.17-7.66a2.39,2.39,0,0,1-.82.77,9,9,0,0,0-2.58,1.62,11.68,11.68,0,0,1,.73-1s.42-.46.52-.54a3.91,3.91,0,0,1,2.06-1.15h.09l.26,0Z"/><path class="cls-4" d="M24.65,38.66c3.78,1.31.6-1,.6-.89C26.53,38.81,24.65,38.66,24.65,38.66Z"/><path class="cls-4" d="M26.25,37.5a.85.85,0,0,1,.84-.89,1.66,1.66,0,0,1,1.59.81,6.11,6.11,0,0,1,.45,1.19s.13.37-.2.2a3.93,3.93,0,0,0-1.83-.52A.86.86,0,0,1,26.25,37.5Z"/><ellipse class="cls-4" cx="27.1" cy="37.42" rx="0.29" ry="0.31" transform="translate(-1.86 1.42) rotate(-2.89)"/><path class="cls-4" d="M49.09,51c4.13.62,2.79-1.24,2.76-1.27,2.17.53,2.36,1.43,2.39,1.45A6.77,6.77,0,0,1,49.09,51Z"/><path class="cls-4" d="M28.5,42.91c.16.37.16.72,0,.78s-.4-.19-.56-.56-.16-.72,0-.78S28.35,42.54,28.5,42.91Z"/><path class="cls-4" d="M29.91,45.26c.27.38.37.78.22.88s-.5-.12-.77-.51-.37-.78-.22-.88S29.63,44.87,29.91,45.26Z"/><path class="cls-4" d="M31.67,47.74c.38.51.53,1,.34,1.15s-.64-.17-1-.68-.52-1-.34-1.15S31.3,47.23,31.67,47.74Z"/><path class="cls-4" d="M33.81,50.37c.37.51.53,1,.34,1.15s-.64-.17-1-.68-.53-1-.34-1.15S33.44,49.86,33.81,50.37Z"/><path class="cls-4" d="M37.07,55.71c.68.34,1.13.82,1,1.06s-.78.16-1.46-.19-1.13-.82-1-1.06S36.39,55.37,37.07,55.71Z"/><path class="cls-4" d="M36.67,52.63c.6.47.94,1,.77,1.23s-.8,0-1.4-.46-.95-1-.77-1.23S36.07,52.16,36.67,52.63Z"/><path class="cls-4" d="M40.13,54.52c.67.36,1.11.85,1,1.09s-.79.14-1.46-.23-1.11-.85-1-1.09S39.46,54.16,40.13,54.52Z"/><path class="cls-5" d="M25.67,47.16s2.06,12,15.45,12.08c3.29,0,3.12-.39,3.12-.39l.26-.1a18.27,18.27,0,0,0,2-.83c0-.1,1.22-1.36,1.22-1.36l4.66-3.27-9.95-.94-5-2-2.31-2.52L34,46,33.49,44l-1.21-6-2.45-2.45-2.09-.36-3,.28-1-.58L20.41,33.3l2.23,2.85-3.83-.21L22.44,38l1.1,1.5Z"/><path class="cls-6" d="M24.65,38.66c3.78,1.31.6-1,.6-.89C26.53,38.81,24.65,38.66,24.65,38.66Z"/><path class="cls-7" d="M26.25,37.5a.85.85,0,0,1,.84-.89,1.66,1.66,0,0,1,1.59.81,6.11,6.11,0,0,1,.45,1.19s.13.37-.2.2a3.93,3.93,0,0,0-1.83-.52A.86.86,0,0,1,26.25,37.5Z"/><ellipse class="cls-1" cx="27.1" cy="37.42" rx="0.29" ry="0.31" transform="translate(-1.86 1.42) rotate(-2.89)"/><path class="cls-7" d="M27.69,45.24c.2.46.2.9,0,1s-.5-.23-.7-.7-.2-.9,0-1S27.5,44.77,27.69,45.24Z"/><path class="cls-7" d="M28.5,42.91c.16.37.16.72,0,.78s-.4-.19-.56-.56-.16-.72,0-.78S28.35,42.54,28.5,42.91Z"/><path class="cls-7" d="M29.91,45.26c.27.38.37.78.22.88s-.5-.12-.77-.51-.37-.78-.22-.88S29.63,44.87,29.91,45.26Z"/><path class="cls-7" d="M29.1,48.24c.31.55.39,1.08.19,1.18s-.61-.25-.92-.79-.39-1.08-.19-1.19S28.79,47.7,29.1,48.24Z"/><path class="cls-7" d="M31.67,47.74c.38.51.53,1,.34,1.15s-.64-.17-1-.68-.52-1-.34-1.15S31.3,47.23,31.67,47.74Z"/><path class="cls-7" d="M33.81,50.37c.37.51.53,1,.34,1.15s-.64-.17-1-.68-.53-1-.34-1.15S33.44,49.86,33.81,50.37Z"/><path class="cls-7" d="M28.52,51.69c.35.59.51,1.14.35,1.23S28.3,52.61,28,52s-.51-1.14-.35-1.23S28.17,51.1,28.52,51.69Z"/><path class="cls-7" d="M30.84,54.58c.5.48.78,1,.64,1.13s-.67-.13-1.17-.61-.78-1-.63-1.13S30.34,54.1,30.84,54.58Z"/><path class="cls-7" d="M33.82,56.73c.62.31,1,.71,1,.89s-.67.07-1.29-.24-1-.71-.95-.89S33.2,56.41,33.82,56.73Z"/><path class="cls-7" d="M37.07,55.71c.68.34,1.13.82,1,1.06s-.78.16-1.46-.19-1.13-.82-1-1.06S36.39,55.37,37.07,55.71Z"/><path class="cls-7" d="M31,51.12c.5.57.73,1.18.52,1.35s-.78-.15-1.28-.72-.73-1.18-.51-1.35S30.5,50.55,31,51.12Z"/><path class="cls-7" d="M33.68,53.84c.59.48.92,1,.75,1.25s-.8,0-1.39-.49-.92-1-.75-1.24S33.09,53.36,33.68,53.84Z"/><path class="cls-7" d="M36.67,52.63c.6.47.94,1,.77,1.23s-.8,0-1.4-.46-.95-1-.77-1.23S36.07,52.16,36.67,52.63Z"/><path class="cls-7" d="M40.13,54.52c.67.36,1.11.85,1,1.09s-.79.14-1.46-.23-1.11-.85-1-1.09S39.46,54.16,40.13,54.52Z"/><path class="cls-7" d="M40.74,56.82c.66.13,1.16.41,1.11.63s-.62.3-1.28.17-1.16-.41-1.11-.63S40.08,56.69,40.74,56.82Z"/><ellipse class="cls-7" cx="37.44" cy="58.32" rx="0.38" ry="1.22" transform="translate(-25.62 87.05) rotate(-81.8)"/><path class="cls-7" d="M43.74,56.21c.59.11,1,.35,1,.53s-.54.23-1.13.11-1-.35-1-.52S43.15,56.1,43.74,56.21Z"/><path class="cls-7" d="M27,48.52c.2.52.25,1,.11,1s-.42-.32-.62-.84-.25-1-.11-1S26.81,48,27,48.52Z"/><path class="cls-8" d="M52.54,64.75c.22-.23,1.13-.21,1.13-.21a4,4,0,0,0,1.22-2.08,2.87,2.87,0,0,1-.63,0,8.37,8.37,0,0,0-1.65,0,5.14,5.14,0,0,0-3.08,1.42,1.72,1.72,0,0,1,.62-.86,5.46,5.46,0,0,0,.57-2.35,8.09,8.09,0,0,0-.54-2,2.89,2.89,0,0,1-1,1,7.61,7.61,0,0,0-4.58,5,4.51,4.51,0,0,1-.62,1.2,7.65,7.65,0,0,1,1.72.36A43,43,0,0,1,56,66.66a73.08,73.08,0,0,0-9.2,0,9.1,9.1,0,0,1,1.19.75l0,0,0,0c.33.28.83.58,1.05.74l1,.51-.92.53c-.3.15-1.15.58-1.45.78a5.65,5.65,0,0,1-1.6.58,4.86,4.86,0,0,1,.94,1,7.92,7.92,0,0,1,.73,1.28,9.27,9.27,0,0,0,1.8.86,7.2,7.2,0,0,1,1.6.72s-.12-1.36-.11-1.83a4.87,4.87,0,0,0-.73-2.32,1.75,1.75,0,0,1-.68-.83,5.22,5.22,0,0,0,3.17,1.25,8.49,8.49,0,0,0,1.65-.08,2.88,2.88,0,0,1,.63,0,4.07,4.07,0,0,0-1.35-2s-.83,0-1.07-.19c0,0,4.37.1,5.71-1.92h0C57,64.62,52.54,64.75,52.54,64.75Z"/><path class="cls-8" d="M46.67,72A4.67,4.67,0,0,0,44,70.15a1.79,1.79,0,0,1,1.05.1,5.49,5.49,0,0,0,2.38-.64c.4-.25,1.62-.84,1.62-.84a5.79,5.79,0,0,1-1.38-.89,7.75,7.75,0,0,0-6.5-1.35,6.33,6.33,0,0,1-.65.08,2.13,2.13,0,0,1-.6,1.19,2.07,2.07,0,0,1-.4.31c1.35,3.53,5,8.44,5,8.44A35.66,35.66,0,0,1,39,68.35l-.29.05a2.12,2.12,0,0,1,.25.95,2.15,2.15,0,0,1-3.3,1.83,7,7,0,0,0-.49,3.68,6.34,6.34,0,0,1,.05,1.69s1.21-.81,1.6-1a5.43,5.43,0,0,0,1.78-1.66,1.69,1.69,0,0,1,.45-.93,4.42,4.42,0,0,0,.25,3.12A6.81,6.81,0,0,0,40,77.35a2.39,2.39,0,0,1,.3.49,4.13,4.13,0,0,0,1.23-2s-.45-.69-.36-1c0,0,2,3.5,4.44,3.63h0C46.77,76.36,44.57,73,44.57,73c.31.07.68.73.68.73a4.35,4.35,0,0,0,2.41,0,2.41,2.41,0,0,1-.27-.5A7,7,0,0,0,46.67,72Z"/><path class="cls-8" d="M34.6,69.35a2.1,2.1,0,0,1,.27-1,2.13,2.13,0,0,1-2-2.39c-3.36-.35-6.83-.32-6.83-.32A34.58,34.58,0,0,1,33,65.49a2.16,2.16,0,0,1,2-1.41,2.13,2.13,0,0,1,1.71.89,2.31,2.31,0,0,1,.2-.22c-.05-.15-.11-.31-.15-.49A7.43,7.43,0,0,0,32.86,59a5.94,5.94,0,0,1-1.4-.87s-.05,1.38-.11,1.8a5.25,5.25,0,0,0,.39,2.38,1.7,1.7,0,0,1,.52.89,4.64,4.64,0,0,0-2.76-1.58,7.25,7.25,0,0,0-1.52-.1,2.52,2.52,0,0,1-.58,0,4.09,4.09,0,0,0,1,2.14s.84,0,1,.28c0,0-4.09-.37-5.57,1.49h0C25,67.52,29,67.66,29,67.66c-.23.21-1,.13-1,.13a4.14,4.14,0,0,0-1.37,1.93,2.49,2.49,0,0,1,.58.07,7.25,7.25,0,0,0,1.52.17,4.69,4.69,0,0,0,3-1.07,1.72,1.72,0,0,1-.68.79c-.5.71,0,2-.06,2.5a5.22,5.22,0,0,1-.3,1.55A7.07,7.07,0,0,1,32.29,73a5.27,5.27,0,0,0,3-2.11A2.15,2.15,0,0,1,34.6,69.35Z"/><path class="cls-9" d="M33.28,66.23A1.77,1.77,0,0,0,35,68h.06l.52-.06-.28.37A1.74,1.74,0,0,0,35,69.35a1.76,1.76,0,1,0,3.2-1L37.94,68l.48.05a1.76,1.76,0,1,0,0-3.52,1.74,1.74,0,0,0-1.52.88l-.17.3-.17-.3a1.76,1.76,0,0,0-3.3.85Z"/><path class="cls-1" d="M34.61,65.69c-.22.3-.51.45-.66.34s-.09-.44.13-.74.51-.45.66-.34S34.82,65.39,34.61,65.69Z"/><path class="cls-1" d="M38,65.75c-.22.3-.51.45-.66.34s-.09-.44.13-.74.51-.45.66-.34S38.17,65.46,38,65.75Z"/><path class="cls-1" d="M36.34,68.73c-.22.3-.51.45-.66.34s-.09-.44.12-.74.51-.45.66-.34S36.56,68.43,36.34,68.73Z"/><path class="cls-6" d="M67,59.63s-.3-1.5-2.86-2.47a7.22,7.22,0,0,0,2.89.19A9.66,9.66,0,0,0,63,54.74l-4.21-1.65s2.9.72,3.8.89c0,0,.46.13.44-.1,0,0,0-.88-4.22-3a30.6,30.6,0,0,0-4.64-1.66s-9-7.53-20.18-9.76c0,0-1.66-2.39-2.35-3.12a6.55,6.55,0,0,0-4.83-2.56,6.37,6.37,0,0,0-2.67.64A2,2,0,0,1,23,34.18c-1.62-.9-2.86-1.52-2.86-1.52-.48-.12-.25.31-.25.31.27.52,2.14,2.87,2.14,2.87-2.89-.37-3.41-.12-3.41-.12-.31.06-.13.34-.13.34.12.21.87.56.87.56,1.09.5,2.83,1.56,2.83,1.56,1.27.87,2,4.44,2,4.44.73,2.87,1.52,5,1.52,5,.13.21-.08-.81-.08-.81-.08-.25-.29-1-.29-1-.33-1.38-.72-3.26-.72-3.26-.58-3.31-1.73-4.39-1.73-4.39a19.63,19.63,0,0,0-3.46-2,28.84,28.84,0,0,1,4.09.47l-2.44-2.83,1.63.94a5.56,5.56,0,0,0,.92.42,1.46,1.46,0,0,1,.33.73s.08.54.88.54a7.23,7.23,0,0,0,1.38-.27,5.26,5.26,0,0,1,3,.25s1.37.4,1.75,1.12c0,0,.21.35-.19.4a2.82,2.82,0,0,1-1.37-.12l0,.1a2.94,2.94,0,0,1,2,3.15s-.1,1.06-.13,1.42a4.06,4.06,0,0,0,1.25,3.67,2.74,2.74,0,0,1,.23-2.06,8.76,8.76,0,0,0,5,7.16s6,3.33,12.62,2.42a17.33,17.33,0,0,1-7.21.33s-1.63-.28-2-.36c0,0-2-.35-2.81-.37,0,0-.06.06.12.1A52,52,0,0,0,43.94,55s2,.54,2.46.69c0,0,.79.17.56.69,0,0-1.4,2.71-8.35,2.71,0,0,1.5.29,2.86.48a3.42,3.42,0,0,1,1.25.4,24.22,24.22,0,0,0-3.79,4.21,2.1,2.1,0,0,1,.71.35s2.5-2.33,3.89-3.37c0,0-1.12,3.5-1.67,4.71l1-.08s2.77-5.62,4.29-7a4.64,4.64,0,0,1,2.5-1.35,8.88,8.88,0,0,1,3.4.25,57.26,57.26,0,0,1,7.29,2.85s3.56,1.87,6,.48c0,0-3.67-1.89-4.35-2.25A11.69,11.69,0,0,0,67,59.63Z"/><path class="cls-1" d="M34.31,44.21s.91.82,1.56.16a6.7,6.7,0,0,0,1.52,2.94S35.45,47.19,34.31,44.21Z"/><path class="cls-1" d="M45.23,48.89a9.78,9.78,0,0,1,1.55,1.61,11.21,11.21,0,0,1-4.3-1.19,5.48,5.48,0,0,1,1.89,2.59A13,13,0,0,1,37.07,49l.11,0c2.71,1.55,4.46,1.52,4.45,1.46a10.9,10.9,0,0,0-1.94-3c4,1.57,5.29.65,5.32.65a2.81,2.81,0,0,0-.27-1.84c.68,1.18,4.68,2.5,4.76,2.52A11.23,11.23,0,0,1,45.23,48.89Z"/><path class="cls-1" d="M49.09,51c4.13.62,2.79-1.24,2.76-1.27,2.17.53,2.36,1.43,2.39,1.45A6.77,6.77,0,0,1,49.09,51Z"/><rect class="cls-10" width="84.53" height="87.67"/></g></g></svg>