<?xml version="1.0" encoding="utf-8"?>
<!-- Generator: Adobe Illustrator 23.0.3, SVG Export Plug-In . SVG Version: 6.00 Build 0)  -->
<svg version="1.1" id="icons" xmlns="http://www.w3.org/2000/svg" xmlns:xlink="http://www.w3.org/1999/xlink" x="0px" y="0px"
	 viewBox="0 0 512 512" style="enable-background:new 0 0 512 512;" xml:space="preserve">
<style type="text/css">
	.st0{fill:#FFFFFF;}
</style>
<path class="st0" d="M263.3,274.2c-2.8,2-4,5.6-2.9,8.9l26,79.9c1.1,3.3,4.1,5.5,7.6,5.5h84c3.5,0,6.5-2.2,7.6-5.5l26-79.9
	c1.1-3.3-0.1-6.9-2.9-8.9l-68-49.4c-2.8-2-6.6-2-9.4,0L263.3,274.2z M394.6,283.8l-22.4,68.9h-72.4l-22.4-68.9l58.6-42.6
	L394.6,283.8z"/>
<path class="st0" d="M8,264h156.6c-3,12.8-4.6,26.2-4.6,39.9c0,97,79,176,176,176c23.7,0,46.2-4.7,66.9-13.2c0,0,0,0,0.1,0
	C466.9,440.3,512,377.3,512,304c0-97-79-176-176-176c-10.9,0-21.6,1-32,3V40c0-4.4-3.6-8-8-8H8c-4.4,0-8,3.6-8,8v144v24v24v24
	C0,260.5,3.6,264,8,264L8,264z M183.6,216c-1.5,2.6-3,5.3-4.4,8H16v-8H183.6z M280.2,154.2l-21.2,43l-47.8,7
	C229.1,181.8,252.9,164.4,280.2,154.2z M194.1,200H16v-8h184.3C198.1,194.6,196.1,197.3,194.1,200z M16,176v-14.5
	c6.8,2.4,12.1,7.7,14.5,14.5L16,176L16,176z M16,248v-8h156.1c-1,2.6-2,5.3-2.9,8H16z M203,392.7c-16.1-24-25.7-52.6-26.7-83.3
	l35.1,34.2L203,392.7z M291.6,457.6l44.4-23.3l44.4,23.3c-14.1,4.1-29,6.4-44.4,6.4S305.7,461.7,291.6,457.6z M460.6,343.7
	l35.1-34.2c-1,30.7-10.6,59.3-26.7,83.3L460.6,343.7z M460.8,204.2l-47.8-7l-21.2-43C419.1,164.4,442.9,181.8,460.8,204.2z
	 M370.9,147.9l29.7,60.1c1.2,2.4,3.4,4,6,4.4l66.6,9.7c11.7,19.6,19.5,41.7,21.9,65.5l-48.8,47.5c-1.9,1.8-2.7,4.5-2.3,7.1
	l11.6,67.5c-15.2,17.1-33.8,31-55,40.4l-61-32.1c-2.3-1.2-5.1-1.2-7.4,0l-61,32.1c-21.2-9.4-39.8-23.3-55-40.4l11.6-67.5
	c0.4-2.6-0.4-5.2-2.3-7.1l-48.8-47.5c1-9.7,3-19.1,5.6-28.3c0.3-0.6,0.4-1.4,0.5-2.1c3.8-12.5,9.2-24.2,15.8-35.2l66.6-9.7
	c2.6-0.4,4.8-2,6-4.4l29.7-60.1c11.2-2.5,22.9-3.9,34.9-3.9S359.6,145.4,370.9,147.9L370.9,147.9z M215.3,176H47.2
	C44,160.4,31.6,148,16,144.9V79.2C31.6,76,44,63.7,47.2,48h209.6c3.2,15.7,15.5,28,31.2,31.2v55.4
	C260.4,142.5,235.6,156.9,215.3,176L215.3,176z M288,62.6c-6.8-2.4-12.1-7.8-14.5-14.5H288V62.6z M30.5,48
	c-2.4,6.8-7.7,12.1-14.5,14.5V48H30.5z"/>
<path class="st0" d="M152,72c-22.1,0-40,17.9-40,40s17.9,40,40,40s40-17.9,40-40S174.1,72,152,72z M152,136c-13.2,0-24-10.8-24-24
	s10.8-24,24-24s24,10.8,24,24S165.2,136,152,136z"/>
</svg>
