<?xml version="1.0" encoding="utf-8"?>
<!-- Generator: Adobe Illustrator 24.0.0, SVG Export Plug-In . SVG Version: 6.00 Build 0)  -->
<svg version="1.1" id="spon-juventus" xmlns="http://www.w3.org/2000/svg" xmlns:xlink="http://www.w3.org/1999/xlink" x="0px"
	 y="0px" viewBox="0 0 36.5 73" style="enable-background:new 0 0 36.5 73;" xml:space="preserve">
<style type="text/css">
	.st0{fill:#FFFFFF;}
</style>
<g>
	<path class="st0" d="M28.4,44.8c0,13.8-5.8,17.4-17.8,23.2c1.5,1,3.6,2.3,7.1,3.9c9.1-4.3,18-10,18-25.1v-32h-7.3V44.8z M21.4,14.8
		H-0.3v6.4h14.4v20.3c0,9.3-0.6,10.1-12.7,15.6c0.9,2.1,2.1,4.2,3.6,6.1c13.6-6.1,16.3-9.2,16.3-19.7V14.8z M2.6,0.4v5.6
		c0,1.5-0.9,2.5-2.6,2.5h-0.3V7.3h0.2c0.8,0,1.3-0.4,1.3-1.3V1.6h-1.3V0.4H2.6z M5.1,7.3h1.3V0.4h1.3v6.8c0,0.9-0.5,1.3-1.3,1.3H5.1
		C4.2,8.5,3.7,8,3.7,7.2V0.4h1.3V7.3z M11.3,5.4V0.5h1.3v5c0,2.3-1.2,3-3.2,3H8.7V0.4H10v6.7h0.1C10.9,7.2,11.3,6.4,11.3,5.4z
		 M15.1,1.7v2.1h1.5l-0.3,1.1H15v2.3h2l-0.2,1.2h-3v-8h3l0.2,1.2L15.1,1.7L15.1,1.7z M20.4,0.4h1.3v8h-1.3V5.7L19.2,3h-0.1v5.5h-1.3
		v-8h1.3l1.3,3h0.1C20.4,3.5,20.4,0.4,20.4,0.4z M26.3,1.7h-1.3v6.8h-1.3V1.7h-1.3l0.2-1.2h3.4L26.3,1.7z M28.3,7.3h1.3V0.5h1.3v6.8
		c0,0.9-0.5,1.3-1.3,1.3h-1.3c-0.9,0-1.3-0.5-1.3-1.3V0.5h1.3V7.3z M31.9,5.9h1.3v1.6h1.2V6.3c0-0.5-0.1-0.8-0.5-1.1l-1.3-0.8
		c-0.5-0.3-0.7-0.9-0.7-1.3V1.8c0-0.9,0.5-1.3,1.3-1.3h1.3c0.9,0,1.3,0.5,1.3,1.3v1l-1.3,0.3V1.5h-1.1v1.2c0,0.4,0.1,0.7,0.5,0.9
		l1.2,0.7c0.5,0.3,0.8,0.8,0.8,1.5v1.5c0,0.9-0.5,1.2-1.3,1.2h-1.2c-0.9,0-1.3-0.3-1.3-1.2V5.9H31.9z"/>
</g>
</svg>
