<?xml version="1.0" encoding="utf-8"?>
<!-- Generator: Adobe Illustrator 24.0.0, SVG Export Plug-In . SVG Version: 6.00 Build 0)  -->
<svg version="1.1" id="spon-juventus" xmlns="http://www.w3.org/2000/svg" xmlns:xlink="http://www.w3.org/1999/xlink" x="0px"
	 y="0px" viewBox="0 0 142.7 73" style="enable-background:new 0 0 142.7 73;" xml:space="preserve">
<style type="text/css">
	.st0{fill:#FFFFFF;}
</style>
<g>
	<g>
		<path class="st0" d="M0,0.2c0.1,0,0.3,0,0.4,0c8.7,0,17.4,0,26.2,0c0.2,0,0.3,0,0.5,0c0,0.1,0,0.2,0,0.3s0,0.2,0,0.4
			c0,11.7,0,23.3,0,35c0,1.8,0,3.7-0.3,5.5c-0.3,2.3-0.8,4.5-1.9,6.5c-1.1,2.1-2.7,3.8-4.5,5.2c-1.7,1.3-3.4,2.4-5.3,3.4
			c-2.7,1.5-5.4,2.7-8.2,4c-0.1,0-0.1,0-0.2,0.1c-1.9-2.3-3.4-4.8-4.5-7.6c0.2-0.1,0.3-0.2,0.5-0.2c2.5-1.2,5.1-2.3,7.6-3.6
			c1.4-0.7,2.7-1.5,3.9-2.5c2-1.6,3.1-3.7,3.5-6.2c0.3-1.9,0.3-3.7,0.3-5.6c0-8.7,0-17.4,0-26.1c0-0.1,0-0.3,0-0.5
			c-0.2,0-0.4,0-0.5,0c-5.2,0-10.4,0-15.6,0c-0.6,0-1.2,0-1.8,0C0,5.5,0,2.8,0,0.2z"/>
		<path class="st0" d="M13.7,66.6c0.2-0.1,0.3-0.2,0.5-0.2c2.7-1.3,5.4-2.7,8-4.2c2.1-1.2,4.1-2.6,6-4.1c3.7-3.1,5.9-7.1,6.9-11.8
			c0.6-2.7,0.8-5.5,0.8-8.3c0-12.4,0-24.7,0-37.1c0-0.2,0-0.4,0-0.6c3.1,0,6.1,0,9.1,0c0,0.2,0,0.3,0,0.5c0,2.9,0,5.8,0,8.7
			c0,10.1,0,20.2,0,30.3c0,2.2-0.1,4.4-0.4,6.5c-0.9,6.2-3.4,11.6-7.9,16c-1.8,1.8-3.7,3.3-5.9,4.7c-2.6,1.7-5.3,3.1-8.1,4.4
			c-0.2,0.1-0.3,0.1-0.5,0c-2.9-1.4-5.7-2.9-8.4-4.6C13.8,66.7,13.8,66.7,13.7,66.6z"/>
	</g>
	<g>
		<path class="st0" d="M68.4,0.1h3.4c-0.1,0.6-0.1,1.5-0.2,2.8c-0.1,0.6-0.1,1.1-0.1,1.4h4.1C75,3.7,74.2,3,73.3,2.2l2-2
			c0.8,0.6,1.8,1.4,3.2,2.5c-0.1-0.1,0,0,0.2,0.2l-1.6,1.5h3.6v3.1h-9.5c-0.3,4.9-2.6,8.7-6.9,11.6c-0.1-0.2-0.3-0.4-0.6-0.6
			c-0.4-0.5-1-1.1-2-2c3.7-2.5,5.7-5.5,6-9H62V4.3h6C68.3,3.1,68.4,1.7,68.4,0.1z M77.8,11.3c1.1,0.3,2.2,0.6,3.2,0.9
			c-0.1,1.1-0.3,2.2-0.5,3.4c-0.3,2-1.5,2.9-3.6,2.8h-2.4c-2,0-3.1-1.1-3.1-3.2V8.5h3.3v5.8c0,0.9,0.4,1.3,1.2,1.3h0.5
			c0.6,0,1-0.4,1.2-1.3c0-0.2,0-0.4,0.1-0.9C77.7,12.6,77.7,11.8,77.8,11.3z"/>
		<path class="st0" d="M89.5,0.2L93.3,0c0.2,0.9,0.3,1.9,0.4,2.8h7.3v3h-2.8c-0.9,3.1-2.2,5.5-4,7.2c1.9,1.2,4.3,2,7.1,2.6
			c-0.8,1-1.4,2.1-2,3.1c-3.1-0.9-5.7-2.1-7.7-3.4c-1.9,1.3-4.5,2.4-7.6,3.5c-0.1-0.1-0.1-0.1-0.2-0.2c-0.8-1.3-1.4-2.2-1.8-2.7
			c2.8-0.8,5.1-1.8,6.9-2.9c-1.7-1.9-3-4.4-3.9-7.2h-2.8v-3h8C90.1,2.5,90,2,89.9,1.5C89.7,0.9,89.6,0.4,89.5,0.2z M91.6,11
			c1.5-1.4,2.5-3.2,3.1-5.2h-6.1C89.2,7.9,90.3,9.6,91.6,11z"/>
		<path class="st0" d="M102.9,18.9V0.6h17.8V19h-3.1v-0.8H106V19h-3.1V18.9z M106,6.1c1.3-0.9,2.3-1.9,3.1-2.9H106V6.1z M107.3,7.8
			c-0.1-0.1-0.3-0.3-0.6-0.6c-0.3-0.4-0.6-0.6-0.7-0.8v2.3c0.2-0.1,0.5-0.1,0.9-0.2c1.2-0.2,2.1-0.4,2.6-0.5c-0.4-0.3-0.7-0.7-1.1-1
			c-0.1,0.1-0.1,0.1-0.2,0.2C108,7.4,107.7,7.6,107.3,7.8z M107.1,12.2c3.7,0.5,7,0.9,9.8,1.3l-0.5,2h1.2V8.8
			c-0.2,0.3-0.5,0.8-0.8,1.6c0.3-0.5,0.2-0.4-0.1,0.2c-2.3-0.3-3.9-0.7-4.9-1.2c-0.3,0.1-0.7,0.2-1.3,0.4c-0.4,0.1-0.7,0.2-0.9,0.2
			c0.6,0.1,1.5,0.2,2.7,0.4c1.6,0.2,2.8,0.4,3.6,0.5l-0.4,1.9c-0.3-0.1-0.8-0.1-1.6-0.2c-2.9-0.4-5-0.7-6.2-0.8l0.3-1.3
			c-0.5,0.2-0.9,0.3-1.4,0.3c-0.2-0.5-0.5-1.1-0.8-1.7v6.5h8.7c-0.7-0.1-1.8-0.3-3.2-0.5c-2.4-0.4-4-0.6-4.9-0.7L107.1,12.2z
			 M110.1,6c0.5,0.5,1.1,0.9,1.8,1.3c0.7-0.4,1.4-0.8,1.9-1.3H110.1z M117,4v1.9c-0.8,0.8-1.6,1.5-2.4,2.1c0.8,0.2,1.8,0.3,3,0.3
			V3.2H112c-0.1,0.1-0.2,0.2-0.3,0.4c-0.2,0.2-0.3,0.3-0.3,0.4H117z"/>
		<path class="st0" d="M132.9,4.2H132v7.7h1.3c0-0.5,0-1,0-1.7V1.4c2.2-0.2,4.6-0.6,7.2-1.2l1,3.1c-1.5,0.3-3.2,0.6-5.3,0.8V6h5.4v3
			h-1.3v9.5h-2.9V9h-1.1v1.5c0.1,3.3-0.5,6.1-1.8,8.6c-0.6-0.6-1.3-1.2-1.9-1.7l-2,1.5c-0.1-0.1-0.2-0.3-0.4-0.5
			c-0.9-1.2-1.7-2.1-2.3-2.8l1.7-1.2H126l1.7,1.2c-1.2,1.4-2.2,2.5-3,3.4l-2.4-2c0.8-0.6,1.6-1.5,2.5-2.6h-2.5v-2.6h1.3V4.2h-0.9
			V1.6h0.9V0.1h3v1.5h2.4V0.1h3v1.5h0.9V4.2z M126.6,4.2v1h2.4v-1H126.6z M126.6,7.5v1.1h2.4V7.5H126.6z M126.6,10.8v1.1h2.4v-1.1
			H126.6z M132.2,16.4c0.2-0.3,0.3-0.7,0.5-1.3c0.1-0.3,0.2-0.5,0.2-0.6h-2.5c0.2,0.2,0.5,0.6,0.9,1
			C131.8,15.9,132.1,16.2,132.2,16.4z"/>
		<path class="st0" d="M62.4,33.6v-4.8h7.3c-0.1-0.2-0.1-0.4-0.2-0.8c-0.1-0.3-0.2-0.6-0.2-0.7l4-0.2c0,0.1,0.1,0.3,0.2,0.6
			c0.1,0.5,0.1,0.9,0.2,1.1h6.9v4.8h-2.1v4.8H67.2v1h12V46H76v-0.7h-8.8v0.9H64V33.6H62.4z M65.5,31.4v1.1h11.9v-1.1H65.5z
			 M67.2,34.9V36h8v-1.2h-8V34.9z M76.1,41.9h-8.8v1.2h8.8V41.9z"/>
		<path class="st0" d="M82.5,29.7h7.6c-0.2-0.5-0.4-1.2-0.6-2c-0.1-0.1-0.1-0.1-0.1-0.2l3.9-0.2c0.2,0.5,0.3,1.3,0.6,2.4h6.9v2.9
			H90.2c-0.1,0.7-0.1,1.5-0.1,2.3h8.7c-0.1,3.2-0.2,5.6-0.4,7.3c-0.1,2.3-1.3,3.4-3.8,3.4c-0.8,0.1-2.2,0.1-3.9,0.1
			c-0.2-0.9-0.4-1.9-0.7-3c1.3,0,2.3,0,3.2,0c1.3,0.1,2-0.5,2-1.8c0.1-0.3,0.1-0.8,0.1-1.6c0.1-0.6,0.1-1.1,0.1-1.5h-5.6
			c-0.3,3.3-2,6-5.2,8.4c-0.9-0.9-1.7-1.7-2.5-2.4c3-2.1,4.6-4.8,4.6-8.1c0.1-0.3,0.1-0.8,0.1-1.6c0.1-0.6,0.1-1.1,0.1-1.5h-4.3
			L82.5,29.7L82.5,29.7z"/>
		<path class="st0" d="M63.5,62.9C63,62,62.4,61,61.7,60c4.3-1.9,7-4.1,8.3-6.5l3.9,0.2c-0.2,0.3-0.3,0.6-0.6,0.9
			c1.9,2.2,4.5,3.9,7.9,5.1c-0.6,0.9-1.2,1.9-1.7,2.9c-1.1-0.6-2-1.1-2.8-1.6v1.5H66.4v-1.3C65.4,61.7,64.5,62.3,63.5,62.9z
			 M64,72.5v-8.7h14.9v8.7h-3.2v-0.9h-8.6v0.9H64z M67.2,66.7V69h8.6v-2.3H67.2z M71.7,56.7c-0.9,1.1-2,2.1-3.3,3.1h6.4
			C73.7,59,72.7,58,71.7,56.7z"/>
		<path class="st0" d="M87.5,72.4h-3.1v-8.5c-0.1,0.1-0.2,0.3-0.3,0.5c-0.5,0.8-1,1.4-1.3,1.8c-0.2-1-0.4-2.4-0.8-3.9
			c1.6-2.5,2.8-5.4,3.6-8.6l3.2,0.8c-0.3,1.2-0.7,2.3-1.3,3.5v3.2c1.5-2.1,2.6-4.6,3.4-7.6l3.2,0.6c-0.1,0.4-0.3,0.9-0.6,1.5
			c-0.1,0.3-0.2,0.5-0.2,0.6h8v3h-5.9v2h4.7v2.9h-4.7v2h5.4v2.9h-5.4v3.2h-3.2v-13H92c-0.8,1.6-1.7,3.1-2.6,4.5
			c-0.4-0.4-0.9-1-1.6-1.9c-0.2-0.2-0.3-0.4-0.4-0.5v11H87.5z"/>
		<path class="st0" d="M105.9,53.6l3.2,0.9c-0.5,1.5-1.1,2.8-1.8,4.1v11.1c2.9-2,4.6-4.5,4.9-7.2l-2.6,1.1c-0.4-1.3-1.1-3.1-2-5.4
			l2.8-1c0.2,0.4,0.4,1.1,0.8,2c0.2,0.5,0.6,1.5,1.2,3.1c0.1-0.7,0.2-1.4,0.2-2.3c0.1-2.3,0.2-4.3,0.2-6.2h3.2
			c0,1.4-0.1,3.4-0.2,5.9c0.1,0.2,0.1,0.4,0.2,0.8c0.1,0.8,0.2,1.3,0.3,1.7c1-1.7,1.8-3.3,2.4-4.9l2.7,1.2c-0.7,1.8-1.6,3.5-2.5,5.3
			l-2.5-1.4c0.6,2.7,2.4,5.1,5.2,7.2c-0.4,0.4-0.9,1-1.7,2c-0.3,0.5-0.6,0.8-0.7,0.9c-2.3-2-3.9-4.3-4.6-6.6
			c-0.6,2.3-2.3,4.6-5.1,6.9c-0.8-1.2-1.5-2-2-2.5v2.3h-3.1v-8.7c-0.5,0.8-1,1.5-1.6,2.2c-0.2-1.6-0.3-3-0.5-4.4
			C103.8,59.2,105,56.6,105.9,53.6z"/>
		<path class="st0" d="M127.5,72.4h-3.2v-8.5c-0.5,0.7-1,1.4-1.5,2.1c-0.1-0.3-0.1-0.8-0.2-1.5c-0.2-1.4-0.3-2.4-0.3-3
			c1.4-2.3,2.6-5,3.5-8l3.1,0.9c-0.4,1.3-0.8,2.6-1.4,3.9C127.5,58.3,127.5,72.4,127.5,72.4z M128.5,60.7h4.6v-7h3.2v7h4.6v2.9h-4.6
			v1.7h5.1v2.9h-5.1v4.2h-3.2v-4.2H128v-2.9h5.1v-1.7h-4.6V60.7z M131.1,55c0.2,0.4,0.5,1.1,0.9,2s0.7,1.5,0.9,2l-2.7,1.2
			c-0.2-0.3-0.4-0.8-0.6-1.5c-0.5-1.1-0.9-1.9-1.2-2.5L131.1,55z M141.4,56.1c-0.6,1.3-1.3,2.6-2.1,4.1l-2.7-1.3
			c0.5-0.8,1.1-1.9,1.9-3.4c0.1-0.3,0.2-0.4,0.2-0.6L141.4,56.1z"/>
	</g>
</g>
</svg>
