<?xml version="1.0" encoding="utf-8"?>
<!-- Generator: Adobe Illustrator 23.0.4, SVG Export Plug-In . SVG Version: 6.00 Build 0)  -->
<svg version="1.1" id="spon-juventus" xmlns="http://www.w3.org/2000/svg" xmlns:xlink="http://www.w3.org/1999/xlink" x="0px"
	 y="0px" viewBox="0 0 189 73" style="enable-background:new 0 0 189 73;" xml:space="preserve">
<style type="text/css">
	.st0{fill-rule:evenodd;clip-rule:evenodd;fill:#FFFFFF;}
	.st1{filter:url(#Adobe_OpacityMaskFilter);}
	.st2{mask:url(#spon-juventus-b_1_);fill-rule:evenodd;clip-rule:evenodd;fill:#FFFFFF;}
	.st3{filter:url(#Adobe_OpacityMaskFilter_1_);}
	.st4{mask:url(#spon-juventus-d_1_);fill-rule:evenodd;clip-rule:evenodd;fill:#FFFFFF;}
	.st5{filter:url(#Adobe_OpacityMaskFilter_2_);}
	.st6{mask:url(#spon-juventus-d_2_);fill-rule:evenodd;clip-rule:evenodd;fill:#FFFFFF;}
	.st7{filter:url(#Adobe_OpacityMaskFilter_3_);}
	.st8{mask:url(#spon-juventus-d_3_);fill-rule:evenodd;clip-rule:evenodd;fill:#FFFFFF;}
	.st9{filter:url(#Adobe_OpacityMaskFilter_4_);}
	.st10{mask:url(#spon-juventus-d_4_);fill-rule:evenodd;clip-rule:evenodd;fill:#FFFFFF;}
	.st11{filter:url(#Adobe_OpacityMaskFilter_5_);}
	.st12{mask:url(#spon-juventus-d_5_);fill-rule:evenodd;clip-rule:evenodd;fill:#FFFFFF;}
	.st13{filter:url(#Adobe_OpacityMaskFilter_6_);}
	.st14{mask:url(#spon-juventus-d_6_);fill-rule:evenodd;clip-rule:evenodd;fill:#FFFFFF;}
	.st15{filter:url(#Adobe_OpacityMaskFilter_7_);}
	.st16{mask:url(#spon-juventus-d_7_);fill-rule:evenodd;clip-rule:evenodd;fill:#FFFFFF;}
</style>
<g transform="translate(.1 .2)">
	<path class="st0" d="M0,8h18.1v25.7c0,11.7-0.7,12.8-15.9,19.6C3.2,56,4.7,58.6,6.7,61c17.2-7.7,20.5-11.6,20.5-24.9V0H0"/>
	<g transform="translate(13.613)">
		<defs>
			<filter id="Adobe_OpacityMaskFilter" filterUnits="userSpaceOnUse" x="0.1" y="0" width="31.5" height="72.1">
				<feColorMatrix  type="matrix" values="1 0 0 0 0  0 1 0 0 0  0 0 1 0 0  0 0 0 1 0"/>
			</filter>
		</defs>
		<mask maskUnits="userSpaceOnUse" x="0.1" y="0" width="31.5" height="72.1" id="spon-juventus-b_1_">
			<g class="st1">
				<polygon id="spon-juventus-a_1_" class="st0" points="0.1,0 31.6,0 31.6,72.1 0.1,72.1 				"/>
			</g>
		</mask>
		<path class="st2" d="M22.4,0v37.9h0c0,17.5-7.3,21.9-22.3,29.3C2,68.4,4.6,70,9,72.1c11.5-5.4,22.6-12.6,22.6-31.7V0H22.4z"/>
	</g>
	<defs>
		<filter id="Adobe_OpacityMaskFilter_1_" filterUnits="userSpaceOnUse" x="58.7" y="2.2" width="129.5" height="62.4">
			<feColorMatrix  type="matrix" values="1 0 0 0 0  0 1 0 0 0  0 0 1 0 0  0 0 0 1 0"/>
		</filter>
	</defs>
	<mask maskUnits="userSpaceOnUse" x="58.7" y="2.2" width="129.5" height="62.4" id="spon-juventus-d_1_">
		<g class="st3">
			<polygon id="spon-juventus-c_1_" class="st0" points="0,72.1 188.3,72.1 188.3,0 0,0 			"/>
		</g>
	</mask>
	<path class="st4" d="M63.1,22.1h10v-2.7h-10V22.1z M63.1,13.4h9.2v-2.5h-9.2V13.4z M73,24.9v-1h-10v1.2h-2.2V9h13.5v6.5H63.1v2
		h12.2v7.5H73z M58.7,9.7V4.9h8.1c-0.2-0.9-0.5-1.6-0.7-2.3l2.6-0.4c0.1,0.2,0.1,0.4,0.2,0.8c0.3,0.8,0.4,1.5,0.5,1.9h7.5v4.9h-2.2
		V7H60.8v2.8H58.7z M80.5,8.4V5.9h8.8c-0.3-1-0.7-2.1-1-3.2l2.5-0.3c0.3,0.9,0.7,2.1,1.1,3.5h7.5v2.5H87.8c0,1.1-0.1,2.3-0.2,3.6H97
		c-0.1,1.5-0.2,3.7-0.3,6.7c-0.1,0.8-0.1,1.3-0.1,1.6c-0.1,2.9-1.4,4.2-4,4.2c-0.5,0-1.1,0-1.9,0.1h-1.7c-0.1-0.4-0.2-1.1-0.4-2.1
		c-0.1-0.1-0.1-0.3-0.1-0.4h1.6c0.7,0.1,1.3,0.1,1.7,0.1c1.6,0.1,2.4-0.8,2.5-2.7c0.2-1.5,0.2-3.2,0.2-5.1h-7.2
		c-0.2,4.4-2.1,8-5.6,10.8l-1.8-2c3.4-2.5,5.1-6,5.1-10.5c0.1-1.8,0.2-3.2,0.2-4.4H80.5z M118,14.8h-5.8c0.7,1.8,1.7,3.2,2.8,4.4
		C116.3,17.9,117.3,16.5,118,14.8L118,14.8z M110,11.9c-0.5-0.8-0.9-1.4-1.3-2c1.8-1,2.7-2.5,2.5-4.8V3.3h7.9v4
		c-0.1,0.9,0.3,1.4,1,1.3h1.7c-0.1,0.4-0.2,1.1-0.3,1.9v0.3h-2.2c-1.6,0.1-2.4-0.8-2.3-2.6V5.5h-3.8v0.7
		C113.3,8.6,112.3,10.5,110,11.9L110,11.9z M120.8,24.9c-2.3-0.8-4.3-1.7-5.9-2.8c-1.6,1.1-3.5,2.1-6,2.9c-0.1-0.3-0.3-0.6-0.5-1.1
		c-0.3-0.5-0.5-0.9-0.6-1.1c2.1-0.5,3.9-1.3,5.4-2.3c-1.3-1.6-2.4-3.3-3.1-5.2l0.9-0.6h-1.4v-2.3h10.5v2.4c-0.9,2.2-2.1,4.1-3.6,5.7
		c1.4,1,3.2,1.7,5.2,2.1c-0.2,0.4-0.5,1-1,1.9C120.9,24.7,120.8,24.9,120.8,24.9L120.8,24.9z M102.6,8.9V6.7h2.3V2.5h1.9v4.2h2.2
		v2.3h-2.2v4.2l2-0.5c-0.1,0.9-0.1,1.7,0,2.4l-2,0.6v6.5c0.1,1.8-0.6,2.8-2,2.8c-0.5,0.1-1.1,0.1-1.9,0.1c-0.1-0.5-0.1-1.2-0.2-2
		c-0.1-0.3-0.1-0.4-0.1-0.5h1.4c0.7,0.1,1-0.3,1-1v-5.1l-2.4,0.8l-0.2-2.7c0.2-0.1,0.5-0.2,1-0.3c0.7-0.2,1.2-0.3,1.6-0.4V8.9H102.6
		z M130.3,8.9V6.5h5.9c-0.2-0.4-0.4-1.2-0.8-2.4c-0.2-0.6-0.3-1.1-0.4-1.3l2.3-0.5c0,0.1,0,0.2,0.1,0.3c0.5,1.5,0.9,2.7,1.1,3.4
		l-1.9,0.5h6.8v2.5h-5.4v4.8h4.9v2.4h-4.9v5.5h6V24h-14.6v-2.3h6.4v-5.5h-4.9v-2.4h4.9V8.9H130.3z M128.5,7.9
		c-1.1-1.1-2.3-2.2-3.4-3.2l1.4-1.9c1.2,1,2.3,2.1,3.5,3.1L128.5,7.9z M127.1,24.9l-2.2-0.9c0.9-2.8,1.6-5.6,2.3-8.4
		c0.1,0,0.2,0.1,0.3,0.2c0.8,0.3,1.4,0.5,1.8,0.7c-0.3,1.2-0.9,3.4-1.7,6.5C127.3,23.8,127.2,24.5,127.1,24.9L127.1,24.9z
		 M127.8,14.1c-1.1-1.1-2.2-2.2-3.3-3.3l1.4-1.8c1.3,1.3,2.5,2.3,3.4,3.2L127.8,14.1z M162.9,14l-1.9-1.2c0.8-1.5,1.8-3.4,2.9-5.7
		l1.9,1c-0.4,0.9-1.1,2.3-1.9,4.1C163.4,13,163.1,13.6,162.9,14L162.9,14z M154.4,14c-0.7-1.9-1.5-3.9-2.4-5.9l1.8-1
		c0.9,2.1,1.7,4,2.5,5.8L154.4,14z M153.1,25.1c-0.1-0.2-0.3-0.5-0.6-1c-0.4-0.6-0.7-1.1-0.9-1.3c4.1-3,6.1-7.7,6.1-13.9
		c0.1-2.4,0.1-4.6,0.1-6.6h2.3c0,0.7,0,1.8-0.1,3.3c0,1.5,0,2.6-0.1,3.3c0.4,6,2.5,10.4,6.4,13.4c-0.2,0.3-0.5,0.7-0.9,1.3
		c-0.3,0.5-0.6,0.9-0.7,1c-3.1-2.9-5-6.2-5.7-10.1C158.4,18.7,156.5,22.2,153.1,25.1L153.1,25.1z M147,16.2
		c-0.1-0.6-0.2-1.6-0.4-2.9c-0.1-0.2-0.1-0.3-0.1-0.5c2-3.2,3.4-6.7,4.3-10.6l2.2,0.8c-0.5,1.8-1.2,3.6-1.9,5.2V25h-2.1V12.8
		C148.3,14.2,147.6,15.4,147,16.2L147,16.2z M185.2,10.1l-1.8-1.1c0.7-1.1,1.5-2.6,2.4-4.6l1.9,1c-0.4,0.8-1,1.9-1.9,3.5
		C185.6,9.5,185.4,9.8,185.2,10.1L185.2,10.1z M177.2,10c-0.7-1.5-1.4-3-2.3-4.6l1.8-1c0.8,1.5,1.6,3,2.3,4.5L177.2,10z M175.1,13.5
		v-2.4h5.1V2.4h2.2v8.7h5.1v2.4h-5.1v3.2h5.9v2.4h-5.9v6h-2.2v-6h-5.8v-2.4h5.8v-3.2H175.1z M169.2,16.3c-0.1-0.3-0.1-0.6-0.2-1.1
		c-0.2-1-0.3-1.8-0.3-2.3c1.7-2.9,3.1-6.4,4.2-10.6l2.1,0.8c-0.5,1.7-1,3.4-1.7,5.1V25h-2.1V12.8C170.6,14.1,169.9,15.2,169.2,16.3
		L169.2,16.3z M160.4,64.6h4.5c3.2,0,4.9-1.6,4.9-4.6V35.7h-4.9v24.7h-4.5V35.7h-4.9V60C155.5,63,157.1,64.6,160.4,64.6"/>
	<defs>
		<filter id="Adobe_OpacityMaskFilter_2_" filterUnits="userSpaceOnUse" x="139.3" y="35.7" width="14.3" height="28.7">
			<feColorMatrix  type="matrix" values="1 0 0 0 0  0 1 0 0 0  0 0 1 0 0  0 0 0 1 0"/>
		</filter>
	</defs>
	<mask maskUnits="userSpaceOnUse" x="139.3" y="35.7" width="14.3" height="28.7" id="spon-juventus-d_2_">
		<g class="st5">
			<polygon id="spon-juventus-c_2_" class="st0" points="0,72.1 188.3,72.1 188.3,0 0,0 			"/>
		</g>
	</mask>
	<polygon class="st6" points="144.1,64.4 148.9,64.4 148.9,40.2 153.6,40.2 152.8,35.7 140.2,35.7 139.3,40.2 144.1,40.2 	"/>
	<defs>
		<filter id="Adobe_OpacityMaskFilter_3_" filterUnits="userSpaceOnUse" x="173.5" y="35.5" width="13.7" height="29.1">
			<feColorMatrix  type="matrix" values="1 0 0 0 0  0 1 0 0 0  0 0 1 0 0  0 0 0 1 0"/>
		</filter>
	</defs>
	<mask maskUnits="userSpaceOnUse" x="173.5" y="35.5" width="13.7" height="29.1" id="spon-juventus-d_3_">
		<g class="st7">
			<polygon id="spon-juventus-c_3_" class="st0" points="0,72.1 188.3,72.1 188.3,0 0,0 			"/>
		</g>
	</mask>
	<path class="st8" d="M178.3,64.6h4.2c2.6,0,4.6-1.2,4.6-4.3v-5.6c0-2.3-1-3.9-2.9-5.1l-4.2-2.7c-1.4-0.9-1.9-1.8-1.9-3.2v-4.3h4.1
		v6.4l4.8-1.2v-4.5c0-3-1.3-4.6-4.5-4.6h-4.5c-2.5,0-4.5,1.6-4.5,4.6v5.4c0,1.6,0.8,3.4,2.5,4.5l4.4,2.8c1.5,1,2,1.8,2,3.8v4h-4.2
		v-5.7h-4.8v5.4C173.5,63.3,175.1,64.6,178.3,64.6"/>
	<defs>
		<filter id="Adobe_OpacityMaskFilter_4_" filterUnits="userSpaceOnUse" x="123" y="35.7" width="14.2" height="28.7">
			<feColorMatrix  type="matrix" values="1 0 0 0 0  0 1 0 0 0  0 0 1 0 0  0 0 0 1 0"/>
		</filter>
	</defs>
	<mask maskUnits="userSpaceOnUse" x="123" y="35.7" width="14.2" height="28.7" id="spon-juventus-d_4_">
		<g class="st9">
			<polygon id="spon-juventus-c_4_" class="st0" points="0,72.1 188.3,72.1 188.3,0 0,0 			"/>
		</g>
	</mask>
	<polygon class="st10" points="127.7,44.8 127.9,44.8 132.5,54.6 132.5,64.4 137.2,64.4 137.2,35.7 132.5,35.7 132.5,46.3 
		132.2,46.3 127.6,35.7 123,35.7 123,64.4 127.7,64.4 	"/>
	<defs>
		<filter id="Adobe_OpacityMaskFilter_5_" filterUnits="userSpaceOnUse" x="57.5" y="35.7" width="10.4" height="28.7">
			<feColorMatrix  type="matrix" values="1 0 0 0 0  0 1 0 0 0  0 0 1 0 0  0 0 0 1 0"/>
		</filter>
	</defs>
	<mask maskUnits="userSpaceOnUse" x="57.5" y="35.7" width="10.4" height="28.7" id="spon-juventus-d_5_">
		<g class="st11">
			<polygon id="spon-juventus-c_5_" class="st0" points="0,72.1 188.3,72.1 188.3,0 0,0 			"/>
		</g>
	</mask>
	<path class="st12" d="M67.9,55.9V35.7h-9.4v4.3H63v15.8c0,3-1.7,4.2-4.7,4.2h-0.8v4.4h0.9C64.8,64.4,67.9,61.1,67.9,55.9"/>
	<defs>
		<filter id="Adobe_OpacityMaskFilter_6_" filterUnits="userSpaceOnUse" x="108.2" y="35.7" width="12" height="28.7">
			<feColorMatrix  type="matrix" values="1 0 0 0 0  0 1 0 0 0  0 0 1 0 0  0 0 0 1 0"/>
		</filter>
	</defs>
	<mask maskUnits="userSpaceOnUse" x="108.2" y="35.7" width="12" height="28.7" id="spon-juventus-d_6_">
		<g class="st13">
			<polygon id="spon-juventus-c_6_" class="st0" points="0,72.1 188.3,72.1 188.3,0 0,0 			"/>
		</g>
	</mask>
	<polygon class="st14" points="120.2,60 113,60 113,51.9 117.8,51.9 118.7,47.6 113,47.6 113,40.1 119.8,40.1 119,35.7 108.2,35.7 
		108.2,64.4 119.3,64.4 	"/>
	<defs>
		<filter id="Adobe_OpacityMaskFilter_7_" filterUnits="userSpaceOnUse" x="71.9" y="35.7" width="32.5" height="28.9">
			<feColorMatrix  type="matrix" values="1 0 0 0 0  0 1 0 0 0  0 0 1 0 0  0 0 0 1 0"/>
		</filter>
	</defs>
	<mask maskUnits="userSpaceOnUse" x="71.9" y="35.7" width="32.5" height="28.9" id="spon-juventus-d_7_">
		<g class="st15">
			<polygon id="spon-juventus-c_7_" class="st0" points="0,72.1 188.3,72.1 188.3,0 0,0 			"/>
		</g>
	</mask>
	<path class="st16" d="M76.8,64.6h4.5c3.2,0,4.9-1.6,4.9-4.6V35.7h-4.9v24.7h-4.5V35.7h-4.9V60C71.9,63,73.5,64.6,76.8,64.6
		 M104.3,53.4V35.7h-4.9v17.5c0,3.6-1.7,6.5-4.3,6.5h-0.2v-24H90v28.7h2.4C100.1,64.4,104.3,60.4,104.3,53.4"/>
</g>
</svg>
