<?xml version="1.0" encoding="utf-8"?>
<!-- Generator: Adobe Illustrator 23.0.4, SVG Export Plug-In . SVG Version: 6.00 Build 0)  -->
<svg version="1.1" id="spon-DDI" xmlns="http://www.w3.org/2000/svg" xmlns:xlink="http://www.w3.org/1999/xlink" x="0px" y="0px"
	 viewBox="0 0 192 62" style="enable-background:new 0 0 192 62;" xml:space="preserve">
<style type="text/css">
	.st0{fill-rule:evenodd;clip-rule:evenodd;fill:#FFFFFF;}
	.st1{enable-background:new    ;}
	.st2{fill:#FFFFFF;}
</style>
<g transform="translate(0 -2)">
	<path class="st0" d="M33.6,30.3c-0.7,0.1-1.4,0.3-2,0.5h-0.2c-1.6,0.5-3.2,1.1-4.8,1.6c-1,0.4-2,0.7-3.1,1.1
		c-0.5,0.2-0.7,0.5-0.8,1.1c2.4-1.1,4.9-2,7.3-3C31.2,31.3,32.4,30.8,33.6,30.3z M33.6,31.3c-0.1,0-0.2,0-0.2,0
		c-3.3,1.2-6.9,2.6-10.4,4c-0.6,0.2-0.8,0.6-0.8,1.2c0-0.1,0.1-0.1,0.1-0.2c0.1-0.2,0.2-0.3,0.4-0.3c0.1,0,0.1,0,0.2,0.1
		s0.2,0.1,0.3,0.1c0.2,0,0.4-0.1,0.6-0.2c0.1,0,0.2-0.1,0.2-0.1c0.4-0.2,0.7-0.3,1.1-0.5c2.4-1,4.9-2,7.5-2.8
		C33.4,32.3,33.7,32,33.6,31.3C33.7,31.3,33.7,31.3,33.6,31.3z M51.2,30.5c0.2,0,0.4,0.1,0.5,0.3c0,0.1,0,0.2,0,0.3
		c-0.1,0.2-0.3,0.2-0.4,0.3c-0.1,0-0.1,0-0.2,0.1c-2.9,1.3-5.9,2.6-8.9,3.7c-0.8,0.3-1.5,0.6-2.3,0.9c-0.9,0.4-1.8,0.8-2.6,1.1
		c-0.2,0.1-0.4,0.2-0.6,0.3c0.2,0,0.4-0.1,0.5-0.2c1-0.4,1.9-0.8,2.9-1.1c3.2-1.3,6.6-2.6,9.8-4.1c2.7-1.2,4.9-2.3,7.1-3.7h0.1
		c0.4-0.3,1.1-0.7,1-1.1c-0.2-0.5-1-0.5-1.6-0.5l0,0c-0.7,0-1.4,0-2,0c-1.5,0-2.8,0.1-4,0.2c-0.4,0-0.7,0.1-1.1,0.1
		c-1.2,0.2-2.5,0.3-3.8,0.5c-2.9,0.5-5.7,1.5-8.5,2.4c-0.6,0.2-1.1,0.4-1.7,0.6c-0.7,0.2-0.9,0.7-1,1.2c0.4-0.1,0.9-0.2,1.3-0.3
		c0.5-0.2,1.1-0.4,1.7-0.4c0.3,0,0.6,0.1,0.9,0.2c0,0,0.1,0,0.1,0.1v0.3c0,0.1,0,0.1-0.1,0.1s-0.3,0.1-0.4,0.1
		c-0.3,0.1-0.6,0.1-1,0.2c-0.2,0.1-0.4,0.1-0.6,0.2c-0.3,0.1-0.5,0.2-0.8,0.2c-0.2,0-0.3,0.1-0.3,0.2c-0.1,0.1-0.1,0.2,0,0.4
		c0.3,1.2,0.9,1.8,2,1.8c0.2,0,0.4,0,0.7-0.1c2.2-0.4,4.5-1,6.9-1.9l0.7-0.3c1.7-0.6,3.4-1.3,5.2-1.9l0,0
		C50.9,30.6,51.1,30.5,51.2,30.5z M34.7,33.9c-0.1,0.2-0.2,0.4-0.4,0.7c-0.4,0.7-0.8,1.5-0.9,2.3c-0.1,0.5,0,0.8,0.2,1.1
		c0.1,0.1,0.1,0.1,0.2,0.1c0.1,0,0.2-0.1,0.3-0.1c0.1-0.1,0.2-0.1,0.3-0.2c0.4-0.1,0.9-0.3,1.3-0.5c0.1-0.1,0.3-0.1,0.4-0.2
		c1.3-0.5,2.5-1.1,3.8-1.7l1.1-0.5c-0.3,0-0.5,0.1-0.7,0.2c-0.2,0.1-0.3,0.1-0.5,0.1s-0.3,0.1-0.5,0.1c-0.3,0.1-0.7,0.1-1.1,0.2
		c-0.3,0.1-0.7,0.1-0.9,0.1C36.2,35.6,35.3,35.1,34.7,33.9z M21.4,36.1c-1.5,0.4-2.6,1.4-3.7,2.3c-0.3,0.3-0.6,0.5-0.9,0.8
		c0.1-0.1,0.3-0.1,0.4-0.2c1-0.5,2.1-1,3.2-1.5C21,37.2,21.4,36.8,21.4,36.1z M24.9,36.4c-1.9,0.7-2,0.9-1.6,3
		C24.5,38.6,25,37.6,24.9,36.4z M22.3,38.2c-1,1.6-1.7,3.2-2.2,4.8c-0.1,0.2,0,0.3,0,0.3s0,0,0.1,0s0.2,0,0.3-0.1
		c0.5-0.2,1-0.3,1.5-0.5c1-0.3,2-0.7,3-1.1c2.6-1,5.2-2.2,7.7-3.2h0.1c0,0,0.1,0,0.2,0c0.1,0,0.3-0.1,0.3-0.1s0-0.1-0.1-0.2
		c-0.2-0.2-0.3-0.5-0.3-0.7c-0.1-0.2-0.1-0.4-0.2-0.5c-0.1,0.1-0.2,0.1-0.2,0.2c-0.2,0.2-0.5,0.3-0.7,0.5h-0.1
		c-0.2,0.1-0.3,0.2-0.5,0.2s-0.3-0.1-0.5-0.2c-0.4-0.4-0.5-0.8-0.4-1.2v-0.1c0.1-0.2,0.2-0.5,0.6-0.6c0,0,0,0,0.1,0
		c0.2,0,0.3,0.2,0.4,0.3l0.1,0.1c0.1,0.1,0.2,0.2,0.1,0.3c0,0.1-0.2,0.2-0.3,0.2h-0.1c0.7-0.1,1.4-0.7,1.6-1.4
		c0-0.2,0.1-0.4,0.1-0.5c0.1-0.4,0.1-0.7,0.3-1.1c0.1-0.2,0.1-0.3,0.1-0.3l0,0c-0.1,0-0.2,0-0.3,0.1c-0.3,0.1-0.5,0.2-0.8,0.3
		c-0.4,0.1-0.7,0.2-1.1,0.4c-1.5,0.6-3.3,1.3-5,2H26c-0.1,0-0.3,0.1-0.3,0.1s0,0,0,0.1c0.4,0.5,0.3,1.1,0.2,1.6V38
		c-0.1,0.2-0.1,0.4,0,0.5l0.1,0.1c0.1,0,0.2-0.1,0.3-0.2h0.1c0.4-0.3,0.8-0.6,1.2-0.9l0.5-0.4c0,0,0,0,0.1,0c0,0,0,0,0.1,0l0.1,0.1
		c-0.1,1-1.2,2.1-2.1,2.1c-0.1,0-0.2,0-0.3-0.1c-0.2-0.1-0.3-0.1-0.5-0.1c-0.3,0-0.4,0.2-0.7,0.5l-0.1,0.1c-0.3,0.4-0.6,0.5-1,0.5
		c-0.5,0-0.8-0.4-1-1c-0.1-0.2-0.1-0.5-0.2-0.7C22.3,38.3,22.3,38.3,22.3,38.2z M16.1,38.6c-3.5,1.7-6.6,3.3-9.4,5.2
		C9.8,42.4,12.9,40.7,16.1,38.6z M21.8,34.1c-0.1,0-0.2,0.1-0.3,0.2c-0.1,0.1-0.2,0.1-0.2,0.1c-6.8,2.7-12,5.4-16.6,8.6H4.6
		c-1.1,0.7-2.2,1.5-3.2,2.7c0.1,0,0.1,0,0.2,0c0.8-0.1,1.3-0.2,1.9-0.6C3.7,45,3.8,44.9,4,44.7c0.7-0.6,1.4-1.1,2.2-1.6
		c4.6-2.9,9.4-5.2,14-7.3c0.2-0.1,0.3-0.2,0.5-0.2c0.3-0.1,0.6-0.3,0.9-0.4c0.4-0.2,0.5-0.7,0.4-0.9S21.8,34.1,21.8,34.1z M7.4,44.4
		c-1.1,0.6-2.1,1.1-3.2,1.5C4,46,3.8,46.1,3.7,46.3c-0.1,0.1-0.1,0.2-0.2,0.2c-0.2,0.2-0.2,0.3-0.2,0.5c0.1,0.1,0.2,0.2,0.4,0.2h0.1
		c0.3,0,0.6,0,0.9,0h0.1c0.7,0,1.4,0,2.1-0.1c3.9-0.8,8-1.9,12.2-3.2c0.1,0,0.1,0,0.2,0s0.2,0,0.2,0s0,0,0-0.2
		c-0.1-0.2-0.1-0.2-0.3-0.2c0,0-0.1,0-0.2,0s-0.2,0-0.4,0.1c-0.2,0.1-0.3,0.1-0.5,0.1s-0.4-0.1-0.6-0.3v-0.1c0,0,0-0.1,0.1-0.1
		c0.2-0.1,0.3-0.2,0.5-0.3c0.4-0.2,0.7-0.4,1.1-0.5c0.2-0.1,0.3-0.2,0.3-0.5c0.1-0.3,0.1-0.6,0.6-0.6l0.9-2.8l0,0c0,0,0,0-0.1,0
		c-3.1,1.4-7.1,3.3-11,5.5c-0.1,0-0.1,0.1-0.2,0.1c-0.4,0.2-0.9,0.5-1,1c0,0.2-0.1,0.5-0.3,0.5c-0.1,0-0.2-0.1-0.3-0.2l0,0
		c-0.3-0.2-0.3-0.6-0.3-0.9L7.4,44.4z M5.9,50.8c-0.4,0-0.5-0.2-0.5-0.4c0-0.1,0-0.2,0.1-0.3C5.5,50,5.7,50,5.8,50C5.9,50,6,50,6,50
		c2.7-1.2,5.4-2.4,8-3.5l2.9-1.3c-0.3,0.1-0.6,0.2-0.8,0.2c-0.8,0.2-1.6,0.4-2.3,0.7c-3.2,1-5.9,1.6-8.5,1.9c-0.3,0-0.5,0.1-0.7,0.1
		c-1,0-1.6-0.4-2.2-1.5c-0.1-0.1-0.1-0.2-0.2-0.2H2.1c-0.1,0-0.1,0-0.2,0l0,0H1.8c-0.4,0-0.9-0.1-1.1-0.6c-0.4-0.4,0-0.8,0.3-1
		l0.1-0.1c2.3-2.1,5-3.7,7.5-5.1c4.3-2.4,8.6-4.5,12.8-6c0.5-0.2,0.9-0.4,1-1c1.1-4.9,2.6-9.9,3.9-14.6c0.2-0.7,0.4-1.4,0.6-2.1
		c0.1-0.3,0.2-0.6,0.2-0.9c0-0.1,0.1-0.2,0.1-0.3c-0.8,0.5-1.1,1.1-1.4,1.8c0,0.1-0.1,0.2-0.1,0.3c-0.4,0.7-0.7,1.6-0.9,2.6
		c-0.2,0.8-0.3,1.8,0,2.9v0.1c0,0,0,0-0.1,0c0,0,0,0-0.1,0C24,21.7,24,21.3,24,21c0.1-2.9,0.9-5.2,2.6-7c0.2-0.2,0.4-0.5,0.8-0.5
		c0.1,0,0.2,0,0.3,0.1c0.4,0.2,0.6,0.5,0.5,1.1c-0.1,1.4-0.6,2.7-1,4c-0.1,0.2-0.1,0.3-0.2,0.5c-1.1,3.4-2,6.9-2.9,10.3
		c-0.3,1-0.5,2-0.8,3c0,0.1,0,0.2,0,0.3c0,0,0,0,0,0.1c3.5-1.3,7-2.5,10.7-3.4c0.4-0.1,0.6-0.4,0.8-0.8c1.5-4.3,3.6-8.6,6-12.8
		c0,0,0-0.1,0.1-0.1c0-0.2,0.1-0.4,0.4-0.4c0.1,0,0.1,0,0.2,0.1c0.4,0.2,0.5,0.5,0.4,0.9c0,0.1-0.1,0.2-0.1,0.4
		c-0.1,0.4-0.3,0.8-0.6,1.1c-0.8,0.8-1.3,1.8-1.8,2.8c-0.1,0.3-0.3,0.6-0.4,0.9c-1.3,2.5-2.4,4.8-3.2,7.1v0.1
		c-0.1,0.1-0.1,0.2-0.1,0.4c0.6-0.2,1.2-0.3,1.9-0.5c1.4-0.4,2.9-0.7,4.4-1c2.7-0.5,5.4-1.3,8-2c1.5-0.4,3-0.9,4.6-1.2
		c0.2,0,0.3-0.1,0.4-0.2c0-0.1,0-0.2-0.1-0.3c-0.2-0.6,0.1-1,0.4-1.3c1.4-1.4,3.1-2.5,5.5-3.5c0.2-0.1,0.3-0.1,0.5-0.1
		c0.3,0,0.4,0.2,0.5,0.5c0.1,0.2,0.1,0.4,0,0.5c-0.1,0.2-0.3,0.2-0.5,0.2c-0.1,0-0.1,0-0.1,0c-1.9,0.4-3.6,1.5-5.2,3.3
		c-0.2,0.2-0.2,0.3-0.2,0.3c0,0.1,0.2,0.2,0.4,0.2c0.1,0,0.3,0.1,0.4,0.1c0.2,0,0.5-0.1,0.7-0.1c0.1,0,0.2-0.1,0.4-0.1
		c3.9-0.9,8.1-1.8,12.4-2.5c0.7-0.1,1.3-0.3,2-0.4c0.7-0.2,1.4-0.3,2.1-0.4c0.1,0,0.2,0,0.3-0.1c0.2,0,0.4-0.1,0.6-0.1
		c0.4,0,0.7,0.2,0.7,0.6c0,0.2,0,0.3-0.1,0.5c-0.2,0.2-0.5,0.2-0.8,0.3c-0.1,0-0.3,0-0.4,0c-3.5,0.9-7,1.5-10.5,2.1l-1.3,0.2
		c-1.2,0.2-2.5,0.4-3.8,0.6c-2.8,0.4-5.6,0.8-8.4,1.7c0.5,0,0.9-0.1,1.3-0.1c0.3,0,0.7-0.1,1-0.1h0.3c0.7,0,1.5-0.1,2.2-0.1
		c0.8,0,1.5,0.1,2.2,0.2c0.5,0.1,1.2,0.3,1.5,1.1c0.3,0.8-0.3,1.3-0.8,1.7c-1.6,1.3-3.5,2.1-5.1,2.9c-7.5,3.4-15.5,6.5-23.5,9.3
		c-7.2,2.5-14.1,5.7-20.9,8.8l-0.6,0.3c-0.1,0-0.2,0.1-0.3,0.2c-0.4,0.2-0.9,0.4-1.4,0.5C6.1,50.8,6,50.8,5.9,50.8L5.9,50.8z"/>
	<g transform="translate(81)">
		<g class="st1">
			<path class="st2" d="M1,51.4h3.4c1.2,0,2.1,0.4,2.7,1.3C7.7,53.4,8,54.4,8,55.6c0,0.9-0.2,1.7-0.5,2.5c-0.6,1.3-1.6,2-3.1,2H1
				V51.4z M4.2,59c0.4,0,0.7,0,1-0.1C5.6,58.7,6,58.5,6.3,58c0.2-0.3,0.4-0.8,0.5-1.3c0.1-0.3,0.1-0.6,0.1-0.9
				c0-1.1-0.2-1.9-0.6-2.5s-1.1-0.9-2-0.9h-2V59H4.2z"/>
			<path class="st2" d="M9.4,51.4h1.1v1.2H9.4V51.4z M9.4,53.8h1.1V60H9.4V53.8z"/>
			<path class="st2" d="M15.6,53.9c0.2,0.1,0.4,0.3,0.6,0.6v-3.2h1V60h-0.9v-0.9c-0.2,0.4-0.5,0.7-0.9,0.8c-0.3,0.2-0.7,0.3-1.1,0.3
				c-0.7,0-1.3-0.3-1.8-0.9S11.7,58,11.7,57c0-0.9,0.2-1.7,0.7-2.4s1.1-1,2-1C14.8,53.6,15.2,53.7,15.6,53.9z M13.2,58.6
				c0.3,0.5,0.7,0.7,1.4,0.7c0.5,0,0.9-0.2,1.2-0.6c0.3-0.4,0.5-1,0.5-1.8s-0.2-1.4-0.5-1.8s-0.7-0.6-1.2-0.6s-1,0.2-1.3,0.6
				c-0.3,0.4-0.5,1-0.5,1.8C12.8,57.6,12.9,58.2,13.2,58.6z"/>
			<path class="st2" d="M18.8,51.4h1.1v1.2h-1.1V51.4z M18.8,53.8h1.1V60h-1.1V53.8z"/>
			<path class="st2" d="M25.3,53.9c0.4,0.2,0.7,0.5,0.9,0.8c0.2,0.3,0.3,0.7,0.4,1.1c0.1,0.3,0.1,0.8,0.1,1.4h-4.6
				c0,0.6,0.2,1.2,0.4,1.5s0.7,0.6,1.3,0.6c0.5,0,1-0.2,1.3-0.5c0.2-0.2,0.3-0.5,0.4-0.7h1c0,0.2-0.1,0.5-0.3,0.8s-0.3,0.5-0.5,0.7
				c-0.3,0.3-0.7,0.5-1.2,0.6c-0.3,0.1-0.5,0.1-0.9,0.1c-0.8,0-1.4-0.3-2-0.9S21.1,58,21.1,57s0.3-1.8,0.8-2.5s1.3-0.9,2.1-0.9
				C24.5,53.6,24.9,53.7,25.3,53.9z M25.7,56.4c0-0.5-0.1-0.8-0.3-1.1c-0.3-0.5-0.8-0.8-1.4-0.8c-0.5,0-0.9,0.2-1.2,0.5
				c-0.3,0.3-0.5,0.8-0.5,1.3L25.7,56.4L25.7,56.4z"/>
			<path class="st2" d="M28.1,53.7h1v1.1c0.1-0.2,0.3-0.5,0.6-0.8s0.7-0.5,1.1-0.5h0.1c0,0,0.1,0,0.2,0v1.1c-0.1,0-0.1,0-0.2,0
				s-0.1,0-0.2,0c-0.5,0-0.9,0.2-1.2,0.5s-0.4,0.7-0.4,1.2V60H28v-6.3H28.1z"/>
			<path class="st2" d="M35.6,51.4H39c1.2,0,2.1,0.4,2.7,1.3c0.6,0.8,0.9,1.7,0.9,2.9c0,0.9-0.2,1.7-0.5,2.5c-0.6,1.3-1.6,2-3.1,2
				h-3.4C35.6,60.1,35.6,51.4,35.6,51.4z M38.9,59c0.4,0,0.7,0,1-0.1c0.4-0.2,0.8-0.4,1.1-0.9c0.2-0.3,0.4-0.8,0.5-1.3
				c0.1-0.3,0.1-0.6,0.1-0.9c0-1.1-0.2-1.9-0.6-2.5c-0.4-0.6-1.1-0.9-2-0.9h-2V59H38.9z"/>
			<path class="st2" d="M44.1,53.7h1v1.1c0.1-0.2,0.3-0.5,0.6-0.8s0.7-0.5,1.1-0.5h0.1c0,0,0.1,0,0.2,0v1.1c-0.1,0-0.1,0-0.2,0
				s-0.1,0-0.2,0c-0.5,0-0.9,0.2-1.2,0.5s-0.4,0.7-0.4,1.2V60H44v-6.3H44.1z"/>
			<path class="st2" d="M52.7,54.4c0.6,0.5,0.8,1.3,0.8,2.4c0,1-0.2,1.8-0.7,2.5s-1.2,1-2.3,1c-0.9,0-1.5-0.3-2-0.9
				C48,58.8,47.7,58,47.7,57c0-1.1,0.3-1.9,0.8-2.5s1.2-0.9,2.1-0.9C51.4,53.5,52.1,53.8,52.7,54.4z M52,58.5
				c0.3-0.5,0.4-1.1,0.4-1.8c0-0.6-0.1-1.1-0.3-1.4c-0.3-0.6-0.8-0.9-1.5-0.9c-0.6,0-1.1,0.2-1.4,0.7c-0.3,0.5-0.4,1.1-0.4,1.8
				s0.1,1.2,0.4,1.7c0.3,0.4,0.7,0.7,1.4,0.7C51.3,59.3,51.7,59,52,58.5z"/>
			<path class="st2" d="M58.3,54c0.2,0.1,0.4,0.3,0.6,0.6v-0.8h1v5.7c0,0.8-0.1,1.4-0.4,1.9c-0.4,0.9-1.3,1.3-2.5,1.3
				c-0.7,0-1.2-0.2-1.7-0.5s-0.7-0.8-0.8-1.4h1.1c0.1,0.3,0.2,0.5,0.3,0.7c0.2,0.2,0.6,0.4,1.1,0.4c0.8,0,1.3-0.3,1.6-0.9
				c0.1-0.3,0.2-0.9,0.2-1.8c-0.2,0.3-0.5,0.6-0.8,0.7s-0.7,0.2-1.2,0.2c-0.7,0-1.3-0.2-1.8-0.7s-0.8-1.3-0.8-2.4
				c0-1.1,0.3-1.9,0.8-2.5s1.1-0.9,1.9-0.9C57.5,53.6,57.9,53.7,58.3,54z M58.4,55.1c-0.3-0.4-0.7-0.6-1.2-0.6c-0.7,0-1.2,0.3-1.5,1
				c-0.1,0.4-0.2,0.9-0.2,1.5c0,0.7,0.1,1.2,0.4,1.6c0.3,0.4,0.7,0.6,1.2,0.6c0.8,0,1.3-0.3,1.6-1c0.2-0.4,0.3-0.8,0.3-1.4
				C58.9,56.1,58.7,55.5,58.4,55.1z"/>
			<path class="st2" d="M61.4,51.4h1v3.1c0.2-0.3,0.5-0.5,0.8-0.7s0.7-0.2,1-0.2c0.8,0,1.4,0.3,1.9,0.8s0.7,1.3,0.7,2.4
				c0,1-0.2,1.8-0.7,2.5s-1.2,1-2,1c-0.5,0-0.9-0.1-1.2-0.3c-0.2-0.1-0.4-0.4-0.6-0.7V60h-1v-8.6H61.4z M65.4,58.6
				c0.3-0.5,0.4-1.1,0.4-1.8s-0.1-1.2-0.4-1.6c-0.3-0.4-0.7-0.7-1.3-0.7c-0.5,0-0.9,0.2-1.3,0.5s-0.5,0.9-0.5,1.8
				c0,0.6,0.1,1.1,0.2,1.4c0.3,0.7,0.8,1,1.6,1C64.7,59.3,65.1,59,65.4,58.6z"/>
			<path class="st2" d="M71.5,56.2c0.2,0,0.4-0.1,0.5-0.3c0-0.1,0.1-0.2,0.1-0.4c0-0.4-0.1-0.6-0.4-0.8s-0.6-0.2-1.1-0.2
				s-0.9,0.1-1.2,0.4c-0.1,0.2-0.2,0.4-0.3,0.7h-1c0-0.8,0.3-1.3,0.8-1.6s1-0.5,1.7-0.5s1.3,0.1,1.8,0.4c0.5,0.3,0.7,0.7,0.7,1.3
				v3.6c0,0.1,0,0.2,0.1,0.3s0.1,0.1,0.3,0.1c0,0,0.1,0,0.2,0s0.1,0,0.2,0V60c-0.2,0-0.3,0.1-0.4,0.1s-0.2,0-0.4,0
				c-0.4,0-0.6-0.1-0.8-0.4c-0.1-0.1-0.1-0.3-0.2-0.6c-0.2,0.3-0.5,0.5-0.9,0.7s-0.8,0.3-1.3,0.3c-0.6,0-1.1-0.2-1.4-0.5
				c-0.4-0.4-0.6-0.8-0.6-1.3c0-0.6,0.2-1,0.5-1.4c0.4-0.3,0.8-0.5,1.4-0.6L71.5,56.2z M69.3,59.1c0.2,0.2,0.5,0.3,0.8,0.3
				c0.4,0,0.7-0.1,1.1-0.3c0.6-0.3,0.9-0.8,0.9-1.4v-0.8c-0.1,0.1-0.3,0.2-0.5,0.2s-0.4,0.1-0.6,0.1l-0.6,0.1
				c-0.4,0.1-0.7,0.1-0.9,0.2C69.2,57.7,69,58,69,58.4C68.9,58.6,69.1,58.9,69.3,59.1z"/>
		</g>
		<g class="st1">
			<path class="st2" d="M6.4,43c-0.8,0-1.4-0.1-1.9-0.2c-0.5-0.1-0.9-0.4-1.3-0.9c-0.2-0.2-0.3-0.3-0.5-0.3c-0.3,0-0.8,0.6-1.4,1.7
				l-0.6-0.6c0.6-1,1.2-1.6,1.7-1.8v-3.6H0.7v-0.8h2.5V41c0.1,0.1,0.2,0.2,0.3,0.3c0.3,0.3,0.6,0.6,0.9,0.8c0.4-0.1,0.9,0,1.6,0.1
				c0.6,0,1.4,0,2.4,0c0.6,0,1.1,0,1.7,0c0.6,0,1,0,1.3,0L11.3,43H8.5C7.9,43,7.2,43,6.4,43z M3.6,34.3L3,34.9
				c-0.5-0.6-1.2-1.2-2-1.9l0.6-0.6C2.3,33,3,33.6,3.6,34.3z M7.2,34.3v-2.1H8v2.1h2.7v6.5H4.5v-6.5H7.2z M7.2,37v-2H5.3v2H7.2z
				 M7.2,37.8H5.3v2.1h1.9C7.2,39.9,7.2,37.8,7.2,37.8z M8.1,37H10v-2H8.1V37z M10,37.8H8.1v2.1H10V37.8z"/>
			<path class="st2" d="M18.9,43c-0.8,0-1.4-0.1-1.9-0.2c-0.5-0.1-0.9-0.4-1.3-0.9c-0.2-0.2-0.3-0.3-0.5-0.3c-0.3,0-0.8,0.6-1.4,1.7
				l-0.6-0.6c0.6-1,1.2-1.6,1.7-1.8v-3.6h-1.7v-0.8h2.5V41c0.1,0.1,0.2,0.2,0.3,0.3c0.3,0.3,0.6,0.6,0.9,0.8
				c0.4,0.2,0.9,0.3,1.6,0.3c0.6,0,1.4,0,2.4,0c0.6,0,1.1,0,1.7,0s1,0,1.3,0L23.8,43h-2.7C20.4,43,19.7,43,18.9,43z M16.1,34.3
				l-0.6,0.6c-0.5-0.6-1.2-1.2-2-1.9l0.6-0.6C14.9,33,15.6,33.6,16.1,34.3z M19.8,34.3v-2.1h0.8v2.1h2.7v6.5H17v-6.5H19.8z M19.8,37
				v-2h-1.9v2H19.8z M19.8,37.8h-1.9v2.1h1.9V37.8z M20.6,37h1.9v-2h-1.9V37z M22.5,37.8h-1.9v2.1h1.9V37.8z"/>
			<path class="st2" d="M27,35.3v-3h0.9v3h1.3v0.8h-1.3v4.2c0.4-0.1,0.8-0.3,1.2-0.5v0.8c-1,0.4-2.1,0.8-3.3,1.1l-0.2-0.8
				c0.5-0.1,0.9-0.2,1.4-0.3v-4.5h-1.3v-0.8H27z M29.4,43.2l-0.5-0.7c1.5-0.6,2.6-1.5,3.1-2.7h-2.7V39h3c0.1-0.5,0.2-1.1,0.2-1.7
				l0,0h-1.9c-0.3,0.5-0.6,0.9-1,1.2L29,38c0.7-0.6,1.3-1.5,1.7-2.5l0.8,0.3c-0.1,0.3-0.2,0.6-0.3,0.8H36v0.8h-2.5
				c0,0.6-0.1,1.2-0.2,1.7h3.2v0.8h-2.9c0.7,1.1,1.7,2,3.1,2.7L36,43.2c-1.5-0.8-2.5-1.9-3.2-3.1C32.2,41.5,31.1,42.5,29.4,43.2z
				 M36.4,35.4l-0.7,0.5c-0.2-0.3-0.4-0.6-0.6-1c-1.5,0.2-3.2,0.4-5.3,0.5l-0.2-0.7c0.2,0,0.3-0.1,0.4-0.2c0.8-0.7,1.4-1.5,1.9-2.4
				l0.9,0.3c-0.6,1-1.2,1.8-1.8,2.3c1.2-0.1,2.5-0.2,3.8-0.4c-0.3-0.4-0.6-0.8-0.9-1.2l0.7-0.4C35.3,33.7,35.9,34.6,36.4,35.4z"/>
			<path class="st2" d="M41.2,37.1c0.2,0.2,0.3,0.4,0.3,0.6c0,0.2-0.1,0.4-0.3,0.6s-0.4,0.3-0.6,0.3c-0.2,0-0.4-0.1-0.6-0.3
				c-0.2-0.2-0.3-0.4-0.3-0.6c0-0.2,0.1-0.5,0.3-0.6c0.2-0.2,0.4-0.3,0.6-0.3C40.9,36.8,41.1,36.9,41.2,37.1z"/>
			<path class="st2" d="M47.9,32.5c-0.6,1.3-1.6,2.5-3,3.5l-0.3-0.8c1.1-0.9,2-1.9,2.5-3.1L47.9,32.5z M48.2,35.6
				c-0.3,0.6-0.6,1.1-1,1.7v6h-0.8v-5c-0.4,0.4-0.8,0.7-1.3,1.1l-0.3-0.8c1.2-0.9,2.1-2,2.7-3.2L48.2,35.6z M49.3,40.1
				c-0.2,1-0.5,1.9-1,2.7l-0.7-0.4c0.4-0.7,0.7-1.5,0.9-2.4L49.3,40.1z M52.2,32.3c0,0.3-0.1,0.5-0.1,0.8h3.1v0.8H52
				c-0.1,0.3-0.1,0.6-0.2,0.9H55v2.9h-6.3v-2.9H51c0.1-0.3,0.1-0.6,0.2-0.9h-2.8v-0.8h2.9c0-0.3,0.1-0.6,0.1-0.9L52.2,32.3z
				 M55.2,38.4v0.8h-6.8v-0.8H55.2z M50.6,35.4h-1.2v1.4h1.2V35.4z M50.9,43.1c-0.7,0-1-0.3-1-1v-2.2h0.8v2c0,0.3,0.1,0.4,0.5,0.4
				h1.6c0.2,0,0.3,0,0.4-0.1c0.1-0.1,0.2-0.5,0.2-1l0.8,0.3c-0.1,0.8-0.2,1.3-0.4,1.5c-0.2,0.1-0.4,0.2-0.8,0.2h-2.1V43.1z
				 M52.4,35.4h-1.1v1.4h1.1V35.4z M53.2,40.9l-0.6,0.5c-0.3-0.5-0.7-1-1.2-1.5l0.6-0.4C52.5,40.1,52.9,40.5,53.2,40.9z M54.2,35.4
				H53v1.4h1.2V35.4z M55.7,42.2L55,42.5c-0.3-1-0.7-1.8-1.1-2.6l0.7-0.2C55.1,40.5,55.4,41.3,55.7,42.2z"/>
			<path class="st2" d="M67.4,32.7v3.4h-6l0.6,0.3c-0.2,0.4-0.4,0.7-0.6,1h5.1v0.7c-1,2.9-3.8,4.6-8.6,5.1l-0.4-0.7
				c2-0.2,3.7-0.6,5-1.2c-0.6-0.5-1.3-1-2.1-1.5l0.6-0.6c0.9,0.5,1.6,1.1,2.3,1.6c1.1-0.7,1.8-1.5,2.3-2.6h-4.8
				c-0.8,1-1.8,1.7-2.9,2.1l-0.5-0.7c1.7-0.6,2.9-1.8,3.8-3.5H58v-3.4C58,32.7,67.4,32.7,67.4,32.7z M60.9,33.5H59v1.9h1.9V33.5z
				 M63.7,33.5h-2v1.9h2V33.5z M66.5,33.5h-2v1.9h2V33.5z"/>
			<path class="st2" d="M79.7,37.9h-8.1v3.5c0,0.4,0.2,0.6,0.7,0.6h6.5c0.4,0,0.6-0.2,0.7-0.5s0.2-0.9,0.3-2l0.8,0.3
				c-0.1,1-0.2,1.6-0.3,2.1c-0.2,0.6-0.6,1-1.3,1h-7.1c-0.8,0-1.2-0.4-1.2-1.2v-8.8h8.9L79.7,37.9L79.7,37.9z M71.6,33.7v3.4h3.2
				v-3.4H71.6z M78.8,37.1v-3.4h-3.2v3.4H78.8z"/>
		</g>
		<g class="st1">
			<path class="st2" d="M1.3,9.9L0.5,8.6C3,7.7,4.9,6.7,6.1,5.4H3.5V4.1h4.7c1.2,1.8,3.3,3.2,6.3,4.3l-1,1.3
				c-0.7-0.3-1.3-0.6-1.9-0.9v1H8.2V12h4.2v1.4H8.2v2.3h5.6v1.4H1.3v-1.4h5.5v-2.3H2.5V12h4.2V9.8H3.3V9C2.7,9.3,2,9.6,1.3,9.9z
				 M7.5,5.5c-0.8,1.1-1.9,2-3.2,2.9h6.6C9.5,7.6,8.4,6.6,7.5,5.5z"/>
			<path class="st2" d="M21.6,4.6v1.3H20v3.2h1.3v1.3H20V13c0.6-0.2,1.1-0.5,1.6-0.8v1.4c-1.5,0.8-3.1,1.4-4.7,1.9l-0.4-1.4
				c0.7-0.1,1.3-0.3,2-0.5v-3.2h-1.6V9.1h1.6V5.9h-1.8V4.6H21.6z M24.5,13.2c-0.8,1.1-1.9,2.1-3.1,2.9l-0.6-1.3
				c1.3-0.8,2.4-1.7,3.3-2.8L24.5,13.2z M24.3,11l-1,0.7c-0.4-0.8-0.9-1.6-1.6-2.6l1.1-0.7C23.4,9.5,23.9,10.3,24.3,11z M24.9,6.2
				V3.7h1.4v2.5h2.1c-0.4-0.5-0.9-1-1.6-1.5l0.8-0.8C28.4,4.5,29,5,29.5,5.6l-0.6,0.6h0.9v1.4h-3.5v1.2c0.2,0.7,0.4,1.3,0.7,1.9
				c0.6-0.7,1.2-1.5,1.7-2.3l1.1,0.8c-0.7,1.1-1.4,2-2.1,2.7c0.7,1.3,1.6,2.4,2.7,3.4l-0.9,1.1c-1.3-1.3-2.4-2.8-3.2-4.6v5.6h-1.4
				V7.6h-3.2V6.2H24.9z"/>
			<path class="st2" d="M38.8,17.3h-1.4v-0.7h-2.8v0.7h-1.4v-6.8h5.5v6.8H38.8z M37.4,15.3V12h-2.8v3.3H37.4z M43.7,4.2v5.2h-8.5
				V4.2H43.7z M42.3,5.6h-5.7v2.5h5.7V5.6z M45.8,17.3h-1.4v-0.7h-2.9v0.7H40v-6.8h5.7L45.8,17.3L45.8,17.3z M44.3,15.3V12h-2.9v3.3
				H44.3z"/>
			<path class="st2" d="M53.5,3.9v5.2h-2.7v2h2.8v6.4h-1.3v-5.1h-1.5c-0.1,2.2-0.5,3.9-1.3,5.1l-1-0.9c0.6-1.1,0.9-3,1-5.5V4.2h1.3
				v3.6h1.3V3.9H53.5z M54.6,11.5V5H57c0.2-0.4,0.3-0.9,0.4-1.3l1.4,0.2c-0.1,0.4-0.2,0.8-0.4,1.1h3.3v6.6h-3.5
				c-0.1,0.1-0.1,0.2-0.1,0.3c-0.4,0.7-1,1.2-1.8,1.6h2.3V12H60v1.4h2.5v1.4H60v2.7h-1.4v-2.7H54v-1.4h1.5L55,12.7
				c0.7-0.3,1.2-0.7,1.6-1.2H54.6z M55.9,6.2v1.4h1.6V6.2H55.9z M55.9,8.8v1.5h1.4c0.1-0.5,0.2-0.9,0.2-1.5H55.9z M60.4,10.3V8.8
				h-1.6c0,0.5-0.1,1-0.2,1.5H60.4z M60.4,7.6V6.2h-1.6v1.4H60.4z"/>
			<path class="st2" d="M64.9,11.2l-0.5-1.5C66,8,67.1,5.9,67.8,3.6l1.3,0.6c-0.4,1.1-0.9,2.2-1.4,3.2v10.1h-1.4v-8
				C65.9,10.1,65.4,10.7,64.9,11.2z M77.9,8.5L73,9.1c0.1,0.8,0.2,1.5,0.3,2.1c0.3,1.6,0.8,2.8,1.4,3.6c0.5,0.8,1.1,1.2,1.5,1.2
				c0.3,0,0.6-0.9,0.8-2.7l1.2,0.7c-0.2,1.2-0.5,2.1-0.8,2.7c-0.3,0.5-0.7,0.7-1.1,0.7c-0.8,0-1.5-0.5-2.3-1.4c-0.9-1-1.5-2.4-2-4.1
				c-0.2-0.7-0.3-1.6-0.4-2.6l-3.1,0.4l-0.2-1.3L71.5,8c-0.1-1.3-0.2-2.7-0.2-4.3h1.4c0,1.5,0,2.9,0.1,4.1l4.7-0.6L77.9,8.5z
				 M76.7,6l-1,1c-0.5-0.7-1.3-1.5-2.2-2.3l0.9-0.9C75.3,4.5,76,5.2,76.7,6z"/>
			<path class="st2" d="M86.9,5.4c-0.2-0.5-0.5-1-0.7-1.4l1.5-0.4c0.3,0.7,0.6,1.3,0.7,1.8h-0.1h5.9v1.3H80.7V5.4H86.9z M92.6,17.6
				h-1.4V17h-7.6v0.6h-1.4v-5.1h10.3L92.6,17.6L92.6,17.6z M92.3,7.8v1.3h-9.7V7.8H92.3z M92.3,10.1v1.3h-9.7v-1.3H92.3z M91.2,15.6
				v-1.8h-7.6v1.8H91.2z"/>
			<path class="st2" d="M104,7.1c0.9,4,3,7,6.4,9.1l-0.9,1.2c-2.9-1.9-4.9-4.5-6-7.7c-1,3.1-3.1,5.7-6.2,7.7l-0.9-1.3
				c4.1-2.5,6.1-5.8,6.3-10.1c0-1,0-1.8,0-2.4h1.4C104.1,5.1,104.1,6.2,104,7.1z"/>
		</g>
	</g>
</g>
</svg>
