<?xml version="1.0" encoding="utf-8"?>
<!-- Generator: Adobe Illustrator 23.0.3, SVG Export Plug-In . SVG Version: 6.00 Build 0)  -->
<svg version="1.1" id="Capa_1" xmlns="http://www.w3.org/2000/svg" xmlns:xlink="http://www.w3.org/1999/xlink" x="0px" y="0px"
	 viewBox="0 0 174.2 174.2" style="enable-background:new 0 0 174.2 174.2;" xml:space="preserve">
<style type="text/css">
	.st0{fill:#FFFFFF;}
</style>
<g>
	<path class="st0" d="M87.1,0C39.1,0,0,39.1,0,87.1s39.1,87.1,87.1,87.1s87.1-39.1,87.1-87.1S135.2,0,87.1,0z M87.1,159.3
		c-39.8,0-72.2-32.4-72.2-72.2s32.4-72.2,72.2-72.2s72.2,32.4,72.2,72.2S126.9,159.3,87.1,159.3z"/>
	<path class="st0" d="M120.8,53.4c-2.9-2.9-7.6-2.9-10.6,0L87.1,76.6L64,53.4c-2.9-2.9-7.6-2.9-10.6,0s-2.9,7.6,0,10.6l23.2,23.2
		l-23.2,23.2c-2.9,2.9-2.9,7.6,0,10.6c1.5,1.5,3.4,2.2,5.3,2.2s3.8-0.7,5.3-2.2l23.2-23.2l23.2,23.2c1.5,1.5,3.4,2.2,5.3,2.2
		c1.9,0,3.8-0.7,5.3-2.2c2.9-2.9,2.9-7.6,0-10.6L97.7,87.1L120.8,64C123.7,61.1,123.7,56.3,120.8,53.4z"/>
</g>
</svg>
