<?xml version="1.0" encoding="utf-8"?>
<!-- Generator: Adobe Illustrator 23.0.3, SVG Export Plug-In . SVG Version: 6.00 Build 0)  -->
<svg version="1.1" id="Capa_1" xmlns="http://www.w3.org/2000/svg" xmlns:xlink="http://www.w3.org/1999/xlink" x="0px" y="0px"
	 viewBox="0 0 98.8 98.8" style="enable-background:new 0 0 98.8 98.8;" xml:space="preserve">
<style type="text/css">
	.st0{fill:#0A427F;}
</style>
<g>
	<g>
		<path class="st0" d="M95.6,57.5c-1.7-4.4-4-8.5-6.7-12.3c-0.3-0.4-0.6-0.7-0.3-1.4c1.3-3.3,0.9-6.5-0.8-9.5
			c-0.8-1.4-1.7-2.7-1.8-4.3c-0.1-2.4-0.7-4.7-1.4-7c-2.2-8-6.5-14.4-13.9-18.5c-4.2-2.3-8.8-3.6-13.5-4.1C52.2-0.3,47.3,0,42.5,1
			c-8,1.7-13.9,6.4-18.5,13c-3,4.3-5.1,9-5.8,14.3c-0.1,1,0.2,2.1-0.4,3.1c-0.6,0.8-0.9,1.7-1.1,2.7c-0.2,1.4-0.6,2.8-1.3,4.1
			c-0.9,1.6-1.1,3.4-0.8,5.1c0.2,0.8,0,1.2-0.5,1.5c-3.1,2.3-5.7,5.1-7.8,8.4c-3.1,4.6-4.9,9.6-5.2,15.2C1,70.5,1.3,72.7,2,74.8
			c0.4,1,0.9,1.5,2.1,1.1c1-0.3,1.9-0.7,2.6-1.4c1.6-1.4,2.9-3,3.8-5c0.1-0.2,0.1-0.6,0.4-0.6c0.3,0,0.4,0.3,0.4,0.6
			c0.5,2.4,1.6,4.6,2.8,6.7c1.3,2.2,3.1,4.1,5,5.8c0.7,0.6,1.6,0.9,2,1.9c-1.4,0-2.7,0.2-3.9,0.6c-2.1,0.7-3.9,1.8-4.4,4.1
			c-0.5,2.3-0.6,4.5,1.5,6.2c0.8,0.7,1.7,1.2,2.7,1.6c3.5,1.5,7.1,2,10.8,2.2c4.6,0.3,9.2,0.4,13.6-0.8c2.6-0.7,5-1.9,7.3-3.4
			c0.2-0.1,0.4-0.5,0.7-0.4c1.8,0.5,3.7,0,5.5,0.7c2.9,1.1,5.9,2,9,2.5c4.6,0.7,9.2,1.1,13.9,0.5c3.1-0.4,6.2-1.1,9-2.8
			c3.5-2.2,3.7-5.9,0.3-8.3c-1.6-1.2-3.4-2.2-5.2-3.1c-0.5-0.2-1-0.4-1.4-0.9c3.7-3.4,5.5-7.8,7.4-12.4c1.1,2,2.1,3.8,3.4,5.4
			c1.4,1.7,2.7,1.7,4.1,0c0.6-0.7,1-1.5,1.2-2.3C98.5,67.9,97.6,62.6,95.6,57.5z M55,22.7c-0.1-2.1,0.4-4.1,1.5-6
			c2.2-3.6,5.9-3.7,8.1-0.1c1.9,3.1,2,7,1,10.4c-0.5,1.7-1.2,3.2-2.8,4c-2.2,1.1-4.3,0.7-5.8-1.3C55.5,27.7,54.9,25.3,55,22.7z
			 M40.4,15.9c2.1-2.7,5.2-2.7,7.2,0c1.6,2.1,2.1,4.4,2.1,7.2c-0.1,2.4-0.6,4.9-2.4,6.9c-2.1,2.3-4.9,2.2-6.8-0.2
			C37.7,26.3,37.7,19.5,40.4,15.9z M31.1,39.1c3-2.1,6.4-3.3,9.9-4c7.7-1.7,15.5-1.9,23.2,0.1c3.1,0.8,6.2,1.9,8.9,3.7
			c1.7,1.1,1.7,1.5,0,2.6c-1.8,1.1-3.7,2-6.1,2c0.9-0.9,1.9-1.5,2.6-2.9c-11.5,7.9-22.8,8.6-34.1,0.4c0.5,0.8,1,1.6,1.6,2.6
			c-2.2-0.5-4.2-1.1-6-2C29.7,40.7,29.7,40.1,31.1,39.1z M45.5,94.4c-1.4,1.4-3.2,1.8-5,2.2c-6.7,1.5-13.4,1.8-20.1,0
			c-2.1-0.5-4.2-1.3-5.7-2.9c-1.2-1.2-1.2-2.2,0-3.4c0.7-0.8,1.6-1.4,2.4-2.1c-0.6,0.1-1.2,0.2-1.8,0.3c-0.3,0.1-0.6,0.3-0.8,0
			c-0.1-0.2-0.1-0.6,0-0.9c0.3-0.5,0.7-1,1.2-1.4c0.8-0.4,1.5-0.9,2.3-1.3c1.9-0.9,3.6-0.9,5.5,0.5c3.6,2.8,7.9,4.5,12.2,5.9
			c3.1,1,6.3,1.6,9.5,2.1c0.2,0,0.6-0.1,0.7,0.2C46.1,94,45.7,94.2,45.5,94.4z M81.5,84.2c1.2,0.6,2.6,1.1,4,2.3
			c-1.2,0.1-2.2,0.1-3.1,0.7c-0.2,0.1-0.4,0.3-0.4,0.5c0,0.4,0.4,0.3,0.6,0.3c1.2,0,2.3-0.1,3.5,0c2.1,0.1,3.2,1.7,2.4,3.7
			c-1,2.6-3.4,3.5-5.8,4.2c-7.5,2.4-14.9,1.6-22.3-0.6c-0.8-0.2-1.8-0.2-2.2-1.3c7.7-1.2,14.5-4.2,20.4-9.4
			C79.7,83.6,80.2,83.6,81.5,84.2z M84.2,68.1c-0.3,4.4-2,8.3-4.7,11.8c-5.2,6.7-12,10.8-20.2,12.7c-3.1,0.7-6.3,0.3-9.4,0
			c-4.8-0.5-9.5-1.3-14-3.2c-2.8-1.2-5.4-2.5-7.8-4.5c-4.6-3.8-8.2-8.2-9.4-14.1c-1.1-5.4-0.6-10.7,1.7-15.8
			c0.2-0.4,0.4-0.7,0.5-1.1c0.4-0.9,0.8-1.2,1.8-0.5c1,0.8,2.3,1.3,3.4,2c0.4,0.2,0.6,0.4,0.5,1c-0.5,4-0.9,8.1-0.5,12.2
			c0.3,2.4,1.7,4,3.7,4.9c2.8,1.2,5.8,1.1,8.7,0.6c1.2-0.2,2.6-1.8,2.5-3.5L41,62.4L41,60.7c3.2,0.9,6.5,1.2,9.8,1.3
			c7.8,0.2,15.1-1.7,22.1-5c2.1-1,4.1-2.1,6-3.4c0.5-0.3,0.7-0.3,1,0.2C82.8,58.1,84.5,62.8,84.2,68.1z M36.9,64.8l-0.1-3
			c0.1-0.6-0.3-1.6,0.6-1.7c1.1-0.2,2.2,0.6,2.3,1.7c0.3,2.8,0.5,5.7,0.3,8.6c0,1.4-0.7,2.2-2.3,2.3c-2.2,0.1-4.4,0.2-6.6-0.3
			c-3.1-0.7-4.1-2.2-4.2-5.6c-0.1-3.3,0.7-6.4,1.3-9.6c0.1-0.5,0.3-0.5,0.7-0.3c1.9,0.8,3.8,1.8,5.9,2.3c0.6,0.2,0.5,0.6,0.5,1
			c0.1,2,0.3,4.1,1,6c0.1,0.3,0.3,0.6,0.5,1.2L36.9,64.8z M87.9,42c-0.7,3.9-3,6.8-6.2,8.8c-7,4.4-14.4,7.7-22.6,9.2
			c-4.7,0.9-9.5,0.8-14.3,0.2c-5.7-0.7-11.1-2.4-16.3-4.7c-4.3-2-8.5-4.3-11.5-8.2c-2.2-2.8-2.5-5.8-0.5-8.4
			c0.6,3.8,2.7,6.5,5.6,8.6c-1.1-1.9-2.2-3.8-3.3-5.7c-1.2-2-1.1-4.3-0.9-6.5c0.1,0,0.3-0.1,0.3,0c4,5.9,9.7,9.5,16.2,11.8
			C42.7,50.1,51.3,51,60,50c8.9-1,16.8-4.4,23.5-10.5c0.4-0.4,0.9-0.7,1.2-1c-1.5,6.3-6.1,10.4-11.5,13.6c7.5-2.7,11.4-8.7,14-15.7
			C88,37.6,88.2,39.9,87.9,42z"/>
		<path class="st0" d="M57.8,24.4c0.5,0.1,0.6-0.4,0.7-0.8c0.2-0.7,0.3-1.7,1.2-1.7c0.8,0,0.9,0.9,1,1.5c0.1,0.5,0.4,1,0.9,0.9
			c0.7-0.1,0.6-3.5-1.1-4.1c-1.6-0.6-3.2,0.9-3.1,3.1C57.3,23.8,57.3,24.3,57.8,24.4z"/>
		<path class="st0" d="M46.8,26.2c0.8,0.1,1.3-0.5,1.6-1.1c0.8-1.6,0.8-3.2-0.2-4.8c-0.7-1.1-1.8-1.2-2.6-0.2
			c-0.6,0.8-0.8,1.8-0.8,2.7c0,0.7,0.1,1.4,0.4,2.1C45.6,25.6,46,26.2,46.8,26.2z"/>
	</g>
</g>
</svg>
