<?xml version="1.0" encoding="utf-8"?>
<!-- Generator: Adobe Illustrator 23.0.3, SVG Export Plug-In . SVG Version: 6.00 Build 0)  -->
<svg version="1.1" id="圖層_1" xmlns="http://www.w3.org/2000/svg" xmlns:xlink="http://www.w3.org/1999/xlink" x="0px" y="0px"
	 viewBox="0 0 512 512" style="enable-background:new 0 0 512 512;" xml:space="preserve">
<style type="text/css">
	.st0{fill:#FFFFFF;}
</style>
<path class="st0" d="M248,144c0-48.5-39.5-88-88-88s-88,39.5-88,88c0,20.2,6.9,38.8,18.4,53.7c-1.5,3.2-2.4,6.7-2.4,10.3v48.3
	C78.8,241.6,62.4,232,44.3,232c-11.2,0-20.3,9.1-20.3,20.3c0,4,1.2,7.9,3.4,11.2l8.2,12.3c3,4.6,5,9.9,5.7,15.3l5.7,45.4
	c0.9,6.9,3.5,13.5,7.7,19L72,378.7V392H56v112h176V392h-16v-14.1l11.8-23.6c2.8-5.5,4.2-11.7,4.2-17.9V208c0-3.6-0.9-7.1-2.4-10.3
	C241.1,182.8,248,164.2,248,144L248,144z M160,72c39.7,0,72,32.3,72,72s-32.3,72-72,72s-72-32.3-72-72S120.3,72,160,72z M216,408v16
	H72v-16H216z M72,488v-48h144v48H72z M213.5,347.2L200,374.1V392H88v-18.7L67.5,346c-2.5-3.3-4.1-7.3-4.6-11.4l-5.7-45.4
	c-1-7.9-3.8-15.6-8.3-22.2l-8.2-12.4c-0.5-0.7-0.7-1.5-0.7-2.4c0-2.4,1.9-4.3,4.3-4.3c16.9,0,31.6,12,34.9,28.6l10,49.9l4.9,1.2
	c15.3,3.8,25.9,17.5,25.9,33.2v15h16v-15c0-20.9-12.9-39.3-32-46.7V211.8c4.9,4.1,10.3,7.5,16,10.5V304h16v-75.4
	c5.2,1.5,10.5,2.5,16,3V304h16v-72.4c5.5-0.5,10.8-1.5,16-3V304h16v-81.7c5.7-2.9,11.1-6.4,16-10.5v124.6
	C216,340.2,215.1,343.9,213.5,347.2z"/>
<path class="st0" d="M160,168c-4.4,0-8-3.6-8-8h-16c0,10.4,6.7,19.2,16,22.5V200h16v-16h16v-24c0-13.2-10.8-24-24-24
	c-4.4,0-8-3.6-8-8v-8h8c4.4,0,8,3.6,8,8h16c0-10.4-6.7-19.2-16-22.5V88h-16v16h-16v24c0,13.2,10.8,24,24,24c4.4,0,8,3.6,8,8v8H160z"
	/>
<path class="st0" d="M484.6,248.5l-8.2-12.3c-3-4.6-5-9.9-5.7-15.3l-5.7-45.4c-0.9-6.9-3.5-13.5-7.7-19L440,133.3V120h16V8H280v112
	h16v14.1l-11.8,23.6c-2.8,5.5-4.2,11.7-4.2,17.9V304c0,1.6,0.2,3.2,0.5,4.7c-20,19-32.5,45.7-32.5,75.3c0,57.3,46.7,104,104,104
	s104-46.7,104-104c0-29.6-12.5-56.4-32.5-75.3c0.3-1.5,0.5-3.1,0.5-4.7v-48.3c9.2,14.7,25.6,24.3,43.7,24.3
	c11.2,0,20.3-9.1,20.3-20.3C488,255.7,486.8,251.8,484.6,248.5z M440,24v80H296V72h64V56h-64V24H440z M440,384c0,48.5-39.5,88-88,88
	s-88-39.5-88-88s39.5-88,88-88S440,335.5,440,384z M467.7,264c-16.9,0-31.6-12-34.9-28.6l-10-49.9l-4.9-1.2
	c-15.3-3.8-25.9-17.5-25.9-33.2v-15h-16v15c0,20.9,12.9,39.3,32,46.7v98.8c-5.1-3.3-10.4-6.1-16-8.5v-80h-16v74.9
	c-5.2-1.2-10.5-2.1-16-2.5V208h-16v72.4c-5.5,0.4-10.8,1.3-16,2.5V208h-16v80c-5.6,2.3-10.9,5.2-16,8.5v-121c0-3.7,0.9-7.4,2.5-10.7
	l13.5-26.9V120h112v18.7l20.5,27.3c2.5,3.3,4.1,7.3,4.6,11.4l5.7,45.4c1,7.9,3.8,15.6,8.3,22.2l8.2,12.3c0.5,0.7,0.7,1.5,0.7,2.4
	C472,262.1,470.1,264,467.7,264L467.7,264z"/>
<path class="st0" d="M298.3,426.3l96-96l11.3,11.3l-96,96L298.3,426.3z"/>
<path class="st0" d="M384,392c-13.2,0-24,10.8-24,24s10.8,24,24,24s24-10.8,24-24S397.2,392,384,392z M384,424c-4.4,0-8-3.6-8-8
	s3.6-8,8-8s8,3.6,8,8S388.4,424,384,424z"/>
<path class="st0" d="M320,376c13.2,0,24-10.8,24-24s-10.8-24-24-24s-24,10.8-24,24S306.8,376,320,376z M320,344c4.4,0,8,3.6,8,8
	s-3.6,8-8,8s-8-3.6-8-8S315.6,344,320,344z"/>
<path class="st0" d="M400,88c13.2,0,24-10.8,24-24s-10.8-24-24-24s-24,10.8-24,24S386.8,88,400,88z M400,56c4.4,0,8,3.6,8,8
	c0,4.4-3.6,8-8,8s-8-3.6-8-8S395.6,56,400,56z"/>
</svg>
