<?xml version="1.0" encoding="utf-8"?>
<!-- Generator: Adobe Illustrator 23.0.4, SVG Export Plug-In . SVG Version: 6.00 Build 0)  -->
<svg version="1.1" id="go-top" xmlns="http://www.w3.org/2000/svg" xmlns:xlink="http://www.w3.org/1999/xlink" x="0px" y="0px"
	 viewBox="0 0 46 46" style="enable-background:new 0 0 46 46;" xml:space="preserve">
<style type="text/css">
	.st0{fill-rule:evenodd;clip-rule:evenodd;fill:#1DB954;}
</style>
<path class="st0" d="M23,0c12.7,0,23,10.3,23,23S35.7,46,23,46S0,35.7,0,23S10.3,0,23,0z M23,19.6c-0.3,0-0.6,0.1-0.8,0.4l-8.3,8.3
	c-0.2,0.2-0.3,0.5-0.3,0.8c0,0.6,0.5,1.1,1.1,1.1c0.3,0,0.6-0.1,0.8-0.3l6.3-6.3v12c0,0.6,0.5,1.1,1.1,1.1c0.6,0,1.1-0.5,1.1-1.1
	v-12l6.4,6.4c0.2,0.2,0.5,0.3,0.8,0.3c0.6,0,1.1-0.5,1.1-1.1c0-0.3-0.1-0.6-0.3-0.8l-8.3-8.3C23.6,19.7,23.3,19.6,23,19.6z
	 M32.3,12.5H13.7c-0.6,0-1.1,0.5-1.1,1.1s0.5,1.1,1.1,1.1h18.7c0.6,0,1.1-0.5,1.1-1.1S32.9,12.5,32.3,12.5z"/>
</svg>
