<svg enable-background="new 0 0 176 40" viewBox="0 0 176 40" xmlns="http://www.w3.org/2000/svg"><g clip-rule="evenodd" fill-rule="evenodd" transform="translate(0 -1)"><path d="m33.5 37.3v-6.3h2.6v-2.9h-8v2.9h2.7v6.3zm-2.2-16.6v-1h4.9v-2.7h-8v10h8v-2.7h-4.9v-.9h4.3v-2.7zm4.2-9.9c.1 0 .1 0 0 0 1.4-1.4 1.1-3.6-.6-4.5-.6-.3-1.2-.4-1.9-.4-1.5 0-3.1 0-4.6 0-.1 0-.2 0-.3 0v10h.1 5.1c.8 0 1.6-.2 2.3-.8 1.1-.9 1.4-3.1-.1-4.3zm-35.5-8.7h13.8v11.3c2.2-4.9 5.6-8.6 10.6-10.7 4.9-2.1 10-2.2 15-.2 7.8 3 12.7 10.7 12.5 18.9-.3 8.9-6.4 16.2-14.4 18.4-4.8 1.3-9.5.9-14-1.3s-7.6-5.7-9.6-10.2v11.3h-13.9z" fill="#fff"/><path d="m31.2 13.4v-1.2h1.7c.3 0 .5.3.4.6 0 .3-.2.5-.5.6-.1 0-.2 0-.3 0-.3 0-.8 0-1.3 0m0-3.8v-1.1h1.6c.3 0 .5.2.5.5s-.2.5-.5.6c-.5 0-1 0-1.6 0" fill="#fff"/><path d="m67 30.9h.4c.3 0 .4-.1.4-.4 0-.1 0-.1 0-.2 0-.2-.1-.3-.3-.3-.3 0-.5 0-.8 0-.4 0-.4 0-.4.4s0 .4.4.4h.3zm-3.1 0h.2c.6 0 .5.1.5-.5 0-.2-.1-.3-.3-.3-.3 0-.5 0-.8 0-.4 0-.4 0-.4.4 0 .3.1.4.4.4zm-.1-2.3h.2c.6 0 .5.1.5-.6 0-.2-.1-.2-.2-.2-.3 0-.5 0-.8 0-.4 0-.4 0-.4.4 0 .3.1.4.4.4zm3.2 0h.2c.6 0 .6 0 .5-.6 0-.2-.1-.2-.3-.2-.3 0-.5 0-.8 0-.4 0-.4 0-.4.4 0 .3.1.4.4.4zm2.5 4.6h-1.7c0-.1 0-.3 0-.4 0-.2 0-.3-.3-.3s-.6 0-.9 0c-.2 0-.3.1-.3.3v.4h-1.7v-.7c-.5 0-.9 0-1.3 0 0 0-.1.2-.1.3 0 .5 0 .4-.4.4s-.9 0-1.3 0c0-.1 0-.2 0-.3 0-2.1 0-4.2 0-6.3 0-.2.1-.3.3-.3h2.6c.4 0 .3-.2.3-.4s0-.4-.3-.3c-.8 0-1.7 0-2.5 0-.3 0-.4-.1-.4-.4s0-.6 0-.9c0-.2.1-.3.3-.3h2.6c.2 0 .3-.1.3-.3 0-.5 0-1.1 0-1.6h1.8v1.4c0 .6-.1.5.5.5h.9v-.1c-.3-.2-.6-.4-.9-.6.4-.4.7-.8 1.1-1.2.5.3 1 .7 1.5 1-.2.3-.5.6-.7.9h.8v1.5c-.1 0-.2 0-.4 0-.8 0-1.7 0-2.5 0-.3 0-.3.1-.3.4 0 .2 0 .4.3.4h2.6c.2 0 .3 0 .3.2v6.5c-.2.1-.2.1-.2.2zm-8.3-14.3v-.4-7.6c0-.5 0-.5-.5-.5-1.9 0-3.8 0-5.7 0-.3 0-.4-.1-.4-.4 0-.4 0-.9 0-1.3h.4 5.8c.4 0 .4 0 .4-.4 0-1.9 0-3.9 0-5.8v-.4h1.7v.4 5.8c0 .4 0 .4.4.4h5.8.4v1.6s-.1.1-.2.1-.2 0-.3 0c-1.8 0-3.7 0-5.5 0-.8 0-.7-.1-.7.7v7.4c0 .4 0 .4-.4.4zm-2.7 20.8h-1.7v-.4-11.1c0-.4 0-.4-.4-.4-.6 0-1.1 0-1.8 0 0-.5 0-.9 0-1.4l.2-.1h1.6c.3 0 .3-.1.3-.3 0-1.2 0-2.3 0-3.5v-.5h1.7v.3 3.5c0 .3.1.4.4.4h1.5c.2 0 .3.1.3.3v1.2c-.6 0-1.2 0-1.8 0-.4 0-.4 0-.4.4v11.1.5zm5-1.3c-.7-.5-1.4-.9-2.1-1.4.3-.3.6-.6.9-1-.3 0-.6 0-.9 0v-1.5h.3 4c.4 0 .4 0 .4-.4 0-.1 0-.1 0-.2h1.7v.1c0 .5 0 .5.6.5h1.1v1.4s-.1.1-.2.1c-.4 0-.8 0-1.1 0-.2 0-.3.1-.3.3v1.5c0 .9-.5 1.9-1.9 2-.4 0-.8 0-1.2 0-.1 0-.2-.1-.2-.1-.2-.4-.3-.9-.5-1.4h.6.8c.4 0 .6-.3.6-.6 0-.4 0-.9 0-1.3 0-.2 0-.2-.2-.2-1 0-2 0-2.9 0 0 0-.1 0-.2.1.6.4 1.1.8 1.7 1.2-.3.1-.7.5-1 .9" fill="#e93e50"/><g fill="#fff"><path d="m8.9 2.2c-1.2 1.4-2.5 2.6-4.1 3.7h8.1c-1.5-1-2.9-2.2-4-3.7zm-4.5 12.3h8.8v-3.3h-8.8zm-1.9 2.5v-7.5h12.5v7.5h-1.9v-1h-8.7v1zm13.7-9.2c-1.2-.6-2.1-1.1-2.7-1.5v1.3h-9.5v-1.2c-.2.2-.6.4-1.1.7-.8.4-1.3.8-1.7 1 0-.2-.2-.5-.5-1-.2-.3-.4-.6-.5-.8 3.7-1.7 6.4-3.8 7.9-6.3l2.2.1-.4.8c1.8 2.2 4.2 3.9 7.4 5.1-.3.6-.7 1.2-1.1 1.8z" transform="translate(103 .955)"/><path d="m126.5 10.3h7.3v-1.4h-7.3zm-1.3 5.6h9.8v-1.8h-9.8zm-.5-4.3h11v-4h-11zm-1.4 6.3v-5.1h13.6v5.1h-1.9v-.8h-9.8v.8zm-1.2-9.6v-3.2h16v3.2h-1.8v-1.8h-12.3v1.8zm9.9-3.7v-.9h-3.8v.8h-1.8v-.8h-4.7v-1.4h4.7v-1.2h1.8v1.2h3.8v-1.2h1.8v1.2h4.6v1.5h-4.6v.8zm22.2 5.1-1.6-.9c.7-1.1 1.5-2.5 2.5-4.2l1.6.8c-.4.7-.9 1.7-1.7 3-.3.6-.6 1-.8 1.3zm-7.4 0c-.6-1.4-1.3-2.9-2.1-4.4l1.6-.7c.7 1.5 1.5 3 2.2 4.3zm-1.2 8.2c-.1-.1-.3-.4-.6-.7-.4-.5-.6-.8-.8-1 3.6-2.2 5.3-5.7 5.3-10.3 0-1.8.1-3.4.1-4.9h2c0 .5 0 1.3-.1 2.5 0 1.1 0 1.9-.1 2.5.3 4.4 2.2 7.7 5.6 9.9-.2.2-.4.5-.8 1-.3.4-.5.6-.6.8-2.7-2.1-4.3-4.6-5-7.5-.3 3-2 5.6-5 7.7zm-5.3-6.6c0-.5-.2-1.2-.4-2.1 0-.1-.1-.3-.1-.4 1.7-2.3 3-4.9 3.8-7.8l1.9.6c-.5 1.4-1 2.6-1.6 3.9v12.4h-1.8v-9.1c-.6 1.1-1.2 1.9-1.8 2.5zm32.4-4.5-1.6-.8c.6-.8 1.3-1.9 2.1-3.4l1.6.8c-.3.6-.8 1.4-1.5 2.6-.3.4-.5.6-.6.8zm-7 0c-.6-1.1-1.3-2.2-2-3.4l1.5-.8c.7 1.1 1.4 2.2 2 3.3zm-1.8 2.6v-1.8h4.4v-6.5h1.9v6.5h4.5v1.8h-4.5v2.4h5.1v1.8h-5.1v4.4h-1.9v-4.4h-5.1v-1.8h5.1v-2.4zm-5.2 2c0-.2-.1-.5-.1-.8-.1-.7-.2-1.3-.3-1.7 1.5-2.2 2.7-4.8 3.7-7.8l1.8.6c-.4 1.3-.9 2.5-1.5 3.8v12.4h-1.8v-9c-.6.9-1.2 1.7-1.8 2.5z"/><path d="m85.4 34.5h1v-25h-1z"/><path d="m107.1 34.7h2.4l-.8-4.3c-.1-.7-.2-1.4-.3-2.1 0-.3-.1-.7-.1-1 0 .3-.1.7-.1 1-.1.7-.1 1.4-.3 2.1zm-4.1 6 3.6-15h3.8l3.4 15h-3l-.7-3.8h-3.3l-.7 3.8zm11.5-9.4v-1.9h1v-1.1c0-2 .8-2.6 2.7-2.6h1v2.1c-.2-.1-.4-.1-.6-.1-.4 0-.5.2-.5.4v1.3h1.1v1.9h-1.1v9.4h-2.6v-9.4zm11.7 9.4h2.6v-11.3h-2.6zm0-12.7h2.6v-2.4h-2.6zm-1.4-.3c-.2-.1-.4-.1-.6-.1-.4 0-.5.2-.5.4v1.3h1.1v1.9h-1.1v9.4h-2.6v-9.4h-1v-1.9h1v-1.1c0-2 .8-2.6 2.7-2.6h1z"/><path d="m131.5 40.7h2.6v-15h-2.6z"/><path d="m137.3 40.7h2.6v-11.3h-2.6zm0-12.7h2.6v-2.4h-2.6zm10.3 6.7c-.6.4-1.4.9-2.1 1.4-.4.3-.4.9-.4 1.4 0 .9.3 1.4 1.2 1.4 1.5 0 1.3-1.9 1.3-3zm.3 6c-.2-.4-.2-.8-.2-1.2-.3.5-.6.8-1 1.1-.4.2-.8.4-1.2.4-2.1 0-3-1.1-3-3.4 0-2.6 1.8-3.2 3.9-4 1.1-.5 1.5-1 1.3-1.9-.1-.5-.5-.6-1.2-.6-1.2 0-1.4.6-1.4 1.6h-2.5c0-2.1.7-3.6 3.9-3.6 3.5 0 3.8 1.9 3.7 3.3v6.7c0 .5.1 1.1.2 1.6zm8.9 0c-1.5.2-3.7.3-3.7-1.8v-7.6h-1.1v-1.9h1v-3.1h2.6v3.1h1.1v1.9h-1.1v7c.1.5.8.4 1.1.4zm7-7.1v-1c0-1.1-.3-1.5-1.4-1.5-1.3 0-1.2 1-1.2 2v.5zm-5.2-.3c-.1-2.7 1.2-4.2 3.8-4.2 3.6 0 4 1.9 4 5v1.5h-5.2v1.6c0 1.5.6 1.8 1.4 1.8 1 0 1.2-.7 1.2-2.1h2.6c.1 2.5-.9 4.1-3.6 4.1-3 0-4.2-1.4-4.2-4.7zm12.3 3.6c-.2 2.1.6 2 1.2 2 .7 0 1.3-.5 1.1-1.3 0-.6-.8-1-1.3-1.3l-1.4-1c-1.3-.9-2.1-1.9-2.1-3.6s1.4-2.7 3.9-2.7 3.7 1.3 3.6 3.7h-2.6c.1-1.3-.3-1.7-1.2-1.7-.6 0-1.1.3-1.1.9 0 .7.5 1 1 1.3l2.1 1.4c.7.4 1.7 1.5 1.8 2.2.2 2-.3 4-3.9 4-1.4 0-4-.6-3.7-4z"/></g></g></svg>